/* XPM */
static char *result[] = {
/* columns rows colors chars-per-pixel */
"50 50 70 1 ",
"  c #232120",
". c #282726",
"X c #292826",
"o c #2C2B2A",
"O c #302E2E",
"+ c #343334",
"@ c #393737",
"# c #3A3837",
"$ c #373638",
"% c #383738",
"& c #3C3B3C",
"* c #413F3E",
"= c #43413F",
"- c #403F40",
"; c #444343",
": c #494746",
"> c #4C4946",
", c #494748",
"< c #4C4B4B",
"1 c #514E4C",
"2 c #55514E",
"3 c #504F50",
"4 c #555353",
"5 c #595654",
"6 c #5C5955",
"7 c #595758",
"8 c #5C5A5B",
"9 c #625E5C",
"0 c #64605E",
"q c #68635F",
"w c #615F60",
"e c #656263",
"r c #696565",
"t c #6D6865",
"y c #696768",
"u c #6D6A6B",
"i c #726D6D",
"p c #77726F",
"a c #78726F",
"s c #716E70",
"d c #757272",
"f c #797575",
"g c #7E7976",
"h c #7B7779",
"j c #7E797A",
"k c #807B77",
"l c #827D7D",
"z c #85807C",
"x c #88827F",
"c c #847F81",
"v c #868283",
"b c #8A8585",
"n c #8F8987",
"m c #8C8788",
"M c #8D8989",
"N c #908A86",
"B c #938C8C",
"V c #96908D",
"C c #938F90",
"Z c #969192",
"A c #9B9595",
"S c #9F9895",
"D c #9C9798",
"F c #9D9899",
"G c #A49D9C",
"H c #A6A09D",
"J c #ACA6A2",
"K c #AEA8A4",
"L c #B7B1AF",
"P c None",
/* pixels */
"PPPPPPPPPPPPPPPPPPPPPPPPPPPPPPPPPPPPPPPPPPPPPPPPPP",
"PPPPPPPPPPPPPPPPPPPPPPPPPPPPPPPPPPPPPPPPPPPPPPPPPP",
"PPPPPPPPPPPPPPPPPPPPPPPPPPPPPPPPPPPPPPPPPPPPPPPPPP",
"PPPPPPPPPPPPPPPPPPPPPPPPPPPPPPPPPPPPPPPPPPPPPPPPPP",
"PPPPPPPPPPPPPPPPPdPPPPPPPPPPPPPPPPPPPPPPPPPPPPPPPP",
"PPPPPPPPPPPPPPPPP4ePPPPPPPPPPPPPPPPPPPPPPPPPPPPPPP",
"PPPPPPPPPPPPPPPPP<<uPPPPPPPPPPPPPPPPPPPPPPPPPPPPPP",
"PPPPPPPPPPPPPPPPPP<7dPPPPPPPPPPPPPPPPPPPPPPPPPPPPP",
"PPPPPPPPPPPPPPPPP978yfPPPPPPPPPPPPPPPPPPPPPPPPPPPP",
"PPPPPPPPPPPPPPPPPu99trrereePPPPPPPPPPPPPPPPPPPPPPP",
"PPPPPPPPPPPPPPPPPr9yfhffddsiyryPPPPPPPPPPPPPPPPPPP",
"PPPPPPPPPPPPPPPPdslnZDGABMMvldiywrPPPPPPPPPPPPPPPP",
"PPPPPPPPPPPPPPPPlbBZDFGGGDDZBMvftrwwePPPPPPPPPPPPP",
"PPPPPPPPPPPPPPPmmbbBBCBCDDDDDDDMhitww9ePPPPPPPPPPP",
"PPPPPPPPPPPPPPjlkhghjcvcccvmMZZZMlieew77PPPPPPPPPP",
"PPPPPPPPPPPPPiyeweerusdhsusdjcjbckssyw977PPPPPPPPP",
"PPPPPPPPPPPPP7443578weyewwwysusdsuusuye072ePPPPPPP",
"PPPPPPPPPPPP7,<,<<<3479w777ww8eyreeuyeerrrwePPPPPP",
"PPPPPPPPPPPP<;;--,,;,<33344778848eyyyueeruirPPPPPP",
"PPPPPPPPPPP3;&&+&-;,,,,<38w8w8733eulhdsreiisiPPPPP",
"PPPPPPPPPPP<-&$%-::;:;&-3ujjhse8569dgiittgBvldPPPP",
"PPPPPPPPPP4,-&&-;<1>:*;7fMMju84329*&tit99rBLGlPPPP",
"PPPPPPPPPP3,;&*1>122>5umAMt522525t919ttq68tNGBfPPP",
"PPPPPPPPPP<,;&1216219kmCh;X X=509tpkGKSktqtsNNlPPP",
"PPPPPPPPP8<;-48521:evvju,+Ooo+&:199tkNGJVkpklVbPPP",
"PPPPPPPPP7,&;80914ujhiPPPPPPPPPPP>12299tklaiillPPP",
"PPPPPPPPP4;&-699tfhPPPPPPPPPPPPPPPP51=29229986rkPP",
"PPPPPPPPP3&&&<27PPPPPPPPPPPPPPPPPPPt96PPPP>1525ivP",
"PPPPPPPPP<&$@*;PPPPPPPPPPPPPPPPPPPPq9PPPPPPPPP5qzP",
"PPPPPPPPw,$&*&PPPPPPPPPPPPPPPPPPPPPPPPPPPPPPPPPPPP",
"PPPPPPPP8-+=:=PPPPPPPPPPPPPPPPPPPPPPPPPPPPPPPPPPPP",
"PPPPPPPP8&+;>PPPPPPPPPPPPPPPPPPPPPPPPPPPPPPPPPPPPP",
"PPPPPPPP8-+*PPPPPPPPPPPPPPPPPPPPPPPPPPPPPPPPPPPPPP",
"PPPPPPPP7-&;PPPPPPPPPPPPPPPPPPPPPPPPPPPPPPPPPPPPPP",
"PPPPPPPP4&-PPPPPPPPPPPPPPPPPPPPPPPPPPPPPPPPPPPPPPP",
"PPPPPPPP3&;PPPPPPPPPPPPPPPPPPPPPPPPPPPPPPPPPPPPPPP",
"PPPPPPPP<&PPPPPPPPPPPPPPPPPPPPPPPPPPPPPPPPPPPPPPPP",
"PPPPPPPP4&%PPPPPPPPPPPPPPPPPPPPPPPPPPPPPPPPPPPPPPP",
"PPPPPPr4>++-;PPPPPPPPPPPPPPPPPPPPPPPPPPPPPPPPPPPPP",
"PPPPP7,;&o+&&*3PPPPPPPPPPPPPPPPPPPPPPPPPPPPPPPPPPP",
"PPPr>***oo+&;;;PPPPPPPPPPPPPPPPPPPPPPPPPPPPPPPPPPP",
"PPr;&&&#+++*>3><PPPPPPPPPPPPPPPPPPPPPPPPPPPPPPPPPP",
"PP,%&&-;PPPPPPP4PPPPPPPPPPPPPPPPPPPPPPPPPPPPPPPPPP",
"P8&PPPPPPPPPPPPPPPPPPPPPPPPPPPPPPPPPPPPPPPPPPPPPPP",
"P3PPPPPPPPPPPPPPPPPPPPPPPPPPPPPPPPPPPPPPPPPPPPPPPP",
"P7PPPPPPPPPPPPPPPPPPPPPPPPPPPPPPPPPPPPPPPPPPPPPPPP",
"PPPPPPPPPPPPPPPPPPPPPPPPPPPPPPPPPPPPPPPPPPPPPPPPPP",
"PPPPPPPPPPPPPPPPPPPPPPPPPPPPPPPPPPPPPPPPPPPPPPPPPP",
"PPPPPPPPPPPPPPPPPPPPPPPPPPPPPPPPPPPPPPPPPPPPPPPPPP",
"PPPPPPPPPPPPPPPPPPPPPPPPPPPPPPPPPPPPPPPPPPPPPPPPPP"
};
