/* XPM */
static char *result[] = {
/* columns rows colors chars-per-pixel */
"50 50 218 2 ",
"   c #3F2A1C",
".  c #3C3116",
"X  c #3E3419",
"o  c #3B331C",
"O  c #3B391D",
"+  c #3B381F",
"@  c #3C391D",
"#  c #0A1627",
"$  c #0D1827",
"%  c #0E1927",
"&  c #111A25",
"*  c #131B25",
"=  c #101927",
"-  c #131C25",
";  c #131D25",
":  c #1E2422",
">  c #202122",
",  c #212023",
"<  c #232423",
"1  c #232024",
"2  c #2B2223",
"3  c #262922",
"4  c #292821",
"5  c #2A2921",
"6  c #2B2F23",
"7  c #202528",
"8  c #322521",
"9  c #322422",
"0  c #322A20",
"q  c #322E20",
"w  c #343A20",
"e  c #3D3920",
"r  c #3F3924",
"t  c #573B0F",
"y  c #4D3A12",
"u  c #443019",
"i  c #41361B",
"p  c #433F1B",
"a  c #513E12",
"s  c #513F17",
"d  c #5E4708",
"f  c #41411D",
"g  c #4D431A",
"h  c #4C451A",
"j  c #4C471D",
"k  c #554113",
"l  c #5E4610",
"z  c #584715",
"x  c #5D4E15",
"c  c #524D19",
"v  c #514D1C",
"b  c #5D5117",
"n  c #5D5A17",
"m  c #545019",
"M  c #5E521A",
"N  c #585B19",
"B  c #614406",
"V  c #684B07",
"C  c #6B4408",
"Z  c #7B5100",
"A  c #614912",
"S  c #644B12",
"D  c #635114",
"F  c #6E5213",
"G  c #6B5D13",
"H  c #64541A",
"J  c #6A521A",
"K  c #745819",
"L  c #745F1B",
"P  c #6E6512",
"I  c #6E6C17",
"U  c #746511",
"Y  c #776611",
"T  c #7F6112",
"R  c #7A6F11",
"E  c #7E6B17",
"W  c #7B7711",
"Q  c #7C7911",
"!  c #7D7B11",
"~  c #7F7A10",
"^  c #7E7D11",
"/  c #B5230A",
"(  c #AB3206",
")  c #B13006",
"_  c #D20F1B",
"`  c #DF1A2A",
"'  c #E43A2C",
"]  c #815500",
"[  c #815A06",
"{  c #8C6400",
"}  c #886004",
"|  c #8C6D06",
" . c #83690C",
".. c #896B0B",
"X. c #8D6B09",
"o. c #9A6B00",
"O. c #9D6B03",
"+. c #936F0A",
"@. c #8A7B0C",
"#. c #967400",
"$. c #977207",
"%. c #9E7505",
"&. c #92790A",
"*. c #8A6F1E",
"=. c #827B10",
"-. c #A97201",
";. c #A87202",
":. c #A27A01",
">. c #AC7906",
",. c #A27208",
"<. c #BE7D00",
"1. c #A47F17",
"2. c #AA7F12",
"3. c #844B39",
"4. c #C25504",
"5. c #D25607",
"6. c #E45B0E",
"7. c #D06E03",
"8. c #85830E",
"9. c #8D890D",
"0. c #8F8C0D",
"q. c #96820A",
"w. c #9B820C",
"e. c #90880C",
"r. c #988E09",
"t. c #AD8501",
"y. c #A88705",
"u. c #A58F06",
"i. c #B38D08",
"p. c #A69706",
"a. c #AE9503",
"s. c #A59F09",
"d. c #B19503",
"f. c #BA9402",
"g. c #B69F04",
"h. c #B8910D",
"j. c #AD8711",
"k. c #B49010",
"l. c #B0AA06",
"z. c #BBAD04",
"x. c #BDAC06",
"c. c #B8B104",
"v. c #C78300",
"b. c #C59900",
"n. c #C09A0B",
"m. c #D69A01",
"M. c #ED9616",
"N. c #C8A305",
"B. c #D1A403",
"V. c #DCA700",
"C. c #D0AB01",
"Z. c #D8AE02",
"A. c #C0B603",
"S. c #CCB103",
"D. c #C8BA02",
"F. c #C9BE04",
"G. c #D1B303",
"H. c #D3B901",
"J. c #DAB803",
"K. c #DCB803",
"L. c #DEB614",
"P. c #ECA702",
"I. c #E3AE00",
"U. c #E7B400",
"Y. c #E9B700",
"T. c #E6BA00",
"R. c #EBB800",
"E. c #EFB801",
"W. c #EFBC00",
"Q. c #F1B304",
"!. c #CDC402",
"~. c #D4C104",
"^. c #DCC101",
"/. c #DBC705",
"(. c #D8CD01",
"). c #DACF01",
"_. c #E3C400",
"`. c #E3C700",
"'. c #EFC200",
"]. c #EFC500",
"[. c #E0C901",
"{. c #E5CC00",
"}. c #EAC900",
"|. c #EFCA00",
" X c #F2CE02",
".X c #E4D400",
"XX c #E5D701",
"oX c #EBD400",
"OX c #E9D900",
"+X c #EADB01",
"@X c #E9DC00",
"#X c #F2D200",
"$X c #F0D500",
"%X c #F4D500",
"&X c #F0DB00",
"*X c #F4D800",
"=X c #F4DC00",
"-X c #F7DF00",
";X c #EFE000",
":X c #F0E200",
">X c #F5E200",
",X c #F3E400",
"<X c #F6E700",
"1X c #F8E600",
"2X c #FAE600",
"3X c #F6E900",
"4X c #F7E900",
"5X c #F7EA00",
"6X c #F7EC00",
"7X c #F8EB00",
"8X c #F8EC00",
"9X c #F9EC00",
"0X c #FAED00",
"qX c #FBED00",
"wX c #F9EF00",
"eX c #FAEC03",
"rX c #FCEF00",
"tX c None",
/* pixels */
"tX, + tXtXtXtXtXtXtXtXtXtXtXtXtXtXtXtXtXtXtXtXtXtXtXtXtXtXtXtXtXtXtXtXtXtXtXtXtXtXtXtXtXtXtXtXtXtXtX",
"tXv e.N m tXtXtXtXtXtXtXtXtXtXtXtXtXtXtXtXtXtXtXtXtXtXtXtXtXtXtXtXtXtXtXtXtXtXtXtXtXtXtXtXtXtXtXtXtX",
"tXv .X,X[.~ P g tXtXtXtXtXtXtXtXtXtXtXtXtXtXtXtXtXtXtXtXtXtXtXtXtXtXtXtXtXtXtXtXtXtXtXtXtXtXtXtXtXtX",
"tXtXz.9X5X5X1Xx.=.g tXtXtXtXtXtXtXtXtXtXtXtXtXtXtXtXtXtXtXtXtXtXtXtXtXtXtXtXtXtXtXtXtXtXtXtXtXtXtXtX",
"tXtX0.9X5X5X5X9X1XA.r.h & tXtXtXtXtXtXtXtXtXtXtXtXtXtXtXtXtXtXtXtXtXtXtXtXtXtXtXtXtXtXtXtXtXtXtXtXtX",
"tXtX0.9X5X5X5X5X5X0X1XD.p.p tXtXtXtXtXtXtXtXtXtXtXtXtXtXtXtXtXtXtXtXtXtXtXtXtXtXtXtXtXtXtXtXtXtXtXtX",
"tXtX0.0X5X5X5X5X5X5X5X0X1Xw.tXtXtXtXtXtXtXtXtXtXtXtXtXtXtXtXtXtXtXtXtXtXtXtXtXtXtXtXtXtXtXtXtXtXtXtX",
"tXtX8.:X7X5X5X5X5X5X5X5X<Xu.tXtXtXtXtXtXtXtXtXtXtXtXtXtXtXtXtXtXtXtXtXtXtXtXtXtXtXtXtXtXtXtXtXtXtXtX",
"tXtXO !.eX5X5X5X5X5X5X7X@Xn tXtXtXtXtXtXtXtXtXtXtXtXtXtXtXtXtXtXtXtXtXtXtXtXtXtXtXtXtXtXtXtXtXtXtXtX",
"tXtX6 !.rX0X0X0X0XqX0X9X.Xv tXtXtXtXtXtXtXtXtXtXtXtXtXtXtXtXtXtXtXtXtXtXtXtXtXtXtXtXtXtXtXtXtXtXtXtX",
"tXtXtX^ 9.9.9.9.9.9.9.).z.tXtXtXtXtXtXtXtXtXtXtXtXtXtXtXtXtXtXtXtXtXtXtXtXtXtXtXtXtXtXtXtXtXtXtXtXtX",
"tXtXtXtXtXtXtXtXtXtX- c.e.- ; ; tXtXtXtXtXtXtXtXtXtXtXtXtXtXtXtXtXtXtXtXtXtXtXtXtXtXtXtXtXtXtXtXtXtX",
"tXtXtXtXtXtXtXtXtXtXtXc.).l.l.p.p tXtXtXtXtXtXtXtXtXtXtXtXtXtXtXtXtXtXtXtXtXtXtXtXtXtXtXtXtXtXtXtXtX",
"tXtXtXtXtXtXtXtXtXtXG oX;X.X3Xz.tXtXtXtXtXtXtXtXtXtXtXtXtXtXtXtXtXtXtXtXtXtXtXtXtXtXtXtXtXtXtXtXtXtX",
"tXtXtXtXtXtXtXtXtXtXD S.@.w p.r.tXtXtXtXtXtXtXtXtXtXtXtXtXtXtXtXtXtXtXtXtXtXtXtXtXtXtXtXtXtXtXtXtXtX",
"tXtXtXtXtXtXtXtXtXtX- 4 tXtXd d tXtXtXtXtXtXtXtXtXtXtXtXtXtXtXtXtXtXtXtXtXtXtXtXtXtXtXtXtXtXtXtXtXtX",
"tXtXtXtXtXtXtXtXtXtXtXtXtXtXt V . q , tXtXtXtXtXtXtXtXtXtX$ % & tXtXtXtXtXtXtXtXtXtXtXtXtXtXtXtXtXtX",
"tXtXtXtXtXtXtXtXtXtXtXtXtXtXt C y t , tXtXtXtXtXtXtXtXtXtX* = : a 5 tXtXtXtXtXtXtXtXtXtXtXtXtXtXtXtX",
"tXtXtXtXtXtXtXtXtXtXtXtXtXtX2 9 & 1 tXtXtXtX* u y 0 - = % $ q H ,.[ i tXtXtXtXtXtXtXtXtXtXtXtXtXtXtX",
"tXtXtXtXtXtXtXtXtXtXtXtXtXtXtXtXtX8 4 - 3 @.p.} ] | a.H = # M G.h.>.O.l & tXtXtXtXtXtXtXtXtXtXtXtXtX",
"tXtXtXtXtXtXtXtXtXtXtXtXtXtXtXtX< t B V d.oX>X#.Z a.2XS.q # H $XoXN.2.>.[ tXtXtXtXtXtXtXtXtXtXtXtXtX",
"tXtXtXtXtXtXtXtXtXtXtXtXtXtXtXtX* > . f.>X7X:X#.Z d.4X$XF = : x.qX=XJ.j.>.D 7 tXtXtXtXtXtXtXtXtXtXtX",
"tXtXtXtXtXtXtXtXtXtXtXtXtXtXtXtXtXtXY oX7X5X;X#.] N.7X:X+.  = d.-X<X<X}.k.*.E c + tXtXtXtXtXtXtXtXtX",
"tXtXtXtXtXtXtXtXtXtXtXtXtXtXtXtXtXb H.7X5X5X;X#.{ `.8X;X#.C y i.W.#X5X1X_.k.Z.oXg.x tXtXtXtXtXtXtXtX",
"tXtXtXtXtXtXtXtXtXtXtXtXtXtXtXtXtX@.1X5X5X5X,Xt.{ OX8X:X:.Z :.N.n.T.*X<X4X$X}.4X1X^.E tXtXtXtXtXtXtX",
"tXtXtXtXtXtXtXtXtXtXtXtXtXtXtXtXtXA.9X5X5X5X4X{.S.:X7X,Xt.] f.}.h.k.Z.*X5X5X5X5X5X7X{.v tXtXtXtXtXtX",
"tXtXtXtXtXtXtXtXtXtXtXtXtXtXtXtXn @X7X5X5X5X5X7X9X5X5X<Xb.o.K.1X|.B.m.T.5X5X5X5X5X5X:Xq.tXtXtXtXtXtX",
"tXtXtXtXtXtXtXtXtXtXtXtXtXtXtXtXs.3X5X5X5X5X5X5X5X5X5X5X&X{.>X5X4X>X$X&X5X5X5X5X5X5XeX_.G tXtXtXtXtX",
"tXtXtXtXtXtXtXtXtXtXtXtXtXtXtXtXc.qX5X5X5X5X5X5X5X5X5X5X7X8X5X5X5X5X5X5X5X5X5X5X5X:X).&XR tXtXtXtXtX",
"tXtXtXtXtXtXtXtXtXtXtXtXtXtXtXtXc.qX5X5X5X5X5X5X5X5X5X5X5X5X5X5X5X5X5X5X5X5X5X5XeX!.j (.! tXtXtXtXtX",
"tXtXtXtXtXtXtXtXtXtXtXtXtXtXtXtXc.qX5X5X5X5X5X5X5X5X5X5X5X5X5X5X5X5X5X5X5X5X5X5X0XF.@ XXQ tXtXtXtXtX",
"tXtXtXtXtXtXtXtXtXtXtXtXtXtXtXtXc.qX5X5X5X5X5X5X5X5X5X5X5X5X5X5X5X5X5X5X5X5X5X6X9X~.r D.R tXtXtXtXtX",
"tXtXtXtXtXtXtXtXtXtXtXtXtXtXtX+ F.0X5X5X5X5X5X5X5X5X5X5X5X5X5X5X5X5X5X5X5X5XE.M.*X/.3.K.P tXtXtXtXtX",
"tXtXtXtXtXtXtXtXtXtXtXtXtXtXtXj /.9X5X5X5X5X5X5X5X5X5X5X5X5X5X5X5X5X5X5X5X$X5.` M.oXL.*Xa.0 tXtXtXtX",
"tXtXtXtXtXtXtXtXtXtXtXtXtXtXtXI ;X5X5X5X5X5X5X5X<X<X<X5X5X5X5X5X5X5X5X5X8Xm.) _ '  XwX5X$X .tXtXtXtX",
"tXtXtXtXtXtXtXtXtXtXtXtXtXtXtXW <X5X5X5X5X,X;X>X|.'.|.>X<X5X5X5X5X5X5X5X8Xm.( / _ Q.6X5X&Xq.tXtXtXtX",
"tXtXtXtXtXtXtXtXtXtXtXtXtXtXtXU =X8X5X<X=XZ.B.'.W.W.W.W.|.<X5X5X5X5X5X5X5X|.4./ 7.*X5X7Xx.+ tXtXtXtX",
"tXtXtXtXtXtXtXtXtXtXtXtXtXtXtXq.`.$X-X%XY.+.$.y.y.y.i.U.W.#X7X5X5X5X5X7X5X4XP.6.'.5X5X1Xz.tXtXtXtXtX",
"tXtXtXtXtXtXtXtXtXtXtXtXtXtXf G.w.j.w.&.| @ ; ; ; ; o  .y.V.^.<X5X5X:X[.$X=X4X4X5X>X*XC.n tXtXtXtXtX",
"tXtXtXtXtXtXtXtXtXtXtXtXtXtXf u.e v tXtXtXtXtXtXtXtXtXtX+ F j. X4X7XOXn.R.'. X#X#X'.t.x tXtXtXtXtXtX",
"tXtXtXtXtXtXtXtXtXtXtXtXtXtX< p $ tXtXtXtXtXtXtXtXtXtXtXtXtXT U.>X7X+Xh.I.Y.Y.U.V. .o tXtXtXtXtXtXtX",
"tXtXtXtXtXtXtXtXtXtXtXtXtXtXtXtXtXtXtXtXtXtXtXtXtXtXtXtXtXtXO f.%X5X,Xn.1.j.*.c j tXtXtXtXtXtXtXtXtX",
"tXtXtXtXtXtXtXtXtXtXtXtXtXtXtXtXtXtXtXtXtXtXtXtXtXtXtXtXtXtXtX$.].<X4XS.,.;.i tXtXtXtXtXtXtXtXtXtXtX",
"tXtXtXtXtXtXtXtXtXtXtXtXtXtXtXtXtXtXtXtXtXtXtXtXtXtXtXtXtXtXtXs b.%X8X~.>.<.k tXtXtXtXtXtXtXtXtXtXtX",
"tXtXtXtXtXtXtXtXtXtXtXtXtXtXtXtXtXtXtXtXtXtXtXtXtXtXtXtXtXtXtXtX..].4X$Xi.v.} tXtXtXtXtXtXtXtXtXtXtX",
"tXtXtXtXtXtXtXtXtXtXtXtXtXtXtXtXtXtXtXtXtXtXtXtXtXtXtXtXtXtXtXtXS B.=X,Xh.v.;.X tXtXtXtXtXtXtXtXtXtX",
"tXtXtXtXtXtXtXtXtXtXtXtXtXtXtXtXtXtXtXtXtXtXtXtXtXtXtXtXtXtXtXtXtXX.'.&Xk.<.v.l tXtXtXtXtXtXtXtXtXtX",
"tXtXtXtXtXtXtXtXtXtXtXtXtXtXtXtXtXtXtXtXtXtXtXtXtXtXtXtXtXtXtXtXtXz V.].f.A -.} tXtXtXtXtXtXtXtXtXtX",
"tXtXtXtXtXtXtXtXtXtXtXtXtXtXtXtXtXtXtXtXtXtXtXtXtXtXtXtXtXtXtXtXtXtX%.I.t.3 K J 5 tXtXtXtXtXtXtXtXtX",
"tXtXtXtXtXtXtXtXtXtXtXtXtXtXtXtXtXtXtXtXtXtXtXtXtXtXtXtXtXtXtXtXtXtXg L H 6 tXtXtXtXtXtXtXtXtXtXtXtX"
};
