/* XPM */
static char *result[] = {
/* columns rows colors chars-per-pixel */
"50 50 218 2 ",
"   c #28271C",
".  c #2D291A",
"X  c #342A1A",
"o  c #3F2B1D",
"O  c #34341F",
"+  c #3E341A",
"@  c #39331C",
"#  c #35381F",
"$  c #393F1F",
"%  c #3E3D1C",
"&  c #0D1827",
"*  c #0E1927",
"=  c #0B1528",
"-  c #131B25",
";  c #101827",
":  c #111A26",
">  c #111B26",
",  c #101A27",
"<  c #131C25",
"1  c #121C26",
"2  c #1B1D24",
"3  c #1A1E24",
"4  c #192025",
"5  c #1F2525",
"6  c #212023",
"7  c #222122",
"8  c #232122",
"9  c #202324",
"0  c #282223",
"q  c #252922",
"w  c #2A2A21",
"e  c #282D21",
"r  c #2C2E21",
"t  c #302D20",
"y  c #343422",
"u  c #3D3620",
"i  c #503A0E",
"p  c #46311D",
"a  c #4A3218",
"s  c #403B1C",
"d  c #473D1D",
"f  c #4B3E19",
"g  c #483E1A",
"h  c #4D3F1A",
"j  c #523515",
"k  c #6A3E12",
"l  c #433A21",
"z  c #5F4109",
"x  c #40451E",
"c  c #4B461A",
"v  c #474C1B",
"b  c #534713",
"n  c #5B4614",
"m  c #5B4714",
"M  c #5F4912",
"N  c #514919",
"B  c #524C19",
"V  c #514E19",
"C  c #5E5517",
"Z  c #53511A",
"A  c #6E4709",
"S  c #794F01",
"D  c #7D5400",
"F  c #7E5400",
"G  c #684F11",
"H  c #605315",
"J  c #6C5612",
"K  c #6B5414",
"L  c #615815",
"P  c #665814",
"I  c #605C15",
"U  c #7C5710",
"Y  c #79630F",
"T  c #636116",
"R  c #6F6613",
"E  c #686314",
"W  c #6A6A14",
"Q  c #796C11",
"!  c #767512",
"~  c #7F7710",
"^  c #7B7A11",
"/  c #7C7B10",
"(  c #7C7B11",
")  c #605023",
"_  c #B6220C",
"`  c #B12909",
"'  c #AF3505",
"]  c #CD0E19",
"[  c #DD1427",
"{  c #E22A2B",
"}  c #805600",
"|  c #865F00",
" . c #8C6204",
".. c #8F6907",
"X. c #87670B",
"o. c #84650E",
"O. c #976E00",
"+. c #966806",
"@. c #8E710A",
"#. c #8B780C",
"$. c #8A790C",
"%. c #9F7703",
"&. c #947F06",
"*. c #9D700C",
"=. c #917B0A",
"-. c #907D0B",
";. c #987F09",
":. c #9B7C0D",
">. c #876A1B",
",. c #8A6F18",
"<. c #94791A",
"1. c #9D7F1E",
"2. c #A57A00",
"3. c #A37E05",
"4. c #A2770E",
"5. c #A67A0D",
"6. c #BB7D00",
"7. c #A87F12",
"8. c #894E38",
"9. c #E14B0E",
"0. c #C96303",
"q. c #D36804",
"w. c #DC7225",
"e. c #8D860D",
"r. c #9F8B08",
"t. c #9F8C08",
"y. c #A78103",
"u. c #A08E07",
"i. c #AA8F06",
"p. c #A88709",
"a. c #B28803",
"s. c #B08C0F",
"d. c #BA8E0B",
"f. c #A29D09",
"g. c #AD9A0B",
"h. c #BA9B03",
"j. c #BC9C00",
"k. c #B7910E",
"l. c #A88316",
"z. c #BAA503",
"x. c #B6B005",
"c. c #BFB305",
"v. c #BCA211",
"b. c #C59B01",
"n. c #C59E04",
"m. c #CF9E01",
"M. c #CA9914",
"N. c #EF9F07",
"B. c #EF9213",
"V. c #C0A104",
"C. c #CBA302",
"Z. c #C4A907",
"A. c #CEAD00",
"S. c #CAA904",
"D. c #D3A900",
"F. c #DAAB00",
"G. c #DEA900",
"H. c #DEAF00",
"J. c #C9B100",
"K. c #C8B302",
"L. c #CBB401",
"P. c #CBBB02",
"I. c #D3B603",
"U. c #D8B300",
"Y. c #D6BF01",
"T. c #DDB801",
"R. c #DEAB15",
"E. c #EAA401",
"W. c #E7B500",
"Q. c #E8B200",
"!. c #E3BB00",
"~. c #E0BF00",
"^. c #ECBA00",
"/. c #EFBC00",
"(. c #EFBF03",
"). c #CAC002",
"_. c #DEC500",
"`. c #D2C802",
"'. c #D9CD01",
"]. c #DFD401",
"[. c #EFC700",
"{. c #E7CB00",
"}. c #E0CD00",
"|. c #EBCF00",
" X c #F0C300",
".X c #F0CD00",
"XX c #E4D000",
"oX c #E1D501",
"OX c #E8D101",
"+X c #EFD600",
"@X c #E8D800",
"#X c #E9DC00",
"$X c #F3D300",
"%X c #F4D700",
"&X c #F3DA00",
"*X c #F0DC00",
"=X c #F4DD00",
"-X c #EEE100",
";X c #EFE200",
":X c #F1E300",
">X c #F6E000",
",X c #F5E500",
"<X c #F7E400",
"1X c #F9E700",
"2X c #F6E800",
"3X c #F7E900",
"4X c #F7EA00",
"5X c #F7EB00",
"6X c #F9E800",
"7X c #F8E900",
"8X c #F8EA00",
"9X c #F9EB00",
"0X c #FAEB00",
"qX c #F9EC00",
"wX c #FAED00",
"eX c #F8EE00",
"rX c #FBEE00",
"tX c None",
/* pixels */
"tXtXtXtXtXtXtXtXtXtXtXtXtXtXtXtXtXtXtXtXtXtXtXtXtXtXtXtXtXtXtXtXtXtXtXtXtXtXtXtXtXtXtXtXtXtXtXtXtXtX",
"tXtXtXtXtXtXtXtXtXtXtXtXtXtXtXtXtXtXtXtXtXtXtXtXtXtXtXtXtXtXtXtXtXtXtXtXtXtXtXtXtXtXtXtXtXtXtXtXtXtX",
"tXtXtXtXtXtXtXtXtXtXtXtXtXtXtXtXtXtXtXtXtXtXtXtXtXtXtXtXtXtXtXtXtXtXtXtXtXtXtXtXtXtXtXtXtXtXtXtXtXtX",
"tXtXtXtXtXtXtXtXtXtXtXtXtXtXtXtXtXtXtXtXtXtXtXtXtXtXtXtXtXtXtXtXtXtXtXtXtXtXtXtXtXtXtXtXtXtXtXtXtXtX",
"< tXtXtXtXtXtXtXtXtXtXtXtXtXtXtXtXtXtXtXtXtXtXtXtXtXtXtXtXtXtXtXtXtXtXtXtXtXtXtXtXtXtXtXtXtXtXtXtXtX",
",.;.O 9 tXtXtXtXtXtXtXtXtXtXtXtXtXtXtXtXtXtXtXtXtXtXtXtXtXtXtXtXtXtXtXtXtXtXtXtXtXtXtXtXtXtXtXtXtXtX",
"v.+XP.r.# e tXtXtXtXtXtXtXtXtXtXtXtXtXtXtXtXtXtXtXtXtXtXtXtXtXtXtXtXtXtXtXtXtXtXtXtXtXtXtXtXtXtXtXtX",
"g.4X0X-X_.r.% @ tXtXtXtXtXtXtXtXtXtXtXtXtXtXtXtXtXtXtXtXtXtXtXtXtXtXtXtXtXtXtXtXtXtXtXtXtXtXtXtXtXtX",
"/ 2X4X8X9X:XXXr.Z @ tXtXtXtXtXtXtXtXtXtXtXtXtXtXtXtXtXtXtXtXtXtXtXtXtXtXtXtXtXtXtXtXtXtXtXtXtXtXtXtX",
"/ 2X4X4X4X4X8X,X+Xt.B tXtXtXtXtXtXtXtXtXtXtXtXtXtXtXtXtXtXtXtXtXtXtXtXtXtXtXtXtXtXtXtXtXtXtXtXtXtXtX",
"/ 2X4X4X4X4X4X4X4X<Xr.tXtXtXtXtXtXtXtXtXtXtXtXtXtXtXtXtXtXtXtXtXtXtXtXtXtXtXtXtXtXtXtXtXtXtXtXtXtXtX",
"/ 2X4X4X4X4X4X4X4X6Xr.tXtXtXtXtXtXtXtXtXtXtXtXtXtXtXtXtXtX* * , < - - tXtXtXtXtXtXtXtXtXtXtXtXtXtXtX",
"V ).rX8X8X8X8X8X9XXXE tXtXtXtXtXtXtXtXtXtXtXtXtXtXtXtX: & 5 ) ) d  . .M 4 tXtXtXtXtXtXtXtXtXtXtXtXtX",
"tXu.oX].].].].oX,XJ.y tXtXtXtXtXtXtXtXtXtXtXtXtXtXtX> * * 5 h.S.<.l.l.*.+.M 7 tXtXtXtXtXtXtXtXtXtXtX",
"tXr $ $ $ $ $ v `./ ; tXtXtXtXtXtXtXtXtXtXtXtXtXtXtXtX1 * * ~ =X@X@XXXS.l.4.U t tXtXtXtXtXtXtXtXtXtX",
"tXtXtXtXtXtXtXe ).! tXtXtXtXtXtXtXtXtXtXtXtXtXtXtXtXtXtX< = b !.>X<X8X,X+XS.7.>.Z c tXtXtXtXtXtXtXtX",
"tXtXtXtXtXtXtXC '.f.W W L q tXtXtXtXtXtXtXtXtXtXtXtXtXtXtXtX1 Y C.[.%X>X8X>X~.v.OXI.W T s tXtXtXtXtX",
"tXtXtXtXtXtXtX$.<X4X2X3Xz.tXtXtXtXtXtXtXtXtXtXtXtXtXtXtXtXtXtX3 H p.^. X%X3X4X4X4X4X2X=Xg.H tXtXtXtX",
"tXtXtXtXtXtXtX$.=X2X2X7Xe.tXtXtXtXtXtXtXtXtXtXtXtXtXtXtXtXtXtXtXtXs :.k.T.3X4X4X4X4X4X5X1Xt.tXtXtXtX",
"tXtXtXtXtXtXtX% T T T P.$.tXtXtXtXtXtXtXtXtXtXtXtXtXtXtXtXtXtXtX< f a.C.F.,X4X4X4X4X4X4X8XY.V tXtXtX",
"tXtXtXtXtXtXtXtXtXtX3 =.% tXtXtXtXtXtXtXtXtXtXtXtXtXtXtXtX9 t h y.S.&X>X*X2X4X4X4X4X4X8XqX*XR tXtXtX",
"tXtXtXtXtXtXtXtXtXtXtXb w tXtXtXtXtXtXtXtXtXtXtXtXt u 8 8 X.C.D..X1X5X5X5X4X4X4X4X4X8X-X'.,Xz.tXtXtX",
"tXtXtXtXtXtXtXtXtXtX9 z j . . 6 tXtXtXtXtXtXs Z I b.n.A k V.0X1X3X4X4X4X4X4X4X4X4X4XwXc.v #XK.tXtXtX",
"tXtXtXtXtXtXtXtXtXtXo S } D S o tXtXtXtX3 X &.*X;X3X_.| F J.qX4X4X4X4X4X4X4X4X4X4X4XrXx.x :XZ.tXtXtX",
"tXtXtXtXtXtXtXtXtXtX0 i i z A   tXtXtX; j S h.7X8XqXXX .F J.qX4X4X4X4X4X4X4X4X4X4X5XrXc.d ].U.n tXtX",
"tXtXtXtXtXtXtXtXtXtXtXtXtX7 i   tXtXN @.F F 2.+X8X8X*Xy.D J.qX4X4X4X4X4X4X4X4X4X5X XB.M.8.OX.XY tXtX",
"tXtXtXtXtXtXtXtXtXtXtXtXtXtXi a : q i.[.a.F  .XXqX4X7Xj.D J.qX4X4X4X4X4X4X4X4X5X&Xq.[ w.R.<X<XV.O tX",
"tXtXtXtXtXtXtXtXtXtXtXtXtXtXp A z @.|.1XS.} | }.qX4X8X_.O.L.qX4X4X4X4X4X4X4X4XeXH.' ] { (.eX,XT.B tX",
"tXtXtXtXtXtXtXtXtXtXtXtXtXtX2 8 K ~.7X8X|.%.| }.qX4X4X,X@X;X4X4X4X4X4X4X4X4X4XeXG.' ` ] N.eX=Xp.y tX",
"tXtXtXtXtXtXtXtXtXtXtXtXtXtXtXtXB @X8X4X<XU.O.}.qX4X4X4X8X8X4X4X4X4X4X4X4X5XqXqX+X0._ 0.$X4X=X$.tXtX",
"tXtXtXtXtXtXtXtXtXtXtXtXtXtXtXtX( -X8X4X4X=XA.@X8X4X4X4X4X4X4X4X4X4X4X4X5X+X_.+X%XE.9.E.%X%XF.G tXtX",
"tXtXtXtXtXtXtXtXtXtXtXtXtXtXtXtXx.wX4X4X4X4X3X4X4X4X4X4X4X4X4X4X4X4X4X4X8X{.d.d.m.Q.^.^.^.Q...tXtXtX",
"tXtXtXtXtXtXtXtXtXtXtXtXtXtXtXtXx.rX4X4X4X4X4X4X4X4X4X4X4X4X4X4X4X4X4X4X4X<X{.Z.k.d.G.^.G.:.@ tXtXtX",
"tXtXtXtXtXtXtXtXtXtXtXtXtXtXtXE oX8X4X4X4X4X4X4X4X4X4X4X4X4X4X4X4X4X4X4X4X4X8X1X{.n.l.s.7. .+ tXtXtX",
"tXtXtXtXtXtXtXtXtXtXtXtXtXtXtX^ 4X4X4X4X4X4X4X4X4X4X4X4X4X4X4X4X4X3X,X2X,X3X4X5X7X*XI.1.*.6.*.h tXtX",
"tXtXtXtXtXtXtXtXtXtXtXtXtXtXtX^ 2X4X4X4X4X4X4X4X4X4X4X4X5X5X2X,X,X$X X!.(.$X,X2X5X8X,X{.k.5. .@ tXtX",
"tXtXtXtXtXtXtXtXtXtXtXtXtXtXtX^ 2X4X4X4X4X4X4X4X5X5X5X,X=X>X$X(.(./.b.>.p.D.(.$X>X>X3X8X+Xs.l tXtXtX",
"tXtXtXtXtXtXtXtXtXtXtXtXtXtXtX^ 2X4X4X4X4X4X4X5X>X&X&X.X^./././.b.2.m 4 4 G y.m./. X%X>X[.o.tXtXtXtX",
"tXtXtXtXtXtXtXtXtXtXtXtXtXtXtX^ 2X4X4X4X4X4X3X&X X^.^.^./.G.:.@.m - tXtXtXtX- G @.=.=.=.o.h tXtXtXtX",
"tXtXtXtXtXtXtXtXtXtXtXtXtXtXtX^ 2X4X4X4X4X4X=X/.^.^.^.G.@.K 3 tXtXtXtXtXtXtXtXtXtXtXtXtXtXtXtXtXtXtX",
"tXtXtXtXtXtXtXtXtXtXtXtXtXtXtXQ >X5X4X4X4X3X.XW.m.Y P M tXtXtXtXtXtXtXtXtXtXtXtXtXtXtXtXtXtXtXtXtXtX",
"tXtXtXtXtXtXtXtXtXtXtXtXtXtXtX:.=X5X4X4X8X&Xm.K g tXtXtXtXtXtXtXtXtXtXtXtXtXtXtXtXtXtXtXtXtXtXtXtXtX",
"tXtXtXtXtXtXtXtXtXtXtXtXtX: K m.&X,X3X9X+Xh.g tXtXtXtXtXtXtXtXtXtXtXtXtXtXtXtXtXtXtXtXtXtXtXtXtXtXtX",
"tXtXtXtXtXtXtXtXtXtXtXtXtXu V.~.n.^.$XY.-.w tXtXtXtXtXtXtXtXtXtXtXtXtXtXtXtXtXtXtXtXtXtXtXtXtXtXtXtX",
"tXtXtXtXtXtXtXtXtXtXtXtXtXU H.#.+ %.y.m tXtXtXtXtXtXtXtXtXtXtXtXtXtXtXtXtXtXtXtXtXtXtXtXtXtXtXtXtXtX",
"tXtXtXtXtXtXtXtXtXtXtXtX9 ,.3.tXtX> < tXtXtXtXtXtXtXtXtXtXtXtXtXtXtXtXtXtXtXtXtXtXtXtXtXtXtXtXtXtXtX",
"tXtXtXtXtXtXtXtXtXtXtXtX9 ,.J tXtXtXtXtXtXtXtXtXtXtXtXtXtXtXtXtXtXtXtXtXtXtXtXtXtXtXtXtXtXtXtXtXtXtX",
"tXtXtXtXtXtXtXtXtXtXtXtX9 ) s tXtXtXtXtXtXtXtXtXtXtXtXtXtXtXtXtXtXtXtXtXtXtXtXtXtXtXtXtXtXtXtXtXtXtX",
"tXtXtXtXtXtXtXtXtXtXtXtXtXp tXtXtXtXtXtXtXtXtXtXtXtXtXtXtXtXtXtXtXtXtXtXtXtXtXtXtXtXtXtXtXtXtXtXtXtX",
"tXtXtXtXtXtXtXtXtXtXtXtXtX2 tXtXtXtXtXtXtXtXtXtXtXtXtXtXtXtXtXtXtXtXtXtXtXtXtXtXtXtXtXtXtXtXtXtXtXtX"
};
