/* XPM */
static char *result[] = {
/* columns rows colors chars-per-pixel */
"50 50 209 2 ",
"   c #23231F",
".  c #2E2C1F",
"X  c #33281E",
"o  c #322B1E",
"O  c #3A2C1A",
"+  c #3A2A1E",
"@  c #3A2A1F",
"#  c #3C351C",
"$  c #39381F",
"%  c #0D1827",
"&  c #0E1826",
"*  c #0E1927",
"=  c #0F1927",
"-  c #101A26",
";  c #131D25",
":  c #1A1F23",
">  c #1D1E23",
",  c #1B2323",
"<  c #1E2223",
"1  c #2D2322",
"2  c #292622",
"3  c #2C2822",
"4  c #292C21",
"5  c #292D22",
"6  c #2E2C20",
"7  c #2D2C22",
"8  c #2D3221",
"9  c #5D3D0C",
"0  c #4B3514",
"q  c #4A3F17",
"w  c #4D3C14",
"e  c #493218",
"r  c #483F19",
"t  c #4B3D1B",
"y  c #493F1B",
"u  c #533714",
"i  c #5A341A",
"p  c #45411B",
"a  c #49421A",
"s  c #4F4A19",
"d  c #4F491D",
"f  c #574115",
"g  c #564215",
"h  c #5B4713",
"j  c #5F4C13",
"k  c #504519",
"l  c #504B19",
"z  c #524A19",
"x  c #574D19",
"c  c #5D5317",
"v  c #545019",
"b  c #55531A",
"n  c #515419",
"m  c #525519",
"M  c #6D4508",
"N  c #67480C",
"B  c #7C5200",
"V  c #74520B",
"C  c #78580D",
"Z  c #665015",
"A  c #625415",
"S  c #605A16",
"D  c #645A14",
"F  c #655D15",
"G  c #6D5E13",
"H  c #6B5B17",
"J  c #78680E",
"K  c #666715",
"L  c #6F6012",
"P  c #686414",
"I  c #756410",
"U  c #766F12",
"Y  c #7F611B",
"T  c #797911",
"R  c #7F7E11",
"E  c #6E5B20",
"W  c #BB1B0E",
"Q  c #AA2E06",
"!  c #B6270A",
"~  c #BA3D06",
"^  c #D83116",
"/  c #D50620",
"(  c #E2332C",
")  c #815306",
"_  c #81600B",
"`  c #8B660F",
"'  c #806A0E",
"]  c #906503",
"[  c #986702",
"{  c #976D02",
"}  c #857D0F",
"|  c #8D780B",
" . c #977707",
".. c #937209",
"X. c #917D0B",
"o. c #937E0C",
"O. c #836010",
"+. c #816818",
"@. c #8E7412",
"#. c #907919",
"$. c #9A781B",
"%. c #AA7605",
"&. c #A97D02",
"*. c #A67A0C",
"=. c #B07901",
"-. c #BB7F02",
";. c #B47F09",
":. c #A07C10",
">. c #9C5F37",
",. c #C67102",
"<. c #C97902",
"1. c #E56B0B",
"2. c #E85F28",
"3. c #96840A",
"4. c #988109",
"5. c #9F8F08",
"6. c #93900C",
"7. c #AB8501",
"8. c #AD8B00",
"9. c #B78A0B",
"0. c #B1890F",
"q. c #AE9100",
"w. c #A59907",
"e. c #AC9D06",
"r. c #A09B09",
"t. c #A59F08",
"y. c #AE9D0E",
"u. c #B49402",
"i. c #BC9A01",
"p. c #BC9109",
"a. c #BD950C",
"s. c #AC8212",
"d. c #AE8F15",
"f. c #ADA406",
"g. c #BBA001",
"h. c #B8A704",
"j. c #B6AF05",
"k. c #C08202",
"l. c #C58200",
"z. c #C88400",
"x. c #DC8F01",
"c. c #C79201",
"v. c #C39D0B",
"b. c #D29F01",
"n. c #E88706",
"m. c #C9A705",
"M. c #C3AC03",
"N. c #CBAC08",
"B. c #D0A404",
"V. c #D2AA03",
"C. c #DEAA00",
"Z. c #CEB006",
"A. c #C5BA03",
"S. c #C5BC03",
"D. c #CCB902",
"F. c #D9B201",
"G. c #D5BA01",
"H. c #D6BD02",
"J. c #D1BC04",
"K. c #DFBF00",
"L. c #EEA205",
"P. c #E2AF00",
"I. c #E5B400",
"U. c #E7B400",
"Y. c #E9B700",
"T. c #E7BC00",
"R. c #ECB900",
"E. c #EEBE00",
"W. c #F0B30A",
"Q. c #EFA512",
"!. c #CBC202",
"~. c #DCC501",
"^. c #DEC801",
"/. c #DECC00",
"(. c #DED201",
"). c #E0C301",
"_. c #E3C400",
"`. c #EBC400",
"'. c #EFC700",
"]. c #E4C900",
"[. c #E6CC00",
"{. c #EBCB02",
"}. c #F0CA00",
"|. c #E7D200",
" X c #E4D700",
".X c #EDD200",
"XX c #EED700",
"oX c #E8DB00",
"OX c #EFDB00",
"+X c #F1D100",
"@X c #F3D400",
"#X c #F2D700",
"$X c #F4D900",
"%X c #F3DD00",
"&X c #F1DE00",
"*X c #F6E200",
"=X c #F1E400",
"-X c #F6E500",
";X c #F7E600",
":X c #F9E400",
">X c #F7E800",
",X c #F7EA00",
"<X c #F8E900",
"1X c #FAE900",
"2X c #F9EB00",
"3X c #FAEC00",
"4X c #F9EE00",
"5X c #FCEE00",
"6X c None",
/* pixels */
"6X6X; $ q 6X6X6X6X6X6X6X6X6X6X6X6X6X6X6X6X6X6X6X6X6X6X6X6X6X6X6X6X6X6X6X6X6X6X6X6X6X6X6X6X6X6X6X6X6X",
"6X6X8 g.G.P s 6X6X6X6X6X6X6X6X6X6X6X6X6X6X6X6X6X6X6X6X6X6X6X6X6X6X6X6X6X6X6X6X6X6X6X6X6X6X6X6X6X6X6X",
"6X6X8 D.3X=XH.U c 6X6X6X6X6X6X6X6X6X6X6X6X6X6X6X6X6X6X6X6X6X6X6X6X6X6X6X6X6X6X6X6X6X6X6X6X6X6X6X6X6X",
"6X6X8 !.3X,X,X;XH.} D 6X6X6X6X6X6X6X6X6X6X6X6X6X6X6X6X6X6X6X6X6X6X6X6X6X6X6X6X6X6X6X6X6X6X6X6X6X6X6X",
"6X6X8 !.3X,X,X,X2X1XJ.| , 6X6X6X6X6X6X6X6X6X6X6X6X6X6X6X6X6X6X6X6X6X6X6X6X6X6X6X6X6X6X6X6X6X6X6X6X6X",
"6X6X6XS.2X,X,X,X,X,X,XXXh.| , 6X6X6X6X6X6X6X6X6X6X6X6X6X6X6X6X6X6X6X6X6X6X6X6X6X6X6X6X6X6X6X6X6X6X6X",
"6X6X6XR =X,X,X,X,X,X,X2X3X].Z 6X6X6X6X6X6X6X6X6X6X6X6X6X6X6X6X6X6X6X6X6X6X6X6X6X6X6X6X6X6X6X6X6X6X6X",
"6X6X6XK =X3X3X,X,X,X,X,X2X|.L 6X6X6X6X6X6X6X6X6X6X6X6X6X6X6X6X6X6X6X6X6X6X6X6X6X6X6X6X6X6X6X6X6X6X6X",
"6X6X6Xn j.j.A.-X5X3X2X,X3Xh.6X6X6X6X6X6X6X6X6X6X6X6X6X6X6X6X6X6X6X6X6X6X6X6X6X6X6X6X6X6X6X6X6X6X6X6X",
"6X6X6X; , , r 5.t.f.XX2X=X3.6X6X6X6X6X6X6X6X6X6X6X6X6X6X6X6X6X6X6X6X6X6X6X6X6X6X6X6X6X6X6X6X6X6X6X6X",
"6X6X6X6X6X6X6X6X= < e.2X Xm 6X6X6X6X6X6X6X6X6X6X6X6X6X6X6X6X6X6X6X6X6X6X6X6X6X6X6X6X6X6X6X6X6X6X6X6X",
"6X6X6X6X6X6X6X6X6X6XT ,X].l 6X6X6X6X6X6X6X6X6X6X6X6X6X6X6X6X6X6X6X6X6X6X6X6X6X6X6X6X6X6X6X6X6X6X6X6X",
"6X6X6X6X6X6X6X6X6X6XT 2Xe.6X6X6X6X6X6X6X6X6X6X6X6X6X6X6X6X6X6X6X6X6X6X6X6X6X6X6X6X6X6X6X6X6X6X6X6X6X",
"6X6X6X6X6X6X6X6X6X6XT 2X6.5 : 6X6X6X6X6X6X6X6X6X6X6X6X6X6X6X6X6X6X6X6X6X6X6X6X6X6X6X6X6X6X6X6X6X6X6X",
"6X6X6X6X6X6X6X6X6X- } <XoXJ.J 4 6X6X6X6X6X6X6X6X6X6X6X6X6X6X6X6X6X6X6X6X6X6X6X6X6X6X6X6X6X6X6X6X6X6X",
"6X6X6X6X6X6X6X6X6X. u.:X5X5XOXo.6X6X6X6X6X6X6X6X6X6X6X6X6X6X6X6X6X6X6X6X6X6X6X6X6X6X6X6X6X6X6X6X6X6X",
"6X6X6X6X6X6X6X6X6X6Xd 5.t.t./.5.6X6X6X6X6X6X6X6X6X6X6X6X% * 6X6X6X6X6X6X6X6X6X6X6X6X6X6X6X6X6X6X6X6X",
"6X6X6X6X6X6X6X6X6X6X6X- = * J I 6X6X6X6X6X6X6X6X6X6X6X6X- & 3 q 6X6X6X6X6X6X6X6X6X6X6X6X6X6X6X6X6X6X",
"6X6X6X6X6X6X6X6X6X6X6X6X6X1 9 . 6X6X6X6X6X6X6X6X6X* & % 7 3 f =.V 7 6X6X6X6X6X6X6X6X6X6X6X6X6X6X6X6X",
"6X6X6X6X6X6X6X6X6X6X6X6X6XX M e : 6X6X6X6X6X6X- > @ & & y @.Y k.l.] w 6X6X6X6X6X6X6X6X6X6X6X6X6X6X6X",
"6X6X6X6X6X6X6X6X6X6X6X6X6X> u M 9 + 6X6X6X6X2 u N ) y & v ].H.0.;.z.[ X 6X6X6X6X6X6X6X6X6X6X6X6X6X6X",
"6X6X6X6X6X6X6X6X6X6X6X6X6X6X<   O 0 6X6X6XS i.] B &.c.N y ).-X{.v.s.-.{ t 6X6X6X6X6X6X6X6X6X6X6X6X6X",
"6X6X6X6X6X6X6X6X6X6X6X6X6X6X6X6X2 i O 6X6Xg..X{ B 8.@X&.3 o.$X2X&XF.s.:.#.b p 6X6X6X6X6X6X6X6X6X6X6X",
"6X6X6X6X6X6X6X6X6X6X6X6X6X6X6X6X6X+ u @ X.#X=X7.B q.<Xi.9 Y N.XX2X-X].F.XXOXM.P l 6X6X6X6X6X6X6X6X6X",
"6X6X6X6X6X6X6X6X6X6X6X6X6X6X6X6X6X6X* f _.>X<XV.) q.2Xg.B =.9.a.~.;X,X,X,X<X,X*XM.F 6X6X6X6X6X6X6X6X",
"6X6X6X6X6X6X6X6X6X6X6X6X6X6X6X6X6X6X6X' &X2X2X[.{ q.2Xg.] F.'.v.0.N.%X,X,X,X,X,X<XK.G 6X6X6X6X6X6X6X",
"6X6X6X6X6X6X6X6X6X6X6X6X6X6X6X6X6X6X6Xw.3X,X,X-X~./.2Xm.7.%X>X#XF.9.B.*X,X,X,X,X,X:XX.6X6X6X6X6X6X6X",
"6X6X6X6X6X6X6X6X6X6X6X6X6X6X6X6X6X6XS (.2X,X,X,X2X2X,XOX|.,X,X,X*X.X|.;X,X,X,X,X,X2XD.a 6X6X6X6X6X6X",
"6X6X6X6X6X6X6X6X6X6X6X6X6X6X6X6X6X6XK =X,X,X,X,X,X,X,X2X2X,X,X,X,X2X2X,X,X,X,X,X2X3X|.l 6X6X6X6X6X6X",
"6X6X6X6X6X6X6X6X6X6X6X6X6X6X6X6X6X6XK =X,X,X,X,X,X,X,X,X,X,X,X,X,X,X,X,X,X,X,X2X X!. Xm 6X6X6X6X6X6X",
"6X6X6X6X6X6X6X6X6X6X6X6X6X6X6X6X6X6XK =X,X,X,X,X,X,X,X,X,X,X,X,X,X,X,X,X,X,X,X3Xt.n (.m 6X6X6X6X6X6X",
"6X6X6X6X6X6X6X6X6X6X6X6X6X6X6X6X6X6XK =X,X,X,X,X,X,X,X,X,X,X,X,X,X,X,X,X,X,X,X5Xr.m ^.l 6X6X6X6X6X6X",
"6X6X6X6X6X6X6X6X6X6X6X6X6X6X6X6X6X6XD {.;X,X,X,X,XXX{.>X,X,X,X,X,X,X,X,X-XL.Q.:Xy.d G.l 6X6X6X6X6X6X",
"6X6X6X6X6X6X6X6X6X6X6X6X6X6X6X6X6X6Xh C.-X,X,X,X,X.Xa.Z.+X>X,X,X,X,X,X,XT.^ ( W.v.>.{.4.< 6X6X6X6X6X",
"6X6X6X6X6X6X6X6X6X6X6X6X6X6X6X6X6X6X6X7.@X>X,X,X,X-X).a.a.XX,X,X,X,X,X;X<.! / 2.{.{.;X[.F 6X6X6X6X6X",
"6X6X6X6X6X6X6X6X6X6X6X6X6X6X6X6X6X6X6X .E.$X;X,X,X,X<X.Xp.H.2X,X,X,X,X;X,.Q W ^ @X4X@XK.I 6X6X6X6X6X",
"6X6X6X6X6X6X6X6X6X6X6X6X6X6X6X6X6X6X6X_ P.E.+X>X,X,X,X;XV.J.2X,X,X,X,X,XI.~ ! x.-X2X`.@.6X6X6X6X6X6X",
"6X6X6X6X6X6X6X6X6X6X6X6X6X6X6X6X6X6X6X6X&.Y.E.$X,X,X>X$XV.J.4X,X,X,X,X,X*Xn.1.#X,X-X{.| 6X6X6X6X6X6X",
"6X6X6X6X6X6X6X6X6X6X6X6X6X6X6X6X6X6X6X6Xg c.R.`.#X-X;X}.B.Z.*X,X,X>X%X#X*X>X>X-X#X}.7.6X6X6X6X6X6X6X",
"6X6X6X6X6X6X6X6X6X6X6X6X6X6X6X6X6X6X6X6X6XC C.R.R.}.+XE.b.p.u.|.2X.XU.R.'.+X+X}.P. .r 6X6X6X6X6X6X6X",
"6X6X6X6X6X6X6X6X6X6X6X6X6X6X6X6X6X6X6X6X6X6Xj @.Y.Y.I.I.b.$.` ~.2XF.c.U.I.I.C...j o 6X6X6X6X6X6X6X6X",
"6X6X6X6X6X6X6X6X6X6X6X6X6X6X6X6X6X6X6X6X6X6X6Xq b.:.z x :.B.V.XX&Xd.$.+.z z k o 6X6X6X6X6X6X6X6X6X6X",
"6X6X6X6X6X6X6X6X6X6X6X6X6X6X6X6X6X6X6X6X6X6X6X: # . 6X6XH U.'.-X[.s.] . 6X6X6X6X6X6X6X6X6X6X6X6X6X6X",
"6X6X6X6X6X6X6X6X6X6X6X6X6X6X6X6X6X6X6X6X6X6X6X6X6X6X6X6XA Y.%X;Xm.%.h 6X6X6X6X6X6X6X6X6X6X6X6X6X6X6X",
"6X6X6X6X6X6X6X6X6X6X6X6X6X6X6X6X6X6X6X6X6X6X6X6X6X6X6X6XA T.-XOXa.` 6X6X6X6X6X6X6X6X6X6X6X6X6X6X6X6X",
"6X6X6X6X6X6X6X6X6X6X6X6X6X6X6X6X6X6X6X6X6X6X6X6X6X6X6X6XA T.;X).*.Z 6X6X6X6X6X6X6X6X6X6X6X6X6X6X6X6X",
"6X6X6X6X6X6X6X6X6X6X6X6X6X6X6X6X6X6X6X6X6X6X6X6X6X6X6X6Xh P.%Xm.O.6X6X6X6X6X6X6X6X6X6X6X6X6X6X6X6X6X",
"6X6X6X6X6X6X6X6X6X6X6X6X6X6X6X6X6X6X6X6X6X6X6X6X6X6X6X6X6X&.T.0.j 6X6X6X6X6X6X6X6X6X6X6X6X6X6X6X6X6X",
"6X6X6X6X6X6X6X6X6X6X6X6X6X6X6X6X6X6X6X6X6X6X6X6X6X6X6X6X6XZ +.E 6 6X6X6X6X6X6X6X6X6X6X6X6X6X6X6X6X6X",
"6X6X6X6X6X6X6X6X6X6X6X6X6X6X6X6X6X6X6X6X6X6X6X6X6X6X6X6X6X6X6X6X6X6X6X6X6X6X6X6X6X6X6X6X6X6X6X6X6X6X"
};
