/* XPM */
static char *result[] = {
/* columns rows colors chars-per-pixel */
"50 50 221 2 ",
"   c #2A2B1F",
".  c #30291C",
"X  c #34291D",
"o  c #35281F",
"O  c #3A2E1C",
"+  c #37351F",
"@  c #3E3519",
"#  c #3A341F",
"$  c #373C1F",
"%  c #3A3D1E",
"&  c #0C1827",
"*  c #0D1827",
"=  c #0E1826",
"-  c #0E1927",
";  c #121A25",
":  c #111926",
">  c #101927",
",  c #121B26",
"<  c #111C25",
"1  c #131C27",
"2  c #141D25",
"3  c #1F2122",
"4  c #252520",
"5  c #252421",
"6  c #2A2722",
"7  c #2E2422",
"8  c #232822",
"9  c #282E22",
"0  c #322920",
"q  c #3F2A20",
"w  c #2D3120",
"e  c #323620",
"r  c #343420",
"t  c #373520",
"y  c #333127",
"u  c #353C20",
"i  c #3C3D20",
"p  c #4C390D",
"a  c #533C0D",
"s  c #432C1C",
"d  c #453511",
"f  c #443618",
"g  c #42391C",
"h  c #43381F",
"j  c #433F1C",
"k  c #443A22",
"l  c #443E24",
"z  c #5E400C",
"x  c #46461B",
"c  c #40401D",
"v  c #4D461A",
"b  c #4E4D1A",
"n  c #564112",
"m  c #5A4613",
"M  c #5E4511",
"N  c #554B16",
"B  c #5E4B14",
"V  c #504218",
"C  c #50441F",
"Z  c #51471E",
"A  c #5E5E17",
"S  c #644706",
"D  c #6C420B",
"F  c #7A4C0C",
"G  c #7E5602",
"H  c #7A560A",
"J  c #7C5B0C",
"K  c #635515",
"L  c #625615",
"P  c #685414",
"I  c #665018",
"U  c #6B5D1C",
"Y  c #676114",
"T  c #726014",
"R  c #786A11",
"E  c #7A6618",
"W  c #757512",
"Q  c #7B7A11",
"!  c #7C7811",
"~  c #7D7C11",
"^  c #514623",
"/  c #524227",
"(  c #534925",
")  c #5B4D27",
"_  c #655620",
"`  c #AD2B06",
"'  c #B03A05",
"]  c #C51912",
"[  c #C33F09",
"{  c #CF3011",
"}  c #D90925",
"|  c #E01E2A",
" . c #865E00",
".. c #8E6400",
"X. c #80610C",
"o. c #8A670A",
"O. c #85690E",
"+. c #816E0E",
"@. c #836F0F",
"#. c #986906",
"$. c #88700E",
"%. c #85790C",
"&. c #997303",
"*. c #9C7305",
"=. c #917409",
"-. c #9E770E",
";. c #937F0B",
":. c #916A13",
">. c #94721A",
",. c #A57B01",
"<. c #AE7B0A",
"1. c #BB7D01",
"2. c #BD7D00",
"3. c #AC7F10",
"4. c #A96737",
"5. c #D36F03",
"6. c #C07F00",
"7. c #E75D24",
"8. c #E97323",
"9. c #8F820C",
"0. c #8F8C0C",
"q. c #96800A",
"w. c #9A8209",
"e. c #9B8309",
"r. c #9C8F12",
"t. c #A78506",
"y. c #AE8003",
"u. c #A18F07",
"i. c #B18702",
"p. c #BF8102",
"a. c #B88B02",
"s. c #B38A0E",
"d. c #A89306",
"f. c #AA9B06",
"g. c #AB960B",
"h. c #A09B09",
"j. c #B59307",
"k. c #B39902",
"l. c #BF9C04",
"z. c #AC8B15",
"x. c #A18119",
"c. c #B69A10",
"v. c #B0A304",
"b. c #B6A304",
"n. c #BAA103",
"m. c #B7AD05",
"M. c #BDA310",
"N. c #C79504",
"B. c #CD9701",
"V. c #C79E05",
"C. c #D89301",
"Z. c #E79003",
"A. c #C5A506",
"S. c #C9AA06",
"D. c #D5A400",
"F. c #D4AA02",
"G. c #DFAA00",
"H. c #DCAC00",
"J. c #CDB001",
"K. c #C9B204",
"L. c #CBB802",
"P. c #CFB802",
"I. c #D7B200",
"U. c #D1B106",
"Y. c #D6BE01",
"T. c #D5BD03",
"R. c #DBB901",
"E. c #DCBF03",
"W. c #DFBF02",
"Q. c #EFA005",
"!. c #E0B000",
"~. c #E3B000",
"^. c #E1BA00",
"/. c #E8BA00",
"(. c #EEBB00",
"). c #F2BD0A",
"_. c #CAC003",
"`. c #CFC402",
"'. c #D5C201",
"]. c #D8C602",
"[. c #DEC502",
"{. c #D3C902",
"}. c #DFC901",
"|. c #DACE01",
" X c #DFCF01",
".X c #E1C300",
"XX c #E9C200",
"oX c #EDC200",
"OX c #E1CE00",
"+X c #EEC802",
"@X c #EFCC00",
"#X c #ECCE00",
"$X c #F0C101",
"%X c #F0CA00",
"&X c #F3CB00",
"*X c #E6D000",
"=X c #E0D401",
"-X c #E7D900",
";X c #EDDB00",
":X c #F0D500",
">X c #F2D800",
",X c #F4DA00",
"<X c #F2DD00",
"1X c #F5DE00",
"2X c #F0E300",
"3X c #F5E100",
"4X c #F7E200",
"5X c #F5E700",
"6X c #F7E600",
"7X c #F8E400",
"8X c #F7E800",
"9X c #F7E900",
"0X c #F7EA00",
"qX c #F7EB00",
"wX c #FAE900",
"eX c #F8EB00",
"rX c #F8ED00",
"tX c #FAEC00",
"yX c #FAED00",
"uX c #FCEE00",
"iX c None",
/* pixels */
"iXiXiXiXiXiXiXiXiXiXiXiXiXiXiXiXiXiXiXiXiXiXiXiXiXiXiXiXiXiXiXiXiXiXiXiXiXiXiXiXiXiXiXiXiXiXiXiXiXiX",
"iXiXiXiXiXiXiXiXiXiXiXiXiXiXiXiXiXiXiXiXiXiXiXiXiXiXiXiXiXiXiXiXiXiXiXiXiXiXiXiXiXiXiXiXiXiXiXiXiXiX",
"iXiXiXiXiXiXiXiXiXiXiXiXiXiXiXiXiXiXiXiXiXiXiXiXiXiXiXiXiXiXiXiXiXiXiXiXiXiXiXiXiXiXiXiXiXiXiXiXiXiX",
"iXiXiXiXiXiXiXiXiXiXiXiXiXiXiXiXiXiXiXiXiXiXiXiXiXiXiXiXiXiXiXiXiXiXiXiXiXiXiXiXiXiXiXiXiXiXiXiXiXiX",
"iXiXiXiXiXiXiXiXiXiXiXiXiXiXiXiXiXiXiXiXiXiXiXiXiXiXiXiXiXiXiXiXiXiXiXiXiXiXiXiXiXiXiXiXiXiXiXiXiXiX",
"1 iXiXiXiXiXiXiXiXiXiXiXiXiXiXiXiXiXiXiXiXiXiXiXiXiXiXiXiXiXiXiXiXiXiXiXiXiXiXiXiXiXiXiXiXiXiXiXiXiX",
"/ e $   iXiXiXiXiXiXiXiXiXiXiXiXiXiXiXiXiXiXiXiXiXiXiXiXiXiXiXiXiXiXiXiXiXiXiXiXiXiXiXiXiXiXiXiXiXiX",
"z.T.].g.x t iXiXiXiXiXiXiXiXiXiXiXiXiXiXiXiXiXiXiXiXiXiXiXiXiXiXiXiXiXiXiXiXiXiXiXiXiXiXiXiXiXiXiXiX",
"g.6XeX5X*Xg.N c iXiXiXiXiXiXiXiXiXiXiXiXiXiXiXiXiXiXiXiXiXiXiXiXiXiXiXiXiXiXiXiXiXiXiXiXiXiXiXiXiXiX",
"Q 9X0X0XeX5X;Xf.Y c iXiXiXiXiXiXiXiXiXiXiXiXiXiXiXiXiXiXiXiXiXiXiXiXiXiXiXiXiXiXiXiXiXiXiXiXiXiXiXiX",
"Q 9X0X0X0X0X0X0X,Xe.3 iXiXiXiXiXiXiXiXiXiXiXiXiXiXiXiXiXiXiXiXiXiXiXiXiXiXiXiXiXiXiXiXiXiXiXiXiXiXiX",
"Q 9X0X0X0X0X0X0X9XY.c iXiXiXiXiXiXiXiXiXiXiXiXiXiXiXiXiXiXiXiXiXiXiXiXiXiXiXiXiXiXiXiXiXiXiXiXiXiXiX",
"Q 0XeXeXeX0X0X0XtX|.c iXiXiXiXiXiXiXiXiXiXiXiXiXiXiXiXiXiXiXiXiXiXiXiXiXiXiXiXiXiXiXiXiXiXiXiXiXiXiX",
"W =X=X=X=X5XtXtXtX|.c iXiXiXiXiXiXiXiXiXiXiXiXiXiXiXiXiX: 2 iXiXiXiXiXiXiXiXiXiXiXiXiXiXiXiXiXiXiXiX",
"iX$ $ $ b n.`.{.2X].c iXiXiXiXiXiXiXiXiXiXiXiXiXiXiXiXiX: = > 4 5 iXiXiXiXiXiXiXiXiXiXiXiXiXiXiXiXiX",
"iXiXiXiXiX6 9 e `.K.t iXiXiXiXiXiXiXiXiXiXiXiXiXiXiXiXiXiX& = G H g 5 iXiXiXiXiXiXiXiXiXiXiXiXiXiXiX",
"iXiXiXiXiXiXiXw _.r.iXiXiXiXiXiXiXiXiXiXiXiXiXiXiXiXiXiXiXy k :.p.6.H @ iXiXiXiXiXiXiXiXiXiXiXiXiXiX",
"iXiXiXiXiXiXiXw _.! iXiXiXiXiXiXiXiXiXiXiXiXiXiXiX- = = = E M.M.s.<.<.#.n iXiXiXiXiXiXiXiXiXiXiXiXiX",
"iXiXiXiXiXiXiXw _.b.  < , iXiXiXiXiXiXiXiXiXiXiXiXiX- = = w.7X7X[.K.l.3.:.l < < , iXiXiXiXiXiXiXiXiX",
"iXiXiXiXiXiXiXw L.<Xm.f.L iXiXiXiXiXiXiXiXiXiXiXiXiXiX- * E #XeXeXeX<XU.z.j.f.v.d.Z iXiXiXiXiXiXiXiX",
"iXiXiXiXiXiXiXw k.=X-X4X9.iXiXiXiXiXiXiXiXiXiXiXiXiXiXiXiXy g.2X0XeXqX7X-X3XwXyX6XP.@.iXiXiXiXiXiXiX",
"iXiXiXiXiXiXiXiXe % i v.%.iXiXiXiXiXiXiXiXiXiXiXiXiXiXiX# + U c.OX;X8XqXeXqX0X0XqXwXR.K iXiXiXiXiXiX",
"iXiXiXiXiXiXiXiXiXiXiXS N iXiXiXiXiXiXiXiXiXiXiXj g 7 7 y.H.H.B.z.s.E.5X0X0X0X0X0X0X4Xd.iXiXiXiXiXiX",
"iXiXiXiXiXiXiXiXiXiXiXS p iXiXiXiXiXiXiXiXiX6 N n.l.D F I.&X%X+XXXF.M.2XeX0X0X0X0XeXuXL.v iXiXiXiXiX",
"iXiXiXiXiXiXiXiXiXiXiXz S d X 3 iXiXiXiXiXo S I.wXK.G  .OXeX0X0X0X9X9X0X0X0X0X0XeX-Xh.OXR iXiXiXiXiX",
"iXiXiXiXiXiXiXiXiXiXiXX d a D 3 iXiXiXiX0 D  .}.yX[... .OXeX0X0X0X0X0X0X0X0X0X0XyX_.u  X! iXiXiXiXiX",
"iXiXiXiXiXiXiXiXiXiXiXiXiX5 a   iXiXiXiXO.G  .}.tX<X,. .OXeX0X0X0X0X0X0X0X0XqXqXyX_.% '.R iXiXiXiXiX",
"iXiXiXiXiXiXiXiXiXiXiXiXiXiXd . iXiXiXq.^.&. .I.eX8XS...OXtX0X0X0X0X0X0X0X0X4X1XeX]./ K.+.iXiXiXiXiX",
"iXiXiXiXiXiXiXiXiXiXiXiXiXiXs q ; ; P .X3XF. .t.5XeX*Xt.*XeX0X0X0X0X0X0X0X5XZ.7.$X}.4.+XJ.% iXiXiXiX",
"iXiXiXiXiXiXiXiXiXiXiXiXiXiX: : : O A.7X0X>Xl.k.5X0X5X<X5X0X0X0X0X0X0X0XeXXX[ } 8.:X<X6X1X;.iXiXiXiX",
"iXiXiXiXiXiXiXiXiXiXiXiXiXiXiXiXiXA |.eX0X9X5X5X0X0X0XeX0X0X0X0X0X0X0X0XrXC.` ] | ).rX0XwXu.iXiXiXiX",
"iXiXiXiXiXiXiXiXiXiXiXiXiXiXiXiXiX0.tX0X0X0X0X0X0X0X0X0X0X0X0X0X0X0X0X0XqXG.' ` { $XrX0X[.O.iXiXiXiX",
"iXiXiXiXiXiXiXiXiXiXiXiXiXiXiXiXiX0.tX0X0X0X0X0X0X0X0X0X0X0X0X0X0X0X0X0XqX<X5.] C.6XqX8XA.Z iXiXiXiX",
"iXiXiXiXiXiXiXiXiXiXiXiXiXiXiXiXiX0.tX0X0X0X0X0X0X0X0X0X0X0X0X0X0X0X0X0X0XqX&XQ.,XqX4XXX=.iXiXiXiXiX",
"iXiXiXiXiXiXiXiXiXiXiXiXiXiXiXiXiX0.tX0X0X0X0X0X0X0X0X0X0X0X0X0X0X0X0X5X6X5X8X0X5X,X/.,.iXiXiXiXiXiX",
"iXiXiXiXiXiXiXiXiXiXiXiXiXiXiXiXiX0.tX0X0X0X0X0X0X0X0X0X0X0X0X0X0X0XeX#X!.oX$X$X$XD.X.0 iXiXiXiXiXiX",
"iXiXiXiXiXiXiXiXiXiXiXiXiXiXiXiXiX0.yX0X0X0X0X0X0X0X0X0X0XqXqXqXqX0XqX:Xs.N.F.V.i.m iXiXiXiXiXiXiXiX",
"iXiXiXiXiXiXiXiXiXiXiXiXiXiXiXiXiX~ ;XeX0X0X0X0X0X0X0XqX9X1X,X>X:X6XqX3Xc.>.-.C 2 iXiXiXiXiXiXiXiXiX",
"iXiXiXiXiXiXiXiXiXiXiXiXiXiXiXiXiXw L.tX0X0X0X0X0X0X6X>X:XoX(.~.B.+X1X9XE.-.2.M iXiXiXiXiXiXiXiXiXiX",
"iXiXiXiXiXiXiXiXiXiXiXiXiXiXiXiXiXiXq.<XqX0X0X0X0X0X:X(.(.D.$.T I B.+X6X:Xs.1.M iXiXiXiXiXiXiXiXiXiX",
"iXiXiXiXiXiXiXiXiXiXiXiXiXiXiXiXiXiXiXn.,X0X0X0X0X5XU.~.a.B iXiXiXJ G.1X6XA.#.f iXiXiXiXiXiXiXiXiXiX",
"iXiXiXiXiXiXiXiXiXiXiXiXiXiXiXiXiXiXiXo./.3XqX0X0X0XT.E @ iXiXiXiXiX*.@XeXS.H iXiXiXiXiXiXiXiXiXiXiX",
"iXiXiXiXiXiXiXiXiXiXiXiXiXiXiXiXiXiXiXh t.>X0X0X0XeXL.t iXiXiXiXiXiXV I.7Xc.# iXiXiXiXiXiXiXiXiXiXiX",
"iXiXiXiXiXiXiXiXiXiXiXiXiXiXiXiXiXiXiXiX^ A.1X0X0X4Xl.w iXiXiXiXiXiXw i.XX@.iXiXiXiXiXiXiXiXiXiXiXiX",
"iXiXiXiXiXiXiXiXiXiXiXiXiXiXiXiXiXiXiXiXiX_ R.6X3XoX*.iXiXiXiXiXiXiXiXP -.r iXiXiXiXiXiXiXiXiXiXiXiX",
"iXiXiXiXiXiXiXiXiXiXiXiXiXiXiXiXiXiXiXiXiXk z.;XXX&.f iXiXiXiXiXiXiXiX) ( iXiXiXiXiXiXiXiXiXiXiXiXiX",
"iXiXiXiXiXiXiXiXiXiXiXiXiXiXiXiXiXiXiXiXiXm >.W..X_ iXiXiXiXiXiXiXiXiXiXiXiXiXiXiXiXiXiXiXiXiXiXiXiX",
"iXiXiXiXiXiXiXiXiXiXiXiXiXiXiXiXiXiXiXiXiXiXg $.^.V.x.iXiXiXiXiXiXiXiXiXiXiXiXiXiXiXiXiXiXiXiXiXiXiX",
"iXiXiXiXiXiXiXiXiXiXiXiXiXiXiXiXiXiXiXiXiXiXiX8 N N i iXiXiXiXiXiXiXiXiXiXiXiXiXiXiXiXiXiXiXiXiXiXiX",
"iXiXiXiXiXiXiXiXiXiXiXiXiXiXiXiXiXiXiXiXiXiXiXiXiXiXiXiXiXiXiXiXiXiXiXiXiXiXiXiXiXiXiXiXiXiXiXiXiXiX"
};
