/* XPM */
static char *result[] = {
/* columns rows colors chars-per-pixel */
"50 50 49 1 ",
"  c black",
". c #0B0B0B",
"X c #120102",
"o c #180303",
"O c #190303",
"+ c #111111",
"@ c gray7",
"# c gray8",
"$ c #1D1B1B",
"% c #2C080A",
"& c #350B0D",
"* c #360C0E",
"= c #2A2A2A",
"- c #2C2C2C",
"; c #392B2C",
": c #554445",
"> c gray38",
", c #E10A17",
"< c #EC111E",
"1 c #EE1F2A",
"2 c #EE222D",
"3 c #EE2531",
"4 c #EF333E",
"5 c #EF3641",
"6 c #EF3944",
"7 c #C24147",
"8 c #D4464D",
"9 c #D6474E",
"0 c #D9494F",
"q c #F0454F",
"w c #F24851",
"e c #F24B54",
"r c #F05058",
"t c #A0A0A0",
"y c gray66",
"u c gray70",
"i c #B6B6B6",
"p c gray72",
"a c #C3C4C4",
"s c gray80",
"d c gray83",
"f c #D7D7D7",
"g c #DFDFDF",
"h c #E2E2E2",
"j c #E7E8E8",
"k c #EAEAEA",
"l c gray93",
"z c #F1F1F1",
"x c None",
/* pixels */
"xxxxxxxxxxxxxxxxxxxxxxxxxxxxxxxxxxxxxxxxxxxxxxxxxx",
"xxxxxxxxxxxxxxxxxxxxxxxxxxxxxxxxxxxxxxxxxxxxxxxxxx",
"xxxxxxxxxxxxxxxxxxxxxxxxxxxxxxxxxxxxxxxxxxxxxxxxxx",
"xxxxxxxxxxxxxxxxxxxxxxxxxxxxxxxxxxxxxxxxxxxxxxxxxx",
"xxxxxxxxxxxxxxxxxxxxxxxxxxxxxxxxxxxxxxxxxxxxxxxxxx",
"xxxxxxxxxxxxxxxxxxxxxxxxxxxxxxxxxxxxxxxxxxxxxxxxxx",
"xxxxxxxxxxxxxxxxxxxxxoOOOOOOoxxxxxxxxxxxxxxxxxxxxx",
"xxxxxxxxxxxxxxxxxxoO&79888897&Ooxxxxxxxxxxxxxxxxxx",
"xxxxxxxxxxxxxxxxo&790rewwwwer097&oxxxxxxxxxxxxxxxx",
"xxxxxxxxxxxxxxx*70ewwwq6666qwwer07*xxxxxxxxxxxxxxx",
"xxxxxxxxxxxxxx*7req65554444556qwer7*xxxxxxxxxxxxxx",
"xxxxxxxxxxxxx*7req64322222223456qer7*xxxxxxxxxxxxx",
"xxxxxxxxxxxx*7req6431<<<<<<<12346qer7*xxxxxxxxxxxx",
"xxxxxxxxxxx*7req6431<,,,,,,<<<1346qer7oxxxxxxxxxxx",
"xxxxxxxxxxo7req6431,,,,,,,,,,<<1346qe0&xxxxxxxxxxx",
"xxxxxxxxxx&0eq6431,,,,,,,,,,,,<<1346wr7*xxxxxxxxxx",
"xxxxxxxxxo7rw6431<<<<<<<<<<<<<<<<135qer7oxxxxxxxxx",
"xxxxxxxxxO9eq531<<1222222222221<<<246qe9Oxxxxxxxxx",
"xxxxxxxxx&0w642<<134555555555431<<1346w0&xxxxxxxxx",
"xxxxxxxxo7rw53322346qwwwwwwwq643223335wr7oxxxxxxxx",
"xxxxxxxxO9eq6555546qer98889req64455556qe9Oxxxxxxxx",
"xxxxxxxxO9eewwwwq6qer7;;;;;7req66qwwwwee9Oxxxxxxxx",
"xxxxxxxxO709990rewer7:sddds:7reqqer099907Oxxxxxxxx",
"xxxxxxxx XXXXX%7rer7:sjytyjs:7reer7%XXXXX xxxxxxxx",
"xxxxxxxx ......%707;sjysdsyjs;7097%...... xxxxxxxx",
"xxxxxxxx+tuuuit.XXX$dysfsfsyd$XXX$;tiuuut+xxxxxxxx",
"xxxxxxxx@tsdffa;...$dtdsasdtd$..$yadffdst@xxxxxxxx",
"xxxxxxxxx=idgggsu;.$dysfsfsyd$.;ighgggdi=xxxxxxxxx",
"xxxxxxxxx+udfgjkjdp:sjysdsyjs:pdjkjjgfdu+xxxxxxxxx",
"xxxxxxxxx@tsdghkllla>sjytyjs>alzlkjhgdst@xxxxxxxxx",
"xxxxxxxxxx=idfgjkklzs>sdsds>szzzkjhgfdi=xxxxxxxxxx",
"xxxxxxxxxx@tsdgghjklla:;;;:szzzkjhgfdst@xxxxxxxxxx",
"xxxxxxxxxxx-yddfghjkklfggghzzzkjhgfdst-xxxxxxxxxxx",
"xxxxxxxxxxxx-ysdfgghjklzzzzlkkjhgfdst-xxxxxxxxxxxx",
"xxxxxxxxxxxxx-tsddfghjkkkkkkjhggfdst-xxxxxxxxxxxxx",
"xxxxxxxxxxxxxx-tisdfggghjjhgggfddst-xxxxxxxxxxxxxx",
"xxxxxxxxxxxxxxx@=ysdddfggggfdddsit-xxxxxxxxxxxxxxx",
"xxxxxxxxxxxxxxxxx-tuisdffffdsiut=@xxxxxxxxxxxxxxxx",
"xxxxxxxxxxxxxxxxxx@+=tuuuuuut=+@xxxxxxxxxxxxxxxxxx",
"xxxxxxxxxxxxxxxxxxxxx@######@xxxxxxxxxxxxxxxxxxxxx",
"xxxxxxxxxxxxxxxxxxxxxxxxxxxxxxxxxxxxxxxxxxxxxxxxxx",
"xxxxxxxxxxxxxxxxxxxxxxxxxxxxxxxxxxxxxxxxxxxxxxxxxx",
"xxxxxxxxxxxxxxxxxxxxxxxxxxxxxxxxxxxxxxxxxxxxxxxxxx",
"xxxxxxxxxxxxxxxxxxxxxxxxxxxxxxxxxxxxxxxxxxxxxxxxxx",
"xxxxxxxxxxxxxxxxxxxxxxxxxxxxxxxxxxxxxxxxxxxxxxxxxx",
"xxxxxxxxxxxxxxxxxxxxxxxxxxxxxxxxxxxxxxxxxxxxxxxxxx",
"xxxxxxxxxxxxxxxxxxxxxxxxxxxxxxxxxxxxxxxxxxxxxxxxxx",
"xxxxxxxxxxxxxxxxxxxxxxxxxxxxxxxxxxxxxxxxxxxxxxxxxx",
"xxxxxxxxxxxxxxxxxxxxxxxxxxxxxxxxxxxxxxxxxxxxxxxxxx",
"xxxxxxxxxxxxxxxxxxxxxxxxxxxxxxxxxxxxxxxxxxxxxxxxxx"
};
