/* XPM */
static char *result[] = {
/* columns rows colors chars-per-pixel */
"50 50 190 2 ",
"   c #020203",
".  c #070509",
"X  c #0B0B0B",
"o  c #0B0414",
"O  c #0E031A",
"+  c #0A0510",
"@  c #140C19",
"#  c #131313",
"$  c #1B1B1B",
"%  c #160B24",
"&  c #1E122E",
"*  c #211531",
"=  c #220F31",
"-  c #232323",
";  c #2C2C2C",
":  c #323332",
">  c #3C3C3C",
",  c #2D1D44",
"<  c #35165A",
"1  c #352251",
"2  c #392557",
"3  c #391960",
"4  c #3E1B68",
"5  c #4C2F51",
"6  c #66385D",
"7  c #441C74",
"8  c #5C227D",
"9  c #5D2376",
"0  c #522E78",
"q  c #6E276A",
"w  c #753E69",
"e  c #6B2475",
"r  c #6D2478",
"t  c #652678",
"y  c #792977",
"u  c #68377D",
"i  c #7A3679",
"p  c #6B3761",
"a  c #424242",
"s  c #4D4D4D",
"d  c #5B5B5B",
"f  c #575856",
"g  c #5B4058",
"h  c #7A426F",
"j  c #7A4D71",
"k  c #6A6A6A",
"l  c #636363",
"z  c #7A7B7A",
"x  c #727272",
"c  c #872B7B",
"v  c #8C497E",
"b  c #4B1C83",
"n  c #511F8C",
"m  c #5B2483",
"M  c #5A278A",
"N  c #5D2595",
"B  c #5C2796",
"V  c #4D2481",
"C  c #643B87",
"Z  c #623A94",
"A  c #723980",
"S  c #6328A7",
"D  c #6734A9",
"F  c #6526B3",
"G  c #6C29BD",
"H  c #6929B6",
"J  c #6F30BD",
"K  c #7138BB",
"L  c #67429D",
"P  c #70548C",
"I  c #734BAE",
"U  c #774CB5",
"Y  c #784EB6",
"T  c #7A4DB9",
"R  c #7546B7",
"E  c #7F55BB",
"W  c #714DA6",
"Q  c #732DC9",
"!  c #7534C6",
"~  c #763BC3",
"^  c #7734CA",
"/  c #7934CD",
"(  c #7A3BC8",
")  c #793AC7",
"_  c #792FD2",
"`  c #7A31D3",
"'  c #6F2BC0",
"]  c #7E4BC2",
"[  c #98398A",
"{  c #973386",
"}  c #A3348D",
"|  c #AD3493",
" . c #A83992",
".. c #B9399D",
"X. c #A02F88",
"o. c #BE3BA2",
"O. c #C43BA6",
"+. c #C63DA9",
"@. c #C93FAB",
"#. c #934D87",
"$. c #AB4898",
"%. c #A55995",
"&. c #AD5D9C",
"*. c #A95599",
"=. c #B9419F",
"-. c #996B93",
";. c #A37298",
":. c #835CBC",
">. c #BD5AA9",
",. c #BD4EA6",
"<. c #8761BF",
"1. c #B570A6",
"2. c #CB41AE",
"3. c #C848AC",
"4. c #CE44B1",
"5. c #D046B3",
"6. c #D349B6",
"7. c #D64DB9",
"8. c #D94FBB",
"9. c #DA52BD",
"0. c #D453B8",
"q. c #CD68B8",
"w. c #D171BC",
"e. c #D16EBB",
"r. c #834CC9",
"t. c #8047CA",
"y. c #8D5CCC",
"u. c #8454C3",
"i. c #8E66C6",
"p. c #946ACB",
"a. c #9A6BD4",
"s. c #9979C7",
"d. c #A379D8",
"f. c #DD56C0",
"g. c #DE59C2",
"h. c #E15DC5",
"j. c #DF6BC6",
"k. c #E663CA",
"l. c #E866CD",
"z. c #E96ACE",
"x. c #E364C8",
"c. c #E379CC",
"v. c #E274CB",
"b. c #EC6DD1",
"n. c #EF71D4",
"m. c #F174D7",
"M. c #F377D9",
"N. c #F57BDB",
"B. c #F87EDE",
"V. c #838383",
"C. c gray55",
"Z. c #929292",
"A. c gray61",
"S. c #A2A2A2",
"D. c #ABABAB",
"F. c #B4B4B4",
"G. c #BBBBBB",
"H. c #A181CE",
"J. c #A988D6",
"K. c #B49CD8",
"L. c #BBA4DB",
"P. c #F482DB",
"I. c #F881DF",
"U. c #EC8DD8",
"Y. c #C1ADDE",
"T. c #FB84E2",
"R. c #FE88E5",
"E. c #FC98E7",
"W. c #C3ACE3",
"Q. c #CBB7E5",
"!. c #F7A7E6",
"~. c #FFB1EE",
"^. c #C4C4C3",
"/. c #CBCBCB",
"(. c #D3D3D3",
"). c #DBDBDB",
"_. c #DACAEE",
"`. c #D5C7E9",
"'. c #DCD0EE",
"]. c #DED1F0",
"[. c #E6DCF3",
"{. c #E4E4E4",
"}. c #EDEDED",
"|. c #EAE3F5",
" X c #F3F3F3",
".X c #F6F4FB",
"XX c #FFFFFF",
"oX c #F9F7FC",
"OX c #F0EAF8",
"+X c None",
/* pixels */
"+X+X+X+X+X+X+X+X+X+X+X+X+X+X+X+X+X+X+X+X+X+X+X+X+X+X+X+X+X+X+X+X+X+X+X+X+X+X+X+X+X+X+X+X+X+X+X+X+X+X",
"+X+X+X+X+X+X+X+X+X+X+X+X+X+X+X+X+X+X+X+X+X+X+X+X+X+X+X+X+X+X+X+X+X+X+X+X+X+X+X+X+X+X+X+X+X+X+X+X+X+X",
"+X+X+X+X+X+X+X+X+X+X+X+X+X+X+X+X+X+X+X+X+X+X+X+X    +X+X+X+X+X+X+X+X+X+X+X+X+X+X+X+X+X+X+X+X+X+X+X+X",
"+X+X+X+X+X+X+X+X+X+X+X+X+X+X+X+X+X+X+X. @ * , 1 2 2 1 , * @ X   +X+X+X+X+X+X+X+X+X+X+X+X+X+X+X+X+X+X",
"+X+X+X+X+X+X+X+X+X+X+X+X+X+X+X+X  - 2 P W W W E Y Y U U I L 0 2 $   +X+X+X+X+X+X+X+X+X+X+X+X+X+X+X+X",
"+X+X+X+X+X+X+X+X+X+X+X+Xj &.S.-.g P H.s.E Y Y U Y U U U Y Y T W 0 w %.&.#.+X+X+X+X+X+X+X+X+X+X+X+X+X",
"+X+X+X+X+X+X+X+X+X+Xh w.!.~.~.~.!.-.W E Y Y Y U U U U U U U I h q.I.R.R.I.c.%.+X+X+X+X+X+X+X+X+X+X+X",
"+X+X+X+X+X+X+X+X+X%.P.R.E.!.!.!.!.U.j Y Y W Y Y Y U U U U R Z *.M.N.P.I.R.R.R.w.w +X+X+X+X+X+X+X+X+X",
"+X+X+X+X+X+X+X+X&.T.R.T.T.B.P.P.P.N.#.L R i.E R U U U E i.I C j.m.m.M.B.P.T.T.R.c.h +X+X+X+X+X+X+X+X",
"+X+X+X+X+X+X+X&.R.R.T.T.B.M.n.n.b.b.$.Z R L.L.U U U T Y.K.I u g.z.b.m.m.N.B.I.T.R.c.w +X+X+X+X+X+X+X",
"+X+X+X+X+X+X#.P.T.I.P.N.M.n.b.z.k.k.$.Z E `.oXH.R R J.oX`.R u g.k.k.b.n.m.N.B.I.I.R.e.+X+X+X+X+X+X+X",
"+X+X+X+X+X6 c.T.T.B.N.m.n.b.z.k.h.h.[ Z u.|.XX|.i.i.|.oX[.E u 0.h.k.k.b.b.m.M.N.P.I.R.%.+X+X+X+X+X+X",
"+X+X+X+X+X&.T.B.N.M.n.n.z.l.k.h.f.f.{ D p.oXoXoX_._.XXoXOXi.m 3.f.g.h.k.l.b.n.M.N.N.I.c.6 +X+X+X+X+X",
"+X+X+X+X+Xv.B.N.m.n.b.l.k.h.g.f.9.7.i D J.XXW.Q.XXXXW.Q.XXJ.C =.9.9.f.h.k.l.z.b.m.N.B.B.%.+X+X+X+X+X",
"+X+X+X+Xv N.M.m.n.z.l.k.h.f.9.8.6.3.e R Q.XXJ.] '._.] J.XXY.M  .6.7.9.f.g.h.k.l.b.m.m.N.q.+X+X+X+X+X",
"+X+X+X+X*.M.m.z.z.k.x.g.f.9.7.6.4.o.9 ] ].oXy.~ i.y.~ p.oX'.D c 4.6.6.8.9.g.h.k.k.b.b.m.v.p +X+X+X+X",
"+X+X+X+X3.m.z.l.h.h.f.f.f.8.6.@.4.{ B y.OX[.t.~ ~ ~ ~ r.|.OX] e +.@.5.6.8.8.f.h.h.l.z.b.v.v +X+X+X+X",
"+X+X+X+X>.z.l.k.h.f.f.f.@.6.@.@.@.y H r.d.a.( ( ( ( ) ( a.d.] m | @.@.5.5.7.8.f.f.h.k.l.x.c +X+X+X+X",
"+X+X+X+X*.l.h.9.f.f.f.@.@.@.+.+. .9 ~ ) ! ) D 7 3 < 7 D ! ! ( D y O.+.@.5.5.5.8.9.f.g.k.j.5 +X+X+X+X",
"+X+X+X+X6 h.h.9.f.@.6.6.@.@.O...q H ) / ! 7 % $ : > $ @ 4 ! / / 8 X.O.+.+.4.5.5.7.8.9.h.3.@ +X+X+X+X",
"+X+X+X+X= } 8.8.@.@.@.@.+.+.o.c B ` ^ ! 3 + k /.{.{.(.z # < J ^ G 9 X.O.O.+.2.2.4.7.8.5.y * +X+X+X+X",
"+X+X+X  < N c } +.@.@.@...X.q N / / _ n + Z.}.).+X+X(.}.S.# 7 ^ _ G 9 c | o.+.+.3...{ e G 4   +X+X+X",
"+X+X+X  b _ G N 8 r m y 9 n H _ _ _ Q = f }.^.+X+X+X+X/.}.k % ' _ _ Q S 8 e e e 9 n S Q ` n   +X+X+X",
"+X+X+X. b G G G G F F F H G G G G G N O D.).+X+X+X+X+X+X).Y.@ n G G G G G F F F F G G G ' n . +X+X+X",
"+X+X+X  o O O O O O O O O O O O O O o   F./.+X+X+X+X+X+X(.).- . O O O o O O O O O o O O O o   +X+X+X",
"+X+X+X  - : : : : : : : : : : : : : -   +X/.+X+X+X+X+X+X(.).- - : : : : : ; : : ; : : : : -   +X+X+X",
"+X+X+X. S. X}.}.}.}. X}.}.}.}.}.}.}./.# +X).+X+X+X+X+X+X).S.X F. X}. X}.}.}. X}.}. X}. X XD.X +X+X+X",
"+X+X+X. S.XXXXXXXXXXXXXXXXXXXXXXXXXX Xa a }./.+X+X+X+X/. X: : }.XXXXXXXXXXXXXXXXXXXXXXXXXXS.. +X+X+X",
"+X+X+X  V.XXXXXXXXXXXXXXXXXXXXXXXXXXXXD.# C. X)./.^.). XS.X Z.XXXXXXXXXXXXXXXXXXXXXXXXXX XV.  +X+X+X",
"+X+X+X+Xd XXXXXXXXXXXXXXXXXXXXXXXXXXXXoXz # k /.{.}.(.l . k  XXXXXXXXXXXXXXXXXXXXXXXXX X}.d +X+X+X+X",
"+X+X+X+X> }.XXXXXXXXXXXXXXXXXXXXXXXXXXXX XZ.- # : : $ $ V. XXXXXXXXXXXXXXXXXXXXXXXXXXX}.(.: +X+X+X+X",
"+X+X+X+X# G.XXXXXXXXXXXXXXXXXXXXXXXXXXXXXXXX{.D.z z A.).XXXXXXXXXXXXXXXXXXXXXXXXXXXX X{.D.# +X+X+X+X",
"+X+X+X+X  z XXXXXXXXXXXXXXXXXXXXXXXXXXXXXXXXXXXXXXXXXXXXXXXXXXXXXXXXXXXXXXXXXXXXXXoX{.).x   +X+X+X+X",
"+X+X+X+X+X: }.XXXXXXXXXXXXXXXXXXXXXXXXXXXXXXXXXXXXXXXXXXXXXXXXXXXXXXXXXXXXXXXXXXXX}.).^.: +X+X+X+X+X",
"+X+X+X+X+X. S.XXXXXXXXXXXXXXXXXXXXXXXXXXXXXXXXXXXXXXXXXXXXXXXXXXXXXXXXXXXXXXXXXXoX{.(.C.X +X+X+X+X+X",
"+X+X+X+X+X+X> }.XXXXXXXXXXXXXXXXXXXXXXXXXXXXXXXXXXXXXXXXXXXXXXXXXXXXXXXXXXXXXXXX}.(.^.> +X+X+X+X+X+X",
"+X+X+X+X+X+X. C.XXXXXXXXXXXXXXXXXXXXXXXXXXXXXXXXXXXXXXXXXXXXXXXXXXXXXXXXXXXXXX X).(.z . +X+X+X+X+X+X",
"+X+X+X+X+X+X+X- /.XXXXXXXXXXXXXXXXXXXXXXXXXXXXXXXXXXXXXXXXXXXXXXXXXXXXXXXXXXoX{.(.D.- +X+X+X+X+X+X+X",
"+X+X+X+X+X+X+X+Xs }.XXXXXXXXXXXXXXXXXXXXXXXXXXXXXXXXXXXXXXXXXXXXXXXXXXXXXXoX}.).G.a   +X+X+X+X+X+X+X",
"+X+X+X+X+X+X+X+X  l  XXXXXXXXXXXXXXXXXXXXXXXXXXXXXXXXXXXXXXXXXXXXXXXXXXXXX}.).^.d   +X+X+X+X+X+X+X+X",
"+X+X+X+X+X+X+X+X+X. x  XXXXXXXXXXXXXXXXXXXXXXXXXXXXXXXXXXXXXXXXXXXXXXXXX}.)./.l . +X+X+X+X+X+X+X+X+X",
"+X+X+X+X+X+X+X+X+X+X. k }.XXXXXXXXXXXXXXXXXXXXXXXXXXXXXXXXXXXXXXXXXXoX}.{./.d . +X+X+X+X+X+X+X+X+X+X",
"+X+X+X+X+X+X+X+X+X+X+X  s (.XXXXXXXXXXXXXXXXXXXXXXXXXXXXXXXXXXXXXXoX X{.F.a   +X+X+X+X+X+X+X+X+X+X+X",
"+X+X+X+X+X+X+X+X+X+X+X+X+X- Z.}.XXXXXXXXXXXXXXXXXXXXXXXXXXXXXXXXXX X).V.-   +X+X+X+X+X+X+X+X+X+X+X+X",
"+X+X+X+X+X+X+X+X+X+X+X+X+X+X. a S.}.XXXXXXXXXXXXXXXXXXXXXXXXXXXX).A.> . +X+X+X+X+X+X+X+X+X+X+X+X+X+X",
"+X+X+X+X+X+X+X+X+X+X+X+X+X+X+X+XX : z F.{.oXXXXXXXXXXXXXoX{.G.z : X +X+X+X+X+X+X+X+X+X+X+X+X+X+X+X+X",
"+X+X+X+X+X+X+X+X+X+X+X+X+X+X+X+X+X+X  X ; s k z V.V.z k s : X   +X+X+X+X+X+X+X+X+X+X+X+X+X+X+X+X+X+X",
"+X+X+X+X+X+X+X+X+X+X+X+X+X+X+X+X+X+X+X+X+X+X+X        +X+X+X+X+X+X+X+X+X+X+X+X+X+X+X+X+X+X+X+X+X+X+X",
"+X+X+X+X+X+X+X+X+X+X+X+X+X+X+X+X+X+X+X+X+X+X+X+X+X+X+X+X+X+X+X+X+X+X+X+X+X+X+X+X+X+X+X+X+X+X+X+X+X+X",
"+X+X+X+X+X+X+X+X+X+X+X+X+X+X+X+X+X+X+X+X+X+X+X+X+X+X+X+X+X+X+X+X+X+X+X+X+X+X+X+X+X+X+X+X+X+X+X+X+X+X"
};
