/* XPM */
static char *c757d5f4f604419b89e8501ed2e9096eH8eRKlxZlSk7CiYA[] = {
/* columns rows colors chars-per-pixel */
"50 50 142 2 ",
"   c None",
".  c #010101",
"X  c #090602",
"o  c #0C0A05",
"O  c #070708",
"+  c #070809",
"@  c #0A0B0B",
"#  c #140E04",
"$  c #100D08",
"%  c #161007",
"&  c #151008",
"*  c #1B150B",
"=  c #161616",
"-  c #171818",
";  c #1C1C1C",
":  c #2C2312",
">  c #322611",
",  c #332915",
"<  c #382D18",
"1  c #3F3015",
"2  c #3F3218",
"3  c #222222",
"4  c #2F2B24",
"5  c #282828",
"6  c #343434",
"7  c #363A3D",
"8  c #3B3B3B",
"9  c #4C3514",
"0  c #42351A",
"q  c #4C3B1C",
"w  c #593F1A",
"e  c #4E3F21",
"r  c #63471D",
"t  c #524121",
"y  c #594725",
"u  c #5D4924",
"i  c #49453E",
"p  c #6E5427",
"a  c #655129",
"s  c #6D562B",
"d  c #6F582D",
"f  c #71592C",
"g  c #796131",
"h  c #3A3E42",
"j  c #434343",
"k  c gray30",
"l  c #4D5257",
"z  c #4E5459",
"x  c #565656",
"c  c #5C5C5C",
"v  c #6F6655",
"b  c #666666",
"n  c #6C6C6C",
"m  c #6F6F70",
"M  c #6F7070",
"N  c #727273",
"B  c #7B7B7B",
"V  c #856029",
"C  c #906628",
"Z  c #966A2A",
"A  c #996C29",
"S  c #806735",
"D  c #8A6E39",
"F  c #8E7139",
"G  c #907137",
"H  c #97763B",
"J  c #97783E",
"K  c #9B7A3B",
"L  c #A3742F",
"P  c #A37A36",
"I  c #AE7D32",
"U  c #B07E33",
"Y  c #827152",
"T  c #B58032",
"R  c #C08735",
"E  c #C38934",
"W  c #CA8E37",
"Q  c #CE9139",
"!  c #D49437",
"~  c #D39439",
"^  c #DD9C3D",
"/  c #A38240",
"(  c #A98644",
")  c #AC8945",
"_  c #B58F46",
"`  c #BD964B",
"'  c #C29A4D",
"]  c #DEA244",
"[  c #CFA452",
"{  c #D0A653",
"}  c #D9AC55",
"|  c #DEB056",
" . c #DEB059",
".. c #E3A645",
"X. c #ECA641",
"o. c #E8AA47",
"O. c #EBAC4A",
"+. c #F3AB41",
"@. c #F2B34D",
"#. c #F8B74F",
"$. c #EAB252",
"%. c #E5B55A",
"&. c #EBBA5C",
"*. c #F3B652",
"=. c #F1BF5F",
"-. c #F2BF5E",
";. c #F2BF5D",
":. c #EFBE60",
">. c #F1BF60",
",. c #F5C25F",
"<. c #F1C061",
"1. c #F3C161",
"2. c #F5C261",
"3. c #F5C261",
"4. c #F7C360",
"5. c #F6C362",
"6. c #F9C460",
"7. c #F9C561",
"8. c #F9C561",
"9. c #FAC661",
"0. c #FBC661",
"q. c #FAC560",
"w. c #FCC761",
"e. c #FCC762",
"r. c #F1C878",
"t. c #858585",
"y. c #888888",
"u. c gray57",
"i. c #9D9D9D",
"p. c gray64",
"a. c #ADADAD",
"s. c #B3B3B3",
"d. c #BBBBBB",
"f. c #EBDCBE",
"g. c #C5C5C5",
"h. c #CCCCCC",
"j. c #D2D2D2",
"k. c #DDDDDD",
"l. c #E4E4E4",
"z. c #E9E9E9",
"x. c #F8F3E9",
"c. c #F6F4F2",
/* pixels */
"                      O . . . . . . . . . . . . . . . . . . . . . . . . . . O                       ",
"                    O # r p d d d d d p d f p d s p d d d d p s d p f v N b = .                     ",
"                    . 9 +.*.%.&.&.>.7.<.&.e.7.&.5.1.:.&.&.&.<.5.,.&.&.f.c.x.i .                     ",
"                    . 9 +.V , : : u &.( t } _ e [ [ 0 : > , ) %.u : : 4 Y r.e .                     ",
"                    . 9 X.9 o t q g &._ o t , : } | a * @ t ` &.g : O 1 K &.e .                     ",
"                    . q X.9 & p g  .7.,.f . $ / w.,.,.y : %.w.7.7.D o ' w.=.e O                     ",
"                    O 9 X.9 . % < [ 3.e./ O * ' 7.,.,.y : %.w.,.3.F $ ' w.=.q .                     ",
"                    . 9 X.9 * C P { =.} < & o u &.&.' 0 * ) %.<.7.G o ` 5.&.q .                     ",
"                    . 9 +.w O o X 0 $.H $ K f & ' ' * . . o J 5.e.J # ' :.<.q .                     ",
"                    . 9 +.W A A Z T +.^ T @.o.I o.@.L A A A ] #.#...U O.#.@.9 .                     ",
"                    O > R ~ ~ ~ ! Q Q ! ~ Q Q Q ~ ! ~ ~ ~ ~ ! ! Q Q ! ! ~ E > O                     ",
"  O . . . . . . . . . X # # # # % # # # # % & # % # # % % # # # # & # # # o . . . . . . O . . . .   ",
". : c m m N N m N n N N N n m n N N N N n N N m ; - b n N M M M M N N n N n N N m N n N N N n b 3 O ",
". z j.k.z.z.z.z.k.l.z.z.z.l.k.z.z.z.z.k.l.z.z.l.8 6 g.l.z.z.k.l.z.z.z.l.l.z.z.z.z.k.l.z.z.z.z.l.b . ",
". c j.k.l.z.z.l.k.k.z.z.z.k.k.l.l.z.l.k.k.z.z.l.8 6 g.k.l.l.k.k.z.z.l.k.k.l.l.z.l.k.k.z.z.l.k.l.b . ",
". c j.k.k.l.k.k.z.l.k.l.k.l.z.k.l.l.k.z.l.k.l.j.7 6 g.j.l.l.l.l.k.l.k.l.z.k.l.l.k.l.l.k.l.k.l.z.b . ",
". c j.l.l.k.k.l.l.z.k.k.l.l.l.l.k.k.z.l.z.k.k.k.k j h.j.k.z.l.z.l.k.l.z.l.z.k.k.z.z.l.l.k.k.z.z.b . ",
". c j.k.l.k.k.l.z.l.k.l.k.z.l.l.k.k.k.z.z.k.k.l.g.d.h.j.l.l.l.l.k.k.k.l.z.k.k.k.l.l.l.k.k.k.l.z.b . ",
". c h.k.k.z.l.l.l.k.l.l.l.k.k.l.z.l.k.l.k.l.z.l.g.s.g.k.z.k.l.k.k.z.l.l.k.k.z.l.k.k.k.l.z.l.k.z.b . ",
". c h.k.l.z.z.l.k.k.l.z.z.k.k.l.l.z.l.k.k.l.z.l.k j g.k.z.l.k.k.z.l.z.k.k.l.l.z.z.k.k.z.l.z.l.k.b . ",
". c j.k.k.l.l.k.l.k.l.z.k.l.l.k.l.z.k.k.l.l.z.j.8 5 g.k.l.k.l.k.l.l.l.k.l.k.l.l.k.l.k.l.l.l.k.z.b . ",
". c j.k.l.k.k.l.l.l.k.k.l.l.l.l.k.k.l.z.l.k.k.k.8 6 g.k.k.l.l.z.k.k.k.l.z.l.k.k.l.l.z.l.k.k.l.z.b . ",
". c j.l.z.k.k.l.z.l.l.k.l.z.l.l.k.k.l.l.z.k.k.k.8 6 g.j.k.z.z.l.l.k.k.z.l.l.k.k.l.l.z.l.k.k.z.z.b . ",
". c j.k.k.l.l.k.l.l.k.l.k.l.l.k.l.l.k.z.l.k.z.j.6 6 d.k.l.k.l.l.k.l.l.k.z.k.l.l.k.z.k.k.z.k.l.z.b . ",
". c h.k.l.z.l.l.k.k.z.l.l.k.k.l.l.z.l.k.k.l.l.k.8 6 g.k.z.l.k.k.l.z.l.k.k.l.l.l.l.k.k.l.z.z.k.l.b . ",
". c h.k.k.z.l.l.k.k.l.z.l.l.k.l.z.l.l.k.l.z.z.k.8 6 g.k.z.z.k.k.l.z.l.k.k.l.z.z.l.k.k.z.l.z.k.l.b . ",
". c j.l.k.k.l.k.l.l.k.l.k.l.l.l.l.l.k.l.s.t.d.k.8 6 g.a.y.a.l.l.k.l.k.l.l.k.k.l.k.z.k.k.l.k.k.z.b . ",
". c h.k.z.k.k.z.z.l.l.k.l.l.z.l.k.k.z.s.; . 3 a.8 6 i.; O - s.z.l.k.k.z.z.l.k.k.l.z.z.l.k.k.z.z.b . ",
". c j.k.l.k.k.l.z.l.k.k.k.l.l.l.k.k.l.B O h O B 8 6 m O h @ B z.k.k.k.l.l.l.k.k.k.z.l.k.k.k.z.z.b . ",
". c h.j.k.z.z.k.k.k.l.z.l.k.l.k.l.l.k.m @ z O N e 7 b @ z @ B l.l.l.z.k.l.k.z.z.k.l.k.l.l.l.k.z.b . ",
". c h.h.l.z.l.l.k.k.z.l.z.k.k.l.l.l.l.m @ z O B j h n @ z @ N l.l.z.z.k.k.l.z.l.l.k.k.z.z.l.l.k.b . ",
". c h.g.k.l.z.k.l.k.l.l.l.l.l.k.l.l.k.n @ z O m h h b @ z @ N l.l.l.l.k.l.k.l.l.k.l.l.k.z.l.k.z.b . ",
". c j.h.j.l.k.l.l.z.k.k.l.z.l.l.k.k.k.N O 7 @ B 8 6 N @ 7 O B z.k.k.k.z.z.l.k.k.l.z.l.k.k.k.z.z.b . ",
". c j.h.j.k.k.z.z.l.k.k.l.l.z.l.k.k.l.p.; . 5 s.8 8 p.3 O 3 d.z.l.k.k.l.l.z.k.k.l.l.z.l.k.l.l.z.b . ",
". c j.h.h.k.l.k.l.l.k.l.k.l.l.k.k.l.k.j.a.u.d.j.8 6 g.p.t.a.l.l.k.l.l.l.l.k.l.l.k.z.k.k.z.k.k.z.b . ",
". c h.g.g.j.l.l.k.k.l.z.z.k.k.l.z.z.l.j.k.z.z.l.8 6 g.j.j.h.k.k.z.l.z.k.k.k.z.l.l.k.k.z.z.z.k.l.b . ",
". c h.g.h.j.k.z.k.k.l.l.l.k.k.l.z.l.l.k.k.l.z.k.8 6 g.h.j.g.j.k.l.z.l.k.k.l.l.z.l.k.k.z.l.z.k.l.b . ",
". c j.h.h.g.h.k.z.l.k.l.k.l.l.k.l.l.k.l.l.k.l.k.6 6 g.h.h.h.h.k.k.l.k.l.z.k.l.l.k.z.l.k.l.k.l.z.b . ",
". c j.h.h.g.g.j.l.z.l.k.l.l.z.l.k.k.z.l.z.l.k.j.8 6 g.g.g.j.h.j.k.k.l.z.z.l.k.k.l.z.z.k.k.k.z.z.b . ",
". c j.h.h.g.h.h.j.l.l.k.k.l.z.l.k.k.k.z.l.k.l.j.8 6 g.g.g.h.j.h.h.k.k.l.l.l.k.k.l.l.z.k.k.k.l.z.b . ",
". c h.h.g.h.j.g.g.j.l.z.l.k.k.k.l.l.k.l.k.l.z.k.8 6 g.h.j.g.h.h.h.j.l.k.l.k.l.l.k.l.k.l.l.l.k.z.b . ",
". c h.g.j.j.h.j.g.h.j.z.z.k.k.z.l.z.z.j.k.z.z.l.8 8 g.h.h.h.g.g.h.j.j.k.k.l.z.z.l.k.k.z.z.l.l.k.b . ",
". c h.h.g.h.j.g.h.h.h.k.k.k.k.k.z.l.k.l.k.l.z.k.8 6 g.j.h.g.g.h.h.j.h.h.k.k.z.l.k.l.k.l.z.l.k.z.b . ",
". c j.j.h.g.g.g.h.h.g.g.g.k.z.l.k.k.l.l.z.k.k.j.6 6 g.g.h.h.j.h.g.g.g.h.j.j.k.k.k.z.z.k.k.k.l.z.b . ",
". c j.h.h.g.g.j.h.j.h.g.g.j.j.k.k.k.z.z.z.l.k.k.8 6 g.g.g.h.j.h.h.g.h.h.h.h.h.j.l.z.z.z.k.l.z.z.b . ",
". c j.h.g.h.j.g.h.h.g.h.h.h.h.g.h.k.k.k.k.k.l.j.8 6 g.h.j.g.h.h.g.j.g.h.j.g.h.h.h.j.k.k.l.k.k.z.b . ",
". c h.g.g.j.j.h.g.h.h.h.j.g.g.h.h.h.j.h.j.k.l.k.8 6 g.h.h.g.h.g.j.h.j.g.g.j.j.h.g.g.g.j.j.k.k.k.b . ",
". x j.h.j.h.j.h.h.h.j.j.h.h.h.j.j.j.h.g.h.h.j.g.8 6 g.j.j.j.h.g.j.j.j.h.g.h.j.j.j.h.h.h.j.j.h.h.x . ",
". - x c c c c c c c c c c c c c c c c c c c c c = = c c c c c c c c c c c c c c c c c c c c c x - O ",
"  O . . . . . . . . . . . . . . . . . . . . . . . . . . . . . . . . . . . . . . . . . . . . . . .   "
};
