/* XPM */
static char *result[] = {
/* columns rows colors chars-per-pixel */
"50 50 232 2 ",
"   c #010101",
".  c #0C0303",
"X  c #170409",
"o  c #1C1514",
"O  c #1C1505",
"+  c #22070B",
"@  c #260113",
"#  c #3B0519",
"$  c #271E16",
"%  c #351208",
"&  c #39281B",
"*  c #372F0C",
"=  c #393638",
"-  c #312C2B",
";  c #511512",
":  c #6C181C",
">  c #4D2408",
",  c #45351C",
"<  c #472C13",
"1  c #520228",
"2  c #4C1029",
"3  c #680828",
"4  c #750C2C",
"5  c #670033",
"6  c #790537",
"7  c #7A1A2C",
"8  c #493726",
"9  c #51382D",
"0  c #44373B",
"q  c #4F3232",
"w  c #702B2D",
"e  c #723215",
"r  c #554512",
"t  c #695815",
"y  c #70522A",
"u  c #695A1E",
"i  c #493D47",
"p  c #762455",
"a  c #474649",
"s  c #545458",
"d  c #4E4E55",
"f  c #755344",
"g  c #795645",
"h  c #7D5B46",
"j  c #7E5C49",
"k  c #6B4F4B",
"l  c #655F66",
"z  c #696970",
"x  c #871B2A",
"c  c #850939",
"v  c #950B3D",
"b  c #9B113C",
"n  c #991832",
"m  c #8C1335",
"M  c #AA1C2F",
"N  c #A31A3B",
"B  c #A51934",
"V  c #B9193D",
"C  c #882325",
"Z  c #9B2929",
"A  c #97252B",
"S  c #993A3A",
"D  c #992939",
"F  c #A8262E",
"G  c #B3252C",
"H  c #B92B29",
"J  c #AC2235",
"K  c #A92537",
"L  c #B52B35",
"P  c #B52835",
"I  c #A63338",
"U  c #BD3334",
"Y  c #B73536",
"T  c #BC302D",
"R  c #AA3217",
"E  c #CA391D",
"W  c #D23F1A",
"Q  c #E23F18",
"!  c #C41D3C",
"~  c #C33322",
"^  c #CA3924",
"/  c #D73527",
"(  c #C82635",
")  c #C43932",
"_  c #D12E2C",
"`  c #A94407",
"'  c #AF4538",
"]  c #B04539",
"[  c #916E3B",
"{  c #99773A",
"}  c #927530",
"|  c #A27938",
" . c #A0673A",
".. c #D64217",
"X. c #DA4615",
"o. c #DB4718",
"O. c #DB5714",
"+. c #EB530C",
"@. c #EE5B0B",
"#. c #E4570C",
"$. c #F55D06",
"%. c #F25A0A",
"&. c #F45808",
"*. c #E14B12",
"=. c #E54518",
"-. c #EC5317",
";. c #F35A10",
":. c #D9671B",
">. c #FE6501",
",. c #FF6800",
"<. c #F76305",
"1. c #F46113",
"2. c #DD4821",
"3. c #D44C34",
"4. c #E54C23",
"5. c #E4502C",
"6. c #FC7A27",
"7. c #F2723D",
"8. c #ED6A30",
"9. c #860045",
"0. c #8C0442",
"q. c #930B41",
"w. c #910543",
"e. c #8B1441",
"r. c #991849",
"t. c #911852",
"y. c #B00F44",
"u. c #95235C",
"i. c #93264B",
"p. c #B23648",
"a. c #AB3757",
"s. c #AF2D47",
"d. c #A73B61",
"f. c #99346B",
"g. c #C31F45",
"h. c #CB3349",
"j. c #815F42",
"k. c #B8494C",
"l. c #84624A",
"z. c #8B6A4C",
"x. c #896742",
"c. c #94724E",
"v. c #927044",
"b. c #9C7A53",
"n. c #987752",
"m. c #A17F55",
"M. c #8C4D7C",
"N. c #A84B71",
"B. c #AE756F",
"V. c #C84C4C",
"C. c #D95045",
"Z. c #D54850",
"A. c #E15E4F",
"S. c #CE6F51",
"D. c #C15D61",
"F. c #D9697B",
"G. c #98831F",
"H. c #AA9316",
"J. c #B9A118",
"K. c #9B842D",
"L. c #A78738",
"P. c #BB9934",
"I. c #B69430",
"U. c #C4A91B",
"Y. c #D8BB1D",
"T. c #C09E32",
"R. c #FE893B",
"E. c #FF812C",
"W. c #CEAE29",
"Q. c #D6B42D",
"!. c #C4A231",
"~. c #CAA832",
"^. c #D0A630",
"/. c #E0BE35",
"(. c #EECF1F",
"). c #FEDC22",
"_. c #F6D426",
"`. c #EECC32",
"'. c #FFE121",
"]. c #B89648",
"[. c #A78557",
"{. c #B6945D",
"}. c #AB894D",
"|. c #FD9755",
" X c #F2874E",
".X c #D7B446",
"XX c #CEA953",
"oX c #E38266",
"OX c #FFAC6A",
"+X c #887EA2",
"@X c #A07FA4",
"#X c #D87693",
"$X c #D17381",
"%X c #928D90",
"&X c #9C99B7",
"*X c #9F9EA4",
"=X c #AA92AE",
"-X c #AAA6BF",
";X c #B0AAB8",
":X c #D28E94",
">X c #DFA89F",
",X c #D99CB4",
"<X c #D493AC",
"1X c #E5B7B1",
"2X c #EEBFAE",
"3X c #DBB09F",
"4X c #FBE0BE",
"5X c #F9CEA9",
"6X c #ACADC6",
"7X c #B6B6CB",
"8X c #BDBED1",
"9X c #B5AFC2",
"0X c #DAB3C6",
"qX c #E5B4C7",
"wX c #BFC2C9",
"eX c #CCCDDB",
"rX c #C8C8D6",
"tX c #D5D3DB",
"yX c #C9C8CA",
"uX c #E8D0D2",
"iX c #D4D3E1",
"pX c #DCDCE5",
"aX c #DBDBE8",
"sX c #E5D9E5",
"dX c #E4E5EE",
"fX c #EDEDEF",
"gX c #F7E6EC",
"hX c #EDEDF4",
"jX c #F1F1F4",
"kX c #FDFDFE",
"lX c #F6F5F9",
"zX c None",
/* pixels */
"zXzXzXzXzXzXzXzXzXzXzXzXj.x.[ zXzXzXzXzXzXzXzXzXzXzXzXzXzXzXzXzXzXzXzXzXzXzXzXzXzXzXzXzXzXzXzXzXzXzX",
"zXzXzXzXzXzXzXzXzXzXzXzXg !.I.9 zXzXzXzXzXzXzXzXzXzXzXzXzXzXzXzXzXzXzXzXzXzXzXzXzXzXzXzXzXzXzXzXzXzX",
"zXzXzXzXzXzXzXzXzXzXzXzXf ~.J.r zXzXzXzXzXzXzXzXzXzXzXzXzXzXzXzXzXzXzXzXzXzXzXzXzXzXzXzXzXzXzXzXzXzX",
"zXzXzXzXzXzXzXzXzXzXzXzXg !.'.W.8 zXzXL.} 9 zXzXzXzXzXzXzXzXzXzXzXzXzXzXzXzXzXzXzXzXzXzXzXzXzXzXzXzX",
"zXzXzXzXzXzXzXzXzXx.{ zXy ~.'.Y.t zXL.Q.H.  zXzXzXzXzXzXzXzXzXzXzXzXzXzXzXzXzXzXzXzXzXzXzXzXzXzXzXzX",
"zXzXzXzXzXzXzXzXf L.(.t 8 L.`.)._.T.`.'.H.  zXzXzXzXzXzXzXzXzXzXzXzXzXzXzXzXzXzXzXzXzXzXzXzXzXzXzXzX",
"zXzXzXzXzXzXzXzXzX{ !._.H.u G.).).).).`.K.. zXzXzXzXzXzXzXzXzXzXzXzXzXzXzXzXzXzXzXzXzXzXzXzXzXzXzXzX",
"zXzXzXzXzXzXzXzXzXzX8 .X`.U.U.).).).`.v.& zXzXzXzXzXzXzXzXzXzXzXzXzXzXzXzXzXzXzXzXzXzXzXzXzXzXzXzXzX",
"zXzXzXzXzXzXzXzXzXzXzX8 ].m.] ' ' ' a.7 5 0.0.0.0.1   zXzXzXzXzXzXzXzXzXzXzXzXzXzXzXzXzXzXzXzXzXzXzX",
"zXzXzXzXzXzXzXzXzXzXzXzXi.N ~ W ..X.T b B X.X.X.~ D C c + zXzXzXzXzXw.v 0.0.6 zXzXzXzXzXzXzXzXzXzXzX",
"zXzXzXzXzXzXzXzXzXzXg.! V : : M ^ %.+.G M <.,.,.<.%.%.X.b c w.v b ! o.*.~ x @ zXzXzXzXzXzXzXzXzXzXzX",
"zXzXzXzXzXzXzXzXzXZ.7.;.&.#.E V b b B B b H +.>.,.<.&.-.( ! ^ +.*.*.3.J : X zXzXzXzXzXzXzXzXzXzXzXzX",
"zXzXzXzXzXzXzXr.V.7.1.,.,.,.>.&.+.B ~ +.&.*.B +.$.Q ( G +.+.1.8.V.a.9Xi . zXzXzXzXzXzXzXzXzXzXzXzXzX",
"zXzXzXzXzXzXw.V.C.( / $.,.>.>.,.,.$.G E >.W v X.E E &.*.&.p.:XuXfXsXyXd zXzXzXzXzXzXzXzXzXzXzXzXzXzX",
"zXzXzXzXzXzXh.h.5.$.>.,.>.,.>.>.>.,.T E W M c ( =.$.o.N.D.uXlXkXlX7X- zXzXzXzXzX( G J M J q.zXzXzXzX",
"zXzXzXzXzXZ. X|.E.,.,.,.>.>.>.>.,.,.,.H B E G @.+.3.:XiXsXlXlXhXiXz 2 + zXzXzX_ &.@.8. X` m zXzXzXzX",
"zXzXzXzXh.|.|.|.1.Q =.>.,.,.,.>.>.,.,.~ v ~ $.X.k.<XkXlXiXeXeXrX*Xe N # @ V T o.X.k.B.%Xo zXzXzXzXzX",
"zXzXzXs.A.|.R.5.A.#XF.4.&.,.,.>.>.>.>.~ G $.W N.=X8XiXdX8X7XiX6Xk @.( # ; Q $.L N.=Xz   zXzXzXzXzXzX",
"zXzX9.Y 6.6.>.A.qXkXgX<XC.&.,.>.>.,.,.~ B E q.=X6X6XeXdXkXkXkXwXk @._ 4 R $...q.@XdX%X  zXzXzXzXzXzX",
"zXzX9.H ,.,.Q 1XwX9XkXlX<X7.>.>.>.,.W M b v +X+X&X6XrXdXkXkXkXdX6XS.] V / +.r.M.9X*Xs zXzXzXzXzXzXzX",
"zXzXy._ ,.$.( qXaXtXkXkXjXoX=.>.>.>.J b J u.9XrXiXrX6X-X7XiXjXlXeXa I V / *.t.-XhXl   zXzXzXzXzXzXzX",
"zXzXy._ >.>.-.>XhXkXkXkXkX#X/ >.>.>.G N L D 0 a *XtXeXsXaXfXlXkXyXo Z P ) T u.sXlXz   zXzXzXzXzXzXzX",
"zXzXr.y./ $.,.C.,XkXkXkXsXF.&.>.,.>.+.^ U K 3 7 q 0 l yXfXjXjXlXyXo Z U J d.0XlXz - zXzXzXzXzXzXzXzX",
"zX9.$X2X>Xs.-.&.5.#XgXgX$X4.>.,.,.>.>.o.Y P 0.P m 4 w 0 0 0 0 0 0 + Z U B f.iXjX0 zXzXzXzXzXzXzXzXzX",
"zX9.k.OX4X1Xd...$.-.h.Z.4.<.,.,.<.@...L K 0.q.v J U T Z A 3 5 6 C C F U K u.&XfXs zXzXzXzXzXzXzXzXzX",
"zX0.1 y OX5Xa.F *.$.1.#.#.+.+.X.L b q.w.0.b L L U L P J 6 + # 1 X # Z ) n p &XaXrXd   zXzXzXzXzXzXzX",
"zXzX  > :.|.6.F H +.O.| { i.m e.b L P m 4 C A I I s.i.i.< * O   X 6 L ) : = 8X6XrXs   zXzXzXzXzXzXzX",
"zXzXzX  < R.R.U b v I ^.Q.P.L.v.I C 3 2 & 8 r [ | ].XX.X(._.G.$ X 9.J ( : = iXlXaXs   zXzXzXzXzXzXzX",
"zXzXzXzX% ` $.,.~ 6 w 9 9 } ~.!.K.- X & z.]._.).J.W.).'.)./.I.9 X 6 y.s.x w 0XjX*Xa zXzXzXzXzXzXzXzX",
"zXzXzXzXzXO R E L 3 & t , 9 g { T.I.v.zXzXz./.~.t t Q.'._.u $   zXzXzX5 x P r.%X= zXzXzXzXzXzXzXzXzX",
"zXzXzXzXzXzXzX0.zXzX[ _.{ zXzXzXx.P.P.L.f j b.l.zXzX[ T..X* zXzXzXzXzXzX% 7 N X zXzXzXzXzXzXzXzXzXzX",
"zXzXzXzXzXzXzXzXzXzXx..Xv.zXzXzXzXzXL.P.L.g zXzXzXzXzXj b.$   zXzXzXzXzXzX+ ; . zXzXzXzXzXzXzXzXzXzX",
"zXzXzXzXzXzXzXzXzXzXl.n.[.c.zXzXzXzXf P.Q.g zXzXzXzXzXzXzXzXzXzXzXzXzXzXzXzXzXzXzXzXzXzXzXzXzXzXzXzX",
"zXzXzXzXzXzXzXzXzXzXzXg {.n.f zXzXzXf }.].h zXzXzXzXzXzXzXzXzXzXzXzXzXzXzXzXzXzXzXzXzXzXzXzXzXzXzXzX",
"zXzXzXzXzXzXzXzXzXzXzXzXz.[.[.f zXzXzXl.}.!.x.zXzXzXzXzXzXzXzXzXzXzXzXzXzXzXzXzXzXzXzXzXzXzXzXzXzXzX",
"zXzXzXzXzXzXzXzXzXzXzXzXf [.[.g zXzXzXzXv.XXh zXzXzXzXzXzXzXzXzXzXzXzXzXzXzXzXzXzXzXzXzXzXzXzXzXzXzX",
"zXzXzXzXzXzXzXzXzXzXzXzXzXl.b.[.g zXzXzXc.{.l.zXzXzXzXzXzXzXzXzXzXzXzXzXzXzXzXzXzXzXzXzXzXzXzXzXzXzX",
"zXzXzXzXzXzXzXzXzXzXzXzXzXzXzXl.g zXzXzXzXc.{.c.zXzXzXzXzXzXzXzXzXzXzXzXzXzXzXzXzXzXzXzXzXzXzXzXzXzX",
"zXzXzXzXzXzXzXzXzXzXzXzXzXzXzXzXzXzXzXzXzXl.{.{.b.z.z.zXzXzXzXzXzXzXzXzXzXzXzXzXzXzXzXzXzXzXzXzXzXzX",
"zXzXzXzXzXzXzXzXzXzXzXzXzXzXzXzXzXzXzXzXzXzXj j b.{.b.g zXzXzXzXzXzXzXzXzXzXzXzXzXzXzXzXzXzXzXzXzXzX",
"zXzXzXzXzXzXzXzXzXzXzXzXzXzXzXzXzXzXzXzXzXzXzXzXzXg g f zXzXzXzXzXzXzXzXzXzXzXzXzXzXzXzXzXzXzXzXzXzX",
"zXzXzXzXzXzXzXzXzXzXzXzXzXzXzXzXzXzXzXzXzXzXzXzXzXzXzXzXzXzXzXzXzXzXzXzXzXzXzXzXzXzXzXzXzXzXzXzXzXzX",
"zXzXzXzXzXzXzXzXzXzXzXzXzXzXzXzXzXzXzXzXzXzXzXzXzXzXzXzXzXzXzXzXzXzXzXzXzXzXzXzXzXzXzXzXzXzXzXzXzXzX",
"zXzXzXzXzXzXzXzXzXzXzXzXzXzXzXzXzXzXzXzXzXzXzXzXzXzXzXzXzXzXzXzXzXzXzXzXzXzXzXzXzXzXzXzXzXzXzXzXzXzX",
"zXzXzXzXzXzXzXzXzXzXzXzXzXzXzXzXzXzXzXzXzXzXzXzXzXzXzXzXzXzXzXzXzXzXzXzXzXzXzXzXzXzXzXzXzXzXzXzXzXzX",
"zXzXzXzXzXzXzXzXzXzXzXzXzXzXzXzXzXzXzXzXzXzXzXzXzXzXzXzXzXzXzXzXzXzXzXzXzXzXzXzXzXzXzXzXzXzXzXzXzXzX",
"zXzXzXzXzXzXzXzXzXzXzXzXzXzXzXzXzXzXzXzXzXzXzXzXzXzXzXzXzXzXzXzXzXzXzXzXzXzXzXzXzXzXzXzXzXzXzXzXzXzX",
"zXzXzXzXzXzXzXzXzXzXzXzXzXzXzXzXzXzXzXzXzXzXzXzXzXzXzXzXzXzXzXzXzXzXzXzXzXzXzXzXzXzXzXzXzXzXzXzXzXzX",
"zXzXzXzXzXzXzXzXzXzXzXzXzXzXzXzXzXzXzXzXzXzXzXzXzXzXzXzXzXzXzXzXzXzXzXzXzXzXzXzXzXzXzXzXzXzXzXzXzXzX",
"zXzXzXzXzXzXzXzXzXzXzXzXzXzXzXzXzXzXzXzXzXzXzXzXzXzXzXzXzXzXzXzXzXzXzXzXzXzXzXzXzXzXzXzXzXzXzXzXzXzX"
};
