/* XPM */
static char *result[] = {
/* columns rows colors chars-per-pixel */
"50 50 238 2 ",
"   c #010101",
".  c #0D0B07",
"X  c #190609",
"o  c #1B1816",
"O  c #1C1B0F",
"+  c #2A0A0D",
"@  c #360F0E",
"#  c #31170D",
"$  c #322814",
"%  c #3F0A21",
"&  c #2C2C2D",
"*  c #373537",
"=  c #461903",
"-  c #491413",
";  c #531516",
":  c #671A1D",
">  c #771F1E",
",  c #433910",
"<  c #54321B",
"1  c #5B0429",
"2  c #420022",
"3  c #65072B",
"4  c #671121",
"5  c #730A34",
"6  c #50342E",
"7  c #772123",
"8  c #6B2E2F",
"9  c #67321F",
"0  c #786713",
"q  c #66493C",
"w  c #7A5B39",
"e  c #6B512F",
"r  c #615326",
"t  c #781C44",
"y  c #49484A",
"u  c #535353",
"i  c #5B575D",
"p  c #594F5D",
"a  c #6E4E41",
"s  c #755344",
"d  c #7D5B45",
"f  c #785644",
"g  c #684A51",
"h  c #575364",
"j  c #616167",
"k  c #7E7C7C",
"l  c #6F6F71",
"z  c #625869",
"x  c #882D0F",
"c  c #AD3B16",
"v  c #841A27",
"b  c #960D3D",
"n  c #9B0E3A",
"m  c #8C1339",
"M  c #9C133C",
"N  c #971939",
"B  c #8D1331",
"V  c #A10F3D",
"C  c #A01436",
"Z  c #A61837",
"A  c #B01B33",
"S  c #99282A",
"D  c #862423",
"F  c #AA292D",
"G  c #B4252C",
"H  c #BA2A2A",
"J  c #AC2439",
"K  c #AC2635",
"L  c #B42B35",
"P  c #B72634",
"I  c #A93435",
"U  c #B63533",
"Y  c #AE3B2D",
"T  c #CD3C1D",
"R  c #D83F1E",
"E  c #D32F2C",
"W  c #C33223",
"Q  c #C53827",
"!  c #DA3B24",
"~  c #C82434",
"^  c #D13335",
"/  c #B34309",
"(  c #8E5536",
")  c #BB5825",
"_  c #8D6C3D",
"`  c #9E7B3C",
"'  c #976B37",
"]  c #A27E39",
"[  c #B46C31",
"{  c #98501C",
"}  c #DA4516",
"|  c #DE4914",
" . c #D44119",
".. c #DC4A19",
"X. c #C5530D",
"o. c #E44F0E",
"O. c #EC530C",
"+. c #EB550D",
"@. c #F45C09",
"#. c #F75D06",
"$. c #E24C12",
"%. c #EB4C12",
"&. c #E5471C",
"*. c #E45318",
"=. c #F15611",
"-. c #FE6501",
";. c #FF6901",
":. c #F86206",
">. c #EF6811",
",. c #D7452A",
"<. c #C94632",
"1. c #D54836",
"2. c #CF4B30",
"3. c #E24724",
"4. c #EB6928",
"5. c #FB7723",
"6. c #F46C26",
"7. c #D97018",
"8. c #850043",
"9. c #8D0745",
"0. c #940841",
"q. c #991444",
"w. c #811445",
"e. c #AE1346",
"r. c #8A2E42",
"t. c #A52746",
"y. c #B83B47",
"u. c #AE3655",
"i. c #C72B48",
"p. c #C7394D",
"a. c #815F42",
"s. c #904146",
"d. c #B84652",
"f. c #896747",
"g. c #906E4E",
"h. c #93714F",
"j. c #9D7B53",
"k. c #977551",
"l. c #AC764E",
"z. c #AC4E72",
"x. c #83787F",
"c. c #926A7D",
"v. c #A26C7F",
"b. c #8B4D7A",
"n. c #C6484C",
"m. c #D64648",
"M. c #D05451",
"N. c #E25D4D",
"B. c #D76F4D",
"V. c #EC7251",
"C. c #D35367",
"Z. c #CD4B67",
"A. c #DD727A",
"S. c #AA9317",
"D. c #A58E19",
"F. c #A88637",
"G. c #B79835",
"H. c #A9872F",
"J. c #E78014",
"K. c #D1B51C",
"L. c #CB8431",
"P. c #C29C31",
"I. c #FF8D3F",
"U. c #CBAC29",
"Y. c #D7B729",
"T. c #C6A532",
"R. c #DAB83A",
"E. c #D5AA3A",
"W. c #F7D61F",
"Q. c #E9C825",
"!. c #FEDC22",
"~. c #FCDA2B",
"^. c #F5D227",
"/. c #EAC936",
"(. c #FFE222",
"). c #A38156",
"_. c #A98757",
"`. c #B18F59",
"'. c #BE9C5F",
"]. c #C59155",
"[. c #FE9754",
"{. c #FD8D47",
"}. c #C99D6C",
"|. c #E49077",
" X c #D3A278",
".X c #787985",
"XX c #76768A",
"oX c #8E6690",
"OX c #BB6C8B",
"+X c #B46C94",
"@X c #C1768B",
"#X c #86868B",
"$X c #9B9A9D",
"%X c #BCA48A",
"&X c #9594AA",
"*X c #AD8FAF",
"=X c #A3A3BE",
"-X c gray67",
";X c #D58B96",
":X c #E28E9D",
">X c #EF9F8E",
",X c #CA91A8",
"<X c #E29DB6",
"1X c #D6B5BF",
"2X c #CAA9BE",
"3X c #E8AFB5",
"4X c #DBB895",
"5X c #FBC39D",
"6X c #FFE8BE",
"7X c #EBD2B0",
"8X c #ABACC5",
"9X c #A7A7C1",
"0X c #B5ADC4",
"qX c #B7B7CC",
"wX c #BDBED2",
"eX c #D8BACC",
"rX c #C3C3D5",
"tX c #CBCCDB",
"yX c #C8C7D5",
"uX c #D2D2D5",
"iX c #E9D1D9",
"pX c #DCDCE4",
"aX c #D8D8E4",
"sX c #CECEE0",
"dX c #EDDDE4",
"fX c #DFE0E6",
"gX c #E5E5ED",
"hX c #ECECED",
"jX c #E8E2EA",
"kX c #F3E4EA",
"lX c #F2E8EC",
"zX c #EBECF2",
"xX c #E7E8F0",
"cX c #F6ECF1",
"vX c #F2F2F6",
"bX c #FEFEFE",
"nX c #F8F5F8",
"mX c None",
/* pixels */
"mXmXmXmXmXmXmXmXmXmXmXmXmXmXmXmXmXmXmXmXmXmXmXmXmXmXmXmXmXmXmXmXmXmXmXmXmXmXmXmXmXmXmXmXmXmXmXmXmXmX",
"mXmXmXmXmXmXmXmXmXmXmXmXmXmXmXmXmXmXmXmXmXmXmXmXmXmXmXmXmXmXmXmXmXmXmXmXmXmXmXmXmXmXmXmXmXmXmXmXmXmX",
"mXmXmXmXmXmXmXmXmXmXmXmXmXmXmXmXmXmXmXmXmXmXmXmXmXmXmXmXmXmXmXmXmXmXmXmXmXmXmXmXmXmXmXmXmXmXmXmXmXmX",
"mXmXmXmXmXmXmXmXmXmXmXmXmXmXmXmXmXmXmXmXmXmXmXmXmXmXmXmXmXmXmXmXmXmXmXmXmXmXmXmXmXmXmXmXmXmXmXmXmXmX",
"mXmXmXmXmXmXmXmXmXmXmXmXmXmXmXmXmXmXmXmXmXmXmXmXmXmXmXmXmXmXmXmXmXmXmXmXmXmXmXmXmXmXmXmXmXmXmXmXmXmX",
"mXmXmXmXmXmXmXmXmXmXmXmXmXmXmXmXmXmXmXmXmXmXmXmXmXmXmXmXmXmXmXmXmXmXmXmXmXmXmXmXmXmXmXmXmXmXmXmXmXmX",
"mXmXmXmXmXmXmXmXmXmXmXmXmXmXmXmXmXmXmXmXmXmXmXmXmXmXmXmXmXmXmXmXmXmXmXmXmXmXmXmXmXmXmXmXmXmXmXmXmXmX",
"mXmXmXmXmXmXmXmXmXmXmXmXmXmXmXmXmXmXmXmXmXmXmXmXmXmXmXmXmXmXmXmXmXmXmXmXmXmXmXmXmXmXmXmXmXmXmXmXmXmX",
"mXmXmXmXmXmXmXmXmXmXmXmXmXmXmXmXmXmXmXmXmXmXmXmXmXmXmXmXmXmXmXmXmXmXmXmXmXmXmXmXmXmXmXmXmXmXmXmXmXmX",
"mXmXmXmXmXmXmXmXmXmXmXmXs f mXmXmXmXmXmXmXmXmXmXmXmXmXmXmXmXmXmXmXmXmXmXmXmXmXmXmXmXmXmXmXmXmXmXmXmX",
"mXmXmXmXmXmXmXmXmXmXmXmXs G.G.q mXmXmXmXmXmXmXmXmXmXmXmXmXmXmXmXmXmXmXmXmXmXmXmXmXmXmXmXmXmXmXmXmXmX",
"mXmXmXmXmXmXmXmXmXmXmXmXs U.S.$ mXmXmXmXmXmXmXmXmXmXmXmXmXmXmXmXmXmXmXmXmXmXmXmXmXmXmXmXmXmXmXmXmXmX",
"mXmXmXmXmXmXmXmXmXmXmXmXf T.^.U.q mXmXf.w q mXmXmXmXmXmXmXmXmXmXmXmXmXmXmXmXmXmXmXmXmXmXmXmXmXmXmXmX",
"mXmXmXmXmXmXmXmXmXa.' mXs T.(.K., mX_ U.S.. mXmXmXmXmXmXmXmXmXmXmXmXmXmXmXmXmXmXmXmXmXmXmXC Z n 8.mX",
"mXmXmXmXmXmXmXmXs ] Y., 6 G.~.~.Q.F.Y.(.S.  mXmXmXmXmXmXmXmXmXmXmXmXmXmXmXmXmXmXmXmX~ ~ G T } G 8.mX",
"mXmXmXmXmXmXmXmXmX` Y.W.0 0 G.(.!.~.!.~.H.  mXmXmXmXmXmXmXmXmXmXmXmXmXmXmXmXmXmXmXE ,.$. .z.t 1 mXmX",
"mXmXmXmXmXmXmXmXmXmXr /.~.S.S.~.(.!.~.`.r mXmXmXmXmXmXmXmXmXmXmXmXmXmXmXmXmXmXmXE &.Q t.OXkX$Xy mXmX",
"mXmXmXmXmXmXmXmXmXmXO w E.E.L.7.L.L.l.8 2 mXmXmXmXmXmXmXmXmXmXmXmXmXmXmXmXmXmXe.%.T u.,XnXbXbXk   mX",
"mXmXmXmXmXmXmXmXmXmXn 1 s.u.G W W W G 0.n W W W K v 4 8.mXmXmXmXmXmXmXmXmXmXA W } Z +XbXxXyXyXj   mX",
"mXmXmXmXmXmXmXmXn.N.N.N.,.> > W ..:.@.G F -.;.;.@.*...W V 5 5 1 mXmXmXmXmXmXe.@.H z.*XqX9X8XrXj   mX",
"mXmXmXmXmXmX9.n.M.m.m.5.;.X./ W C K H C n H #.-.;.-.-.-.%.&.E M : X mXmXmX~  . .q.oX8XqXaXzXnXk   mX",
"mXmXmXmXmXmXe.i.,.%.=.-.-.-.-.-.R b H | |  .G O.-.;.-.;.;.;.#.! G c # 1 0.q.Z b b.0XgXnXbXbX#X* mXmX",
"mXmXmXmXmXi.V.V.6.-.-.#.,.i.3.-.-.$.H R ;.o.n O.;.-.-.-.:.#.:.} V G C c } Q B % &XlXbXbXbXnXu mXmXmX",
"mXmXmXmXp.V.[.[.5.-.-.p.<XdX:X1.#.-.G W | Z N o.-.-.#.O.G A ~ ! o.| %.,.U v - 5 eXnXbXbXbXbXu   mXmX",
"mXmXmXe.m.[.{.5.;.-.4.1XaXnXnX3Xp.#.#.W G O.+.G R  .K E o.*.$.*.6.M.d.,Xk = X.q.eXbXbXbXbXbXu   mXmX",
"mXmX8.y.{.I.5.;.-.%.Z.kX$XyXbXnX1X4.-.T G O.-.$.E R @.+.o.1.d.OXuXkXdXuXk ; $.q.*XzXbXbXbXbXu mXmXmX",
"mXmX9.P =.@.-.-.;.%.M.cXvXnXbXbXkXp.%.-.} N } G | @.*.M.z.2XhXnXbXbXuXj : U H 5 oXrXzXnXbXbXl o mXmX",
"mX0.u.Z.C.C.&.#.;.-.6.,XcXbXbXbXkXp.O.-. .b G O.O.Q +XcXcXgXpXgXvXxX#Xs.F D Y - p &X8XrXpXzXfX#X* mX",
"mXC.>X4X%X5XA.1.+.;.#.^ :XkXbXkX;X>.-.;.} M ..R d.+XqXaXjXrXqXrXaX-X8 S 4 + K L + .XwX=X=X0XtXrXXX  ",
"e.3X X< # ' 7X;Xn.$.-.-.&.A.<X;X! -.-.%.W q.t.z.*X8X8XrXfXnXbXbXfXz t.D - X 1 K : p &XtXtX8X9X9Xl   ",
"9.>Xe     .  X6X@Xn $.-.#.%.R $.-.-.;.W q.J 9.&X&X&X8XyXgXbXbXbXpXp I @   mX+ N L D 6 #XfXxXxXzX$X  ",
"8.y.{ = X : 9  X|.y.P #.-.-.>.) ) :.;.W q.L t.*XwXrXwX8X=XqXaXzXnX0XoX6 mXmXmXmXC K S 8 x.hXbXbX-X  ",
"mX8.1.{ # H > 9 [ B.b ,.#.;.J.T.P.[ @.+.Q L N g j $XpXsXtXtXpXzXbXgXh mXmXmXmXmXmXM K I 7 z.+Xc.u mX",
"mXmXt.Y x - - ( B.B.9.M H +.7.F.F.T.[ ) Q b 8.3 4 8 y i yXzXbXbXbXhX& mXmXmXmXmXmXmX1 - - B J D ;   ",
"mXmXmXC F / [ 4.2.N J K M Z N w.r.' T.H.r.w.Z K U F v 7 * y #XaXhXpX& mXmXmXmXmXmXmXmXmXmX@ @ @ +   ",
"mXmXmXmXmXC t.J : % m L L J M b J U ' T.T.s.I U U J q.m X . o & * * . mXmXmXmXmXmXmXmXmXmXmXmXmXmXmX",
"mXmXmXmXmXmXa L.] 6 X + 5 m m N F F q H.E.w # ( f.l.].].U.K.0 . mXmXmXmXmXmXmXmXmXmXmXmXmXmXmXmXmXmX",
"mXmXmXmXmXmX_ U.G.a mXmX. X X X + X X 6 F.Y.w Y.K.Y.~.~.(.^.T.e   mXmXmXmXmXmXmXmXmXmXmXmXmXmXmXmXmX",
"mXmXmXmXmXd Y.H.w mXmXmXmXmXmXmXmXmXmXq F.Q.f.U.0 0 Q.!.!.' , .   mXmXmXmXmXmXmXmXmXmXmXmXmXmXmXmXmX",
"mXmXmXmXmXf.R.).mXmXmXmXmXmXmXmXmXmXmXw k.R.a.w mXmX` Y./.$   mXmXmXmXmXmXmXmXmXmXmXmXmXmXmXmXmXmXmX",
"mXmXmXmXmXd '.k.mXmXmXmXmXmXmXmXmXmXmXmXg.`.j.mXmXmXmXf._.$   mXmXmXmXmXmXmXmXmXmXmXmXmXmXmXmXmXmXmX",
"mXmXmXmXmXd _.j.g.mXmXmXmXmXmXmXmXmXmXmXmXf.R.f.mXmXmXmXs o mXmXmXmXmXmXmXmXmXmXmXmXmXmXmXmXmXmXmXmX",
"mXmXmXmXmXmXf `.j.s mXmXmXmXmXmXmXmXmXmXmXf.'.f.mXmXmXmXmXmXmXmXmXmXmXmXmXmXmXmXmXmXmXmXmXmXmXmXmXmX",
"mXmXmXmXmXmXf `.).s mXmXmXmXmXmXmXmXmXmXmXf.j.).g.s mXmXmXmXmXmXmXmXmXmXmXmXmXmXmXmXmXmXmXmXmXmXmXmX",
"mXmXmXmXmXd ).j.g.mXmXmXmXmXmXmXmXmXmXmXmXmXmXk.)._.j.d f mXmXmXmXmXmXmXmXmXmXmXmXmXmXmXmXmXmXmXmXmX",
"mXmXmXmXmXd h.f.mXmXmXmXmXmXmXmXmXmXmXmXmXmXmXmXg.j.j._._.f.mXmXmXmXmXmXmXmXmXmXmXmXmXmXmXmXmXmXmXmX",
"mXmXmXmXmXmXmXmXmXmXmXmXmXmXmXmXmXmXmXmXmXmXmXmXmXmXmXh.h.d s mXmXmXmXmXmXmXmXmXmXmXmXmXmXmXmXmXmXmX",
"mXmXmXmXmXmXmXmXmXmXmXmXmXmXmXmXmXmXmXmXmXmXmXmXmXmXmXmXmXmXmXmXmXmXmXmXmXmXmXmXmXmXmXmXmXmXmXmXmXmX",
"mXmXmXmXmXmXmXmXmXmXmXmXmXmXmXmXmXmXmXmXmXmXmXmXmXmXmXmXmXmXmXmXmXmXmXmXmXmXmXmXmXmXmXmXmXmXmXmXmXmX",
"mXmXmXmXmXmXmXmXmXmXmXmXmXmXmXmXmXmXmXmXmXmXmXmXmXmXmXmXmXmXmXmXmXmXmXmXmXmXmXmXmXmXmXmXmXmXmXmXmXmX"
};
