/* XPM */
static char *result[] = {
/* columns rows colors chars-per-pixel */
"50 50 233 2 ",
"   c #010000",
".  c #0C0403",
"X  c #0B0B0A",
"o  c #150507",
"O  c #0F0F10",
"+  c #111112",
"@  c #1D1D1E",
"#  c #1A0F12",
"$  c #240C05",
"%  c #331404",
"&  c #2F0E14",
"*  c #362915",
"=  c #343133",
"-  c #431212",
";  c #4B170C",
":  c #691B1B",
">  c #473B1A",
",  c #503217",
"<  c #682A00",
"1  c #7F3301",
"2  c #712A11",
"3  c #540D2C",
"4  c #740C29",
"5  c #6A0035",
"6  c #770437",
"7  c #711431",
"8  c #462B24",
"9  c #4B362B",
"0  c #543A35",
"q  c #693724",
"w  c #712830",
"e  c #655514",
"r  c #7F6E11",
"t  c #6B5130",
"y  c #77642F",
"u  c #5D4932",
"i  c #3F4148",
"p  c #4E4E55",
"a  c gray31",
"s  c #7F4C44",
"d  c #755344",
"f  c #785644",
"g  c #7C5A44",
"h  c #62565E",
"j  c #5C5E66",
"k  c #6F6C73",
"l  c #91300E",
"z  c #A53B06",
"x  c #B93714",
"c  c #B43917",
"v  c #970D3D",
"b  c #9C113C",
"n  c #9A1438",
"m  c #8D1236",
"M  c #A51B34",
"N  c #A71937",
"B  c #B21B33",
"V  c #942729",
"C  c #942037",
"Z  c #88342A",
"A  c #B92B29",
"S  c #B8272A",
"D  c #AA2639",
"F  c #B52B36",
"G  c #B93738",
"H  c #AB3031",
"J  c #CC3A1D",
"K  c #C7341D",
"L  c #D63E1B",
"P  c #E13F1A",
"I  c #C31C3A",
"U  c #C43422",
"Y  c #C5392A",
"T  c #D73824",
"R  c #C92732",
"E  c #CC2F31",
"W  c #B94508",
"Q  c #875331",
"!  c #B55137",
"~  c #B95734",
"^  c #967A2D",
"/  c #91693E",
"(  c #99753C",
")  c #87722F",
"_  c #AC612B",
"`  c #A67D2E",
"'  c #857313",
"]  c #C84B06",
"[  c #D3431A",
"{  c #DA4617",
"}  c #D44C0B",
"|  c #E94C0F",
" . c #EB540B",
".. c #EB550C",
"X. c #F45D06",
"o. c #F3560B",
"O. c #F45A0A",
"+. c #F85D05",
"@. c #E24C12",
"#. c #E74717",
"$. c #E85011",
"%. c #F15A14",
"&. c #D76416",
"*. c #FE6501",
"=. c #FF6800",
"-. c #FA750D",
";. c #FE731A",
":. c #E6650D",
">. c #D84628",
",. c #D14F31",
"<. c #E14931",
"1. c #CE672E",
"2. c #FD7826",
"3. c #EB682E",
"4. c #850044",
"5. c #8C0244",
"6. c #890C44",
"7. c #970742",
"8. c #971648",
"9. c #A60843",
"0. c #AE1844",
"q. c #9A2851",
"w. c #A72448",
"e. c #B0314F",
"r. c #94356A",
"t. c #CA3149",
"y. c #C73748",
"u. c #CC3044",
"i. c #844542",
"p. c #815E45",
"a. c #AC4756",
"s. c #85634A",
"d. c #8A6849",
"f. c #94714F",
"g. c #9D7B43",
"h. c #997752",
"j. c #8F4B6F",
"k. c #B04F70",
"l. c #816672",
"z. c #B57C53",
"x. c #C5494C",
"c. c #D2485A",
"v. c #D2504C",
"b. c #EA6C4E",
"n. c #E77752",
"m. c #ED6F51",
"M. c #D7706B",
"N. c #D6687B",
"B. c #D8727D",
"V. c #CF6D72",
"C. c #C95270",
"Z. c #958015",
"A. c #A78538",
"S. c #B48E36",
"D. c #BD9B33",
"F. c #BB9030",
"G. c #B39726",
"H. c #AA9316",
"J. c #C3A91D",
"K. c #D0B41B",
"L. c #FE8639",
"P. c #C7A62D",
"I. c #D3B12D",
"U. c #DEBC2B",
"Y. c #C7A535",
"T. c #D8B534",
"R. c #EFCF1F",
"E. c #E7C528",
"W. c #FEDD23",
"Q. c #F7D527",
"!. c #EECB31",
"~. c #FFE221",
"^. c #AF8D45",
"/. c #A78557",
"(. c #B18F5C",
"). c #B6944F",
"_. c #BC9A60",
"`. c #8E816C",
"'. c #DE8246",
"]. c #FF9349",
"[. c #FA8E54",
"{. c #D4AC51",
"}. c #CBA943",
"|. c #CC9D67",
" X c #C3A163",
".X c #E89372",
"XX c #E5C343",
"oX c #777781",
"OX c #95708B",
"+X c #B47190",
"@X c #D25F81",
"#X c #D37E97",
"$X c #8B8B94",
"%X c #92939D",
"&X c #81818C",
"*X c #9394A3",
"=X c #9697B5",
"-X c #9488AA",
";X c #B08DAF",
":X c #9FA0A4",
">X c #A6A6B8",
",X c #B7B8BC",
"<X c #A2A3A9",
"1X c #D38B96",
"2X c #EF9F8E",
"3X c #E7B78A",
"4X c #D292AB",
"5X c #E9AEB1",
"6X c #D5B09B",
"7X c #FFD19F",
"8X c #F2D0B5",
"9X c #FFE5BC",
"0X c #AAABC3",
"qX c #B9B9CB",
"wX c #E8B9C9",
"eX c #C8B5CA",
"rX c #BEC2D0",
"tX c #C7C6D7",
"yX c #D6D6DE",
"uX c #CFD0D8",
"iX c #E8C6D4",
"pX c #E7C0C4",
"aX c #D9D9E4",
"sX c #D8D7E3",
"dX c #F3DDE6",
"fX c #E7D8E4",
"gX c #E3E3EC",
"hX c #E7E9EA",
"jX c #EDEEF4",
"kX c #FEFEFE",
"lX c #F6F4F7",
"zX c #F9EDF3",
"xX c None",
/* pixels */
"xXxXxXxXxXxXxXxXxXxXxXxXxXxXxXxXxXxXxXxXxXxXxXxXxXxXxXxXxXxXxXxXxXxXxXxXxXxXxXxXxXxXxXxXxXxXxXxXxXxX",
"xXxXxXxXxXxXxXxXxXxXxXxXxXxXxXxXxXxXxXxXxXxXxXxXxXxXxXxXxXxXxXxXxXxXxXxXxXxXxXxXxXxXxXxXxXxXxXxXxXxX",
"xXxXxXxXxXxXxXxXxXxXxXxXxXxXxXxXxXxXxXxXxXxXxXxXxXxXxXxXxXxXxXxXxXxXxXxXxXxXxXxXxXxXxXxXxXxXxXxXxXxX",
"xXxXxXxXxXxXxXxXxXxXxXxXxXxXxXxXxXxXxXxXxXxXxXxXxXxXxXxXxXxXxXxXxXxXxXxXxXxXxXxXxXxXxXxXxXxXxXxXxXxX",
"xXxXxXxXxXxXxXxXxXxXxXxXxXxXxXxXxXxXxXxXxXxXxXxXxXxXxXxXxXxXxXxXxXxXxXxXxXxXxXxXxXxXxXxXxXxXxXxXxXxX",
"xXxXxXxXxXxXxXxXxXxXxXxXxXxXxXxXxXxXxXxXxXxXxXxXxXxXxXxXxXxXxXxXxXxXxXxXxXxXxXxXxXxXxXxXxXxXxXxXxXxX",
"xXxXxXxXxXxXxXxXxXxXxXxXxXxXxXxXxXxXxXxXxXxXxXxXxXxXxXxXxXxXxXxXxXxXxXxXxXxXxXxXxXxXxXxXxXxXxXxXxXxX",
"xXxXxXxXxXxXxXxXxXxXxXxXxXxXxXxXxXxXxXxXxXxXxXxXxXxXxXxXxXxXxXxXxXxXxXxXxXxXxXxXxXxXxXxXxXxXxXxXxXxX",
"xXxXxXxXxXxXxXxXxXxXxXxXxXxXxXxXxXxXxXxXxXxXxXxXxXxXxXxXxXxXxXxXxXxXxXxXxXxXxXxXxXxXxXxXxXxXxXxXxXxX",
"xXxXxXxXxXxXxXxXxXxXxXxXxXxXxXxXxXxXxXxXxXxXxXxXxXxXxXxXxXxXxXxXxXxXxXxXxXxXxXxXxXxXxXxXxXxXxXxXxXxX",
"xXxXxXxXxXxXxXxXxXxXxXxXxXxXxXxXxXxXxXxXxXxXxXxXxXxXxXxXxXxXxXxXxXxXxXxXxXxXxXxXxXxXxXxXxXxXxXxXxXxX",
"xXxXxXxXxXxXxXxXxXxXxXxXxXxXxXxXxXxXxXxXxXxXxXxXxXxXxXxXxXxXxXxXxXxXxXxXxXxXxXxXxXxXxXxXxXxXxXxXxXxX",
"xXxXxXxXxXxXxXxXxXxXxXf s.xXxXxXxXxXxXxXxXxXxXxXxXxXxXxXxXxXxXxXxXxXxXxXxXxXxXxXxXxXxXxXxXxXxXxXxXxX",
"xXxXxXxXxXxXxXxXxXxXxXg I.^ 0 xXxXxXxXxXxXxXxXxXxXxXxXxXxXxXxXxXxXxXxXxXxXxXxXxXxXxXxXxXxXxXxXxXxXxX",
"xXxXxXxXxXxXxXxXxXxXxXg U.Z.> xXxXxXxXxXxXxXxXxXxXxXxXxXxXxXxXxXxXxXxXxXxXxXxXxXxXxXxXxXxXxXxXxXxXxX",
"xXxXxXxXxXxXxXxXxXxXxXg U.~.G.9 xXxX( y 9 xXxXxXxXxXxXxXxXxXxXxXxXxXxXxXxXxXxXxXxXxXxXxXxXxXxXxXxXxX",
"xXxXxXxXxXxXxXf d.^ @ y U.~.J.e xXS.E.r   xXxXxXxXxXxXxXxXxXxXxXxX< < $   xXxXxXxXxXxXxXxXxXxXxXxXxX",
"xXxXxXxXxXxXxXf D.K.e 9 Y.Q.~.E.D.Q.W.r   xXxXxXxXxXxXxXxXxXxX% 1 [ z % xXxXxXxXxXxXxXxXxXxXxXxXxXxX",
"xXxXxXxXxXxXxXxXA.I.R.r t P.W.W.~.~.!.y   xXxXxXxXxXxXxXxXxX5 l  .N k i xXxXxXxXxXxXxXxXxXxXxXxXxXxX",
"xXxXxXxXxXxXxXxXxXt XXQ.H.K.W.W.Q.XX/ * xXxXxXxXxXxXxXxXxX9.R x Z 4XzX<Xp xXxXxXxXxXxXxXxXxXxXxXxXxX",
"xXxXxXxXxXxXxXxX4 n x.1.1.! ! ! ! a.7 5 5.6 . xXxXxXxXxX5.L z q *XkXkXgXoX  xXxXxXxXxXxXxXxXxXxXxXxX",
"xXxXxXxXxXxXxXxXx.m.b.m.@.A H { [ [ Y v n J V m 5.4.4.xXv { 1 i aXlXqXtXoX  xXxXxXxXxXxXxXxXxXxXxXxX",
"xXxXxXxXxXxX5.v.v.u.v.;.=.l : S [ X...S B *...@.R B V o & ] c j.qX0XsXaXoX  xXxXxXxXxXxXxXxXxXxXxXxX",
"xXxXxXxXxXxX0.u.<.o.o.+.*.} L J n M M M n A ..=.*.T E z % W [ a.-X=XjXkX$X  xXxXxXxXxXxXxXxXxXxXxXxX",
"xXxXxXxXxXu.m.[.2.=.*.=.+.<.c.v.L M U $. .@.M  .*.*.#.E } [ { [ r.rXfXdXOXo xXxXxXxXxXxXxXxXxXxXxXxX",
"xXxXxXxXt.[.[.].2.*.*.*.x.5XzXwXc.#.M J *.[ v  .=.*. .I +.>.{ U q.wXk.w.8.4.5 xXxXxXxXxXxXxXxXxXxXxX",
"xXxXxX9.t.[.].;.*.*.+.%.5XuXhXkXdXC.N U L M M { O.=.o.E $.$.A 8.D u.{ c C 4 o xXxXxXxXxXxXxXxXxXxXxX",
"xXxX5.7.u.L.-.=.*.*.o.t.wX,X,XkXkXyXn.S M *.X.A U O.*.T B B R T @.{ x.-     xXxXxXxXxXxXxXxXxXxXxXxX",
"xXxX4.7.R | #.#.o.*.+.T pXkXkXkXkXkXN.B A @.*.*.S B L S T o. .,.V.+XeXa @ a xXxXxXxXxXxXxXxXxXxXxXxX",
"xXxXv e.@X#XB.N.v.| *.*.B.iXkXkXkXjXM.#.L N X.*.S N #.*.#.L x.4XlXhX$Xj <X,XO xXxXxXxXxXxXxXxXxXxXxX",
"xXxXV.2X3Xl.3X9X5XM.J +.@.M.wXkXzX#X3.*.{ n X.J U { +.Y 1X4XiXkXuXk w j.;X*XX xXxXxXxXxXxXxXxXxXxXxX",
"xX9.1X6Xq . e .X9X8XV.Y O.#.v.1X#X<.o.*...U U U  .| a.+XhXkXgXtX>X+ n D q.k.k @ xXxXxXxXxXxXxXxXxXxX",
"xX4.M.f.      ; /.7X8X7.{ =.O.P P *.*.*.*. .v U U a.+X0XqXsXtX-Xp xX- V F y.B.w $ xXxXxXxXxXxXxXxXxX",
"xXxXw.H 1 X : w : / .X8.@.*.*.:._ _ :.*.$.B D n k.>X0XqXuXjXgX$X  xXxX& - - % - o xXxXxXxXxXxXxXxXxX",
"xXxX6.e.1.$ V A ; , n.8.{ =.*.-.I.I.A.&.[ 7.F 8.OX=X=X0X0XtXsX$X+ xXxXxXxXxXxXxXxXxXxXxXxXxXxXxXxXxX",
"xXxXxX8.H ] ; % Q '.n.b { X.*.:.( ( P.F.Z 6.F D +XrXsXaXrX0XqXrX%X+ xXxXxXxXxXxXxXxXxXxXxXxXxXxXxXxX",
"xXxXxXxXxXD K _ 3.,.w.F M N M D H s P.D.i.4.v n 3 i h qXqXyXjXjX>X+ xXxXxXxXxXxXxXxXxXxXxXxXxXxXxXxX",
"xXxXxXxXxXxXb 8.C n 6 V m N F D 8.6.i.D.Y.Q D D C 4 3 @ @ %XaXlX>X+ xXxXxXxXxXxXxXxXxXxXxXxXxXxXxXxX",
"xXxXxXxXxXxXxX/ D.` o o : V V V w.5 w D.I.s q.q.q , % X xX+ k <X&XX xXxXxXxXxXxXxXxXxXxXxXxXxXxXxXxX",
"xXxXxXxXxXxXf I.D.y xXxXo o . & 7 8 d D.I.d.{.{.U.Q.J.* xXxXxX+ O   xXxXxXxXxXxXxXxXxXxXxXxXxXxXxXxX",
"xXxXxXxXxXxX( P.S.xXxXxXxXxXxXxXp./.s.D.I.g.Q.W.~.Q.Y.y O xXxXxXxXxXxXxXxXxXxXxXxXxXxXxXxXxXxXxXxXxX",
"xXxXxXxXxXg E.A.d xXxXxXxXxXxXxXxXf f ^.Y.s.P.Q.~.G.8 X   xXxXxXxXxXxXxXxXxXxXxXxXxXxXxXxXxXxXxXxXxX",
"xXxXxXxXxXs.{.g.xXxXxXxXxXxXxXxXxXf ( ^.h.f g D.T.)   xXxXxXxXxXxXxXxXxXxXxXxXxXxXxXxXxXxXxXxXxXxXxX",
"xXxXxXxXxXg _.h.d xXxXxXxXxXxXxXxXf }.^.d xXxXxXh.u   xXxXxXxXxXxXxXxXxXxXxXxXxXxXxXxXxXxXxXxXxXxXxX",
"xXxXxXxXd./.h.d.xXxXxXxXxXxXxXxXxXf (./.f xXxXxXxXxXxXxXxXxXxXxXxXxXxXxXxXxXxXxXxXxXxXxXxXxXxXxXxXxX",
"xXxXxXxXd. Xs.xXxXxXxXxXxXxXxXxXxXf (.h.f xXxXxXxXxXxXxXxXxXxXxXxXxXxXxXxXxXxXxXxXxXxXxXxXxXxXxXxXxX",
"xXxXxXxXf._.s.xXxXxXxXxXxXxXxXxXp.(.h.d.xXxXxXxXxXxXxXxXxXxXxXxXxXxXxXxXxXxXxXxXxXxXxXxXxXxXxXxXxXxX",
"xXxXxXf./.f.xXxXxXxXxXxXxXxXxXxXs. Xf.xXxXxXxXxXxXxXxXxXxXxXxXxXxXxXxXxXxXxXxXxXxXxXxXxXxXxXxXxXxXxX",
"xXxXf g d.xXxXxXxXxXxXxXxXxXxXxXs._.f.xXxXxXxXxXxXxXxXxXxXxXxXxXxXxXxXxXxXxXxXxXxXxXxXxXxXxXxXxXxXxX",
"xXxXxXxXxXxXxXxXxXxXxXxXxXxXxXxXf g xXxXxXxXxXxXxXxXxXxXxXxXxXxXxXxXxXxXxXxXxXxXxXxXxXxXxXxXxXxXxXxX"
};
