/* XPM */
static char *result[] = {
/* columns rows colors chars-per-pixel */
"50 50 230 2 ",
"   c #000100",
".  c #0C0408",
"X  c #160309",
"o  c #1D1E1E",
"O  c #290A0C",
"+  c #270415",
"@  c #3A021C",
"#  c #380B1C",
"$  c #3A1819",
"%  c #2C1A0E",
"&  c #342718",
"*  c #2C2113",
"=  c #262627",
"-  c #382F27",
";  c #39393A",
":  c #46051C",
">  c #4C1618",
",  c #58191A",
"<  c #6A1B1B",
"1  c #7C2319",
"2  c #692902",
"3  c #460023",
"4  c #5C002F",
"5  c #63062D",
"6  c #761A24",
"7  c #710A30",
"8  c #6A2735",
"9  c #49282B",
"0  c #554712",
"q  c #56462E",
"w  c #5C4235",
"e  c #705531",
"r  c #7A6926",
"t  c #503B48",
"y  c #762E4B",
"u  c #54545A",
"i  c #4F4751",
"p  c #765444",
"a  c #785744",
"s  c #7D5B45",
"d  c #645056",
"f  c #6D696C",
"g  c #9C1C1F",
"h  c #9C3B03",
"j  c #B8341E",
"k  c #970D3D",
"l  c #9D153C",
"z  c #98153B",
"x  c #8F1630",
"c  c #A31B3B",
"v  c #A71937",
"b  c #B3193D",
"n  c #AC1F2F",
"m  c #873639",
"M  c #96262B",
"N  c #A9292A",
"B  c #BC2C26",
"V  c #B3252C",
"C  c #B92B2A",
"Z  c #B72929",
"A  c #AD2335",
"S  c #AB2A33",
"D  c #A92637",
"F  c #B22533",
"G  c #B52C35",
"H  c #BC2F35",
"J  c #BC3334",
"K  c #B63131",
"L  c #B3322C",
"P  c #CC3A1D",
"I  c #C83A17",
"U  c #D13D1A",
"Y  c #DD3C1E",
"T  c #C33222",
"R  c #C63525",
"E  c #D63625",
"W  c #D43939",
"Q  c #D02E29",
"!  c #AF4D0B",
"~  c #897716",
"^  c #8E761B",
"/  c #984E3D",
"(  c #846C38",
")  c #99783A",
"_  c #8B6E34",
"`  c #A07E3A",
"'  c #B16F34",
"]  c #AD533F",
"[  c #D5421A",
"{  c #DB4818",
"}  c #C75B1C",
"|  c #D85D13",
" . c #EB550B",
".. c #EF580B",
"X. c #E6510E",
"o. c #F75E05",
"O. c #F55A09",
"+. c #E2441B",
"@. c #EA4F14",
"#. c #E95412",
"$. c #FE6501",
"%. c #FF6900",
"&. c #F76006",
"*. c #FF7516",
"=. c #F0670F",
"-. c #D64322",
";. c #D74F3A",
":. c #E95423",
">. c #FC7C27",
",. c #FA7E38",
"<. c #D1641F",
"1. c #8C0443",
"2. c #850442",
"3. c #930B41",
"4. c #9D0644",
"5. c #941548",
"6. c #8C1B56",
"7. c #A01945",
"8. c #BF1945",
"9. c #9E2046",
"0. c #8C225B",
"q. c #862D43",
"w. c #AE324A",
"e. c #B83647",
"r. c #B13054",
"t. c #963069",
"y. c #A43D72",
"u. c #CB3148",
"i. c #914F4E",
"p. c #AF5252",
"a. c #866449",
"s. c #8C6A48",
"d. c #967448",
"f. c #987651",
"g. c #916F4E",
"h. c #A0774F",
"j. c #AA5771",
"k. c #D74848",
"l. c #D24F53",
"z. c #D36756",
"x. c #E56148",
"c. c #E77252",
"v. c #D06A76",
"b. c #998516",
"n. c #AC9519",
"m. c #9B8125",
"M. c #A48337",
"N. c #BC9B33",
"B. c #B59337",
"V. c #B7902B",
"C. c #BDA02D",
"Z. c #C7AC1D",
"A. c #D9BD1B",
"S. c #FF822D",
"D. c #C6A431",
"F. c #D9B939",
"G. c #D4B02B",
"H. c #EBBD27",
"J. c #C68627",
"K. c #E6C81F",
"L. c #E7C528",
"P. c #FEDD23",
"I. c #F5D327",
"U. c #ECCC3A",
"Y. c #F1CE27",
"T. c #FFE123",
"R. c #A58357",
"E. c #AC8A59",
"W. c #B99755",
"Q. c #AB8B4B",
"!. c #BC9A60",
"~. c #C58455",
"^. c #FF944E",
"/. c #FF9B55",
"(. c #FB9554",
"). c #E68440",
"_. c #C3A256",
"`. c #D7A74A",
"'. c #DE8671",
"]. c #E88F6B",
"[. c #FFAF70",
"{. c #8C7190",
"}. c #997CA1",
"|. c #8E5D8B",
" X c #CD748D",
".X c #7F8085",
"XX c #96979A",
"oX c #8D8594",
"OX c #9A96B4",
"+X c #9895A5",
"@X c #AB90B1",
"#X c #A5A6B9",
"$X c #AFB3B7",
"%X c #A7A8A8",
"&X c #D38E97",
"*X c #E59798",
"=X c #D28BA1",
"-X c #E29FAD",
";X c #D6A8BF",
":X c #E4A9B8",
">X c #E6B7AC",
",X c #FDC394",
"<X c #F7D7B9",
"1X c #AAAAC3",
"2X c #A3A6C1",
"3X c #BDBDD1",
"4X c #B5B5CA",
"5X c #CDB4CB",
"6X c #C4C4D5",
"7X c #CDCBDB",
"8X c #C5C5D8",
"9X c #DCCADB",
"0X c #D5D5DA",
"qX c #CCD0D7",
"wX c #F0CEDB",
"eX c #EDC1CE",
"rX c #FFE4C0",
"tX c #DBDBE4",
"yX c #DCDCE8",
"uX c #E2D4E3",
"iX c #F3D6E0",
"pX c #DFE0E9",
"aX c #E3E4EB",
"sX c #EBE8EB",
"dX c #EBECF1",
"fX c #F4F4F5",
"gX c #FDFEFE",
"hX c #F7F6F9",
"jX c #F2F1F4",
"kX c None",
/* pixels */
"kXkXkXkXkXkXkXkXkXkXkXkXkXkXkXkXkXkXkXkXkXkXkXkXkXkXkXkXkXkXkXkXkXkXkXkXkXkXkXkXkXkXkXkXkXkXkXkXkXkX",
"kXkXkXkXkXkXkXkXkXkXkXkXkXkXkXkXkXkXkXkXkXkXkXkXkXkXkXkXkXkXkXkXkXkXkXkXkXkXkXkXkXkXkXkXkXkXkXkXkXkX",
"kXkXkXkXkXkXkXkXkXkXkXkXkXkXkXkXkXkXkXkXkXkXkXkXkXkXkXkXkXkXkXkXkXkXkXkXkXkXkXkXkXkXkXkXkXkXkXkXkXkX",
"kXkXkXkXkXkXkXkXkXkXkXkXkXkXkXkXkXkXkXkXkXkXkXkXkXkXkXkXkXkXkXkXkXkXkXkXkXkXkXkXkXkXkXkXkXkXkXkXkXkX",
"kXkXkXkXkXkXkXkXkXkXkXkXkXkXkXkXkXkXkXkXkXkXkXkXkXkXkXkXkXkXkXkXkXkXkXkXkXkXkXkXkXkXkXkXkXkXkXkXkXkX",
"kXkXkXkXkXkXkXkXkXkXkXkXa ) M.kXkXkXkXkXkXkXkXkXkXkXkXkXkXkXkXkXkXkXkXkXkXkXkXkXkXkXkXkXkXkXkXkXkXkX",
"kXkXkXkXkXkXkXkXkXkXkXkXa D.n.- kXkXkXkXkXkXkXkXkXkXkXkXkXkXkXkXkXkXkXkXkXkXkXkXkXkXkXkXkXkXkXkXkXkX",
"kXkXkXkXkXkXkXkXkXkXkXkXa D.A.b.a kXkXkXa p kXkXkXkXkXkXkXkXkXkXkXkXkXkXkXkXkXkXkXkXkXkXkXkXkXkXkXkX",
"kXkXkXkXkXkXkXkXkXp a kXp D.T.Z.& kXkXB.^ * kXkXkXkXkXkXkXkXkXkXkXkXkXkXkXkXkXkXkXkXkXkXkXkXkXkXkXkX",
"kXkXkXkXkXkXkXkXp ) C.* w Z.T.K.n.s.D.U.n.  kXkXkXkXkXkXkXkXkXkXkXkXkXkXkXkXkXkXkXkXkXkXkXkXkXkXkXkX",
"kXkXkXkXkXkXkXkXkXM.K.Z.0 _ F.P.P.L.I.T.n.. kXkXkXkXkXkXkXkXkXkXkXkXkXkXkXkXkXkXkXkXkXkXkXkXkXkXkXkX",
"kXkXkXkXkXkXkXkXkXkX) Y.K.r ^ T.T.P.T.F.r   kXkXkXkXkXkXkXkXkXkXkXkXkXkXkXkXkXkXkXkXkXkXkXkXkXkXkXkX",
"kXkXkXkXkXkXkXkXkXkX& Q.U.L.G.H.H.H.`.e + kXkXkXkXkXkXkXkXkXkXkXkXkXkXkXkXkXkXkXkXkXkXkXkXkXkXkXkXkX",
"kXkXkXkXkXkXkXkXkXkXkX$ d.p.D N S S 9.3.k v l v l 5 O kXkXkXkXkXkXkXkXkXkXkXkXkXkXkXkXkXkXkXkXkXkXkX",
"kXkXkXkXkXkXkXkXkXkXkXu.F x N { X.o.{ c n o.&.&.{ R B M : kXkXkXkXkXkXkXkXkXkXkXkXkXkXkXkXkXkXkXkXkX",
"kXkXkXkXkXkXkXkXe.u.k.S.*.h 1 N F [ { A c { $.%.$.$.$.o.Q l 7 kXkXkXkXV V A k 5 kXkXkXkXkXkXkXkXkXkX",
"kXkXkXkXkXkXkXw.l.x.x.&.$.$.$...V 1.n B Z B U o.$.$.$.$.U b 7 7 Z C E [ { j < X kXkXkXkXkXkXkXkXkXkX",
"kXkXkXkXkXkX4.k.;.E Y $.$.$.$.$.o.T P X.$. .k ..$...U Y B Z Q +.&.#.P z.i.3 X kXkXkXkXkXkXkXkXkXkXkX",
"kXkXkXkXkX8.l.l.:.%.%.%.$.%.$.%.$.$.n B  .Z k  .@.E T -.&.| U ;.].&X=XuXoXX b E Q T T Z 1.kXkXkXkXkX",
"kXkXkXkXu.x.(./.S.O.E E O.$.$.$.$.$.{ T B P P T E  .&.{ j v.=X;XdXgXdX+Xt 7 +.&.#.(.~.2 kXkXkXkXkXkX",
"kXkXkXkXu././.S.:.v.:X:Xk.@.%.$.$.%.%.T V ..j P  .+.p.:X5XuXhXgXgXhX1Xy g -.-.Q j.f i kXkXkXkXkXkXkX",
"kXkXkXe.c.^.*.%.c.5XgXgXwXv.+.%.$.$.$...P V { &.U p.5XgXgX6X1X3XyX7Xi 7 R @.9.}.tXu   kXkXkXkXkXkXkX",
"kXkX1.G *.*.$.Y *XqX+XhXgX9Xv.$.$.$.%.%.[ l ..Z j.@X2X4XtXyXtXaXaX+Xm I [ K 6.OXyXf   kXkXkXkXkXkXkX",
"kXkX1.C $.$.$.Q &XjXuXgXgXgX-XE $.$.$.$.U k B 5.|.1X3XtXdXgXgXgX0X; S ..[ 0.}.9Xu = kXkXkXkXkXkXkXkX",
"kXkXr.;...$.$.O.'.uXgXgXgXgX-XQ $.$.%.P c b 5.{.OX2X2X1X8XaXfXgXsXoXp.#.R t.7XjX; kXkXkXkXkXkXkXkXkX",
"kX7.&X*Xk.X.&.$.:.v.iXgXgXuX'.o.$.$.$.T 3.G 5.oX$X7XaX8X1X1X8XaXhX7X{.<.I j.hXhXi kXkXkXkXkXkXkXkXkX",
"1.c.,XrX>Xr.{ &.$.@.l.eXwX XY $.$.$.%.R l J D > $ d #X#XaXhXgXgXgXsX; ! P y.dXhX; kXkXkXkXkXkXkXkXkX",
"1.p.S.[.<X<Xr.P &.$...W W @.o.$.%.$.%.{ J G k D D 6 $ 9 oX$X0XgXgXdX- h T t.5XdX; kXkXkXkXkXkXkXkXkX",
"2.X 2 | /.,Xj.S [ %.%.&.| } | %.$.%...-.G c 1.c l D K S , # d XX%XXXo 1 7.y OXdXf = kXkXkXkXkXkXkXkX",
"kX@ . % ! /./.w.V ..%.%.J.B.V.} } P A D l 1.5.c D J J J D 5 +   . @ > M x y #X8XtXu   kXkXkXkXkXkXkX",
"kXkX4 + & (./.w.1.A T R ' D.N.N.B.q.z 3.3.b J Q J G z x 3 .   kX+ 2.D Q < ; 6X8X7Xu   kXkXkXkXkXkXkX",
"kXkXkX4 6 >./.w.k D l z 5.m / N.N.B.' 8 : , , m / i.p.p.~ ~ 0 kXkX2.8.H < ; pXgXyXu   kXkXkXkXkXkXkX",
"kXkXkXkXc Z e.5.l x > > : @ # * - M.D._ q r b.C.D.F.U.U.P.T.C.q X kX4.b M m  XsX{.; kXkXkXkXkXkXkXkX",
"kXkXkXkXkXkXy ' ' 8 kXkXkXkXkXkXkXkX` N.B.Q.I.P.b.b.P.P.P.N.e &   kXkX: 6 G 5.d = kXkXkXkXkXkXkXkXkX",
"kXkXkXkXkXkXa G.N.p kXkXkXkXkXkXkXkXkX) B.G.) ) e e B.Y.I.0 . kXkXkXkXkXX , D 1 O kXkXkXkXkXkXkXkXkX",
"kXkXkXkXkXkXa G.B.p kXkXkXkXkXkXkXkXkXkX` L.a.kXkXkXkX) _.& kXkXkXkXkXkXkXkXO O   kXkXkXkXkXkXkXkXkX",
"kXkXkXkXkXkXa W.E.s kXkXkXkXkXkXkXkXkXkXd.W.s.kXkXkXkXkXa.o kXkXkXkXkXkXkXkXkXkXkXkXkXkXkXkXkXkXkXkX",
"kXkXkXkXkXkXkXs R.E.a kXkXkXkXkXkXkXkXkXkXd.G.s.kXkXkXkXkXkXkXkXkXkXkXkXkXkXkXkXkXkXkXkXkXkXkXkXkXkX",
"kXkXkXkXkXkXkXp f.E.a.kXkXkXkXkXkXkXkXkXkXs.!.s.kXkXkXkXkXkXkXkXkXkXkXkXkXkXkXkXkXkXkXkXkXkXkXkXkXkX",
"kXkXkXkXkXkXkXkXa f.!.s kXkXkXkXkXkXkXkXkXa.E.f.a.kXkXkXkXkXkXkXkXkXkXkXkXkXkXkXkXkXkXkXkXkXkXkXkXkX",
"kXkXkXkXkXkXkXkXkXg.E.g.kXkXkXkXkXkXkXkXkXkXa.!.E.g.kXkXkXkXkXkXkXkXkXkXkXkXkXkXkXkXkXkXkXkXkXkXkXkX",
"kXkXkXkXkXkXkXkXkXkXa.R.a.kXkXkXkXkXkXkXkXkXs R.E.R.f.f.kXkXkXkXkXkXkXkXkXkXkXkXkXkXkXkXkXkXkXkXkXkX",
"kXkXkXkXkXkXkXkXkXkXkXa a kXkXkXkXkXkXkXkXkXkXkXp g.R.h.s kXkXkXkXkXkXkXkXkXkXkXkXkXkXkXkXkXkXkXkXkX",
"kXkXkXkXkXkXkXkXkXkXkXkXkXkXkXkXkXkXkXkXkXkXkXkXkXkXp p a kXkXkXkXkXkXkXkXkXkXkXkXkXkXkXkXkXkXkXkXkX",
"kXkXkXkXkXkXkXkXkXkXkXkXkXkXkXkXkXkXkXkXkXkXkXkXkXkXkXkXkXkXkXkXkXkXkXkXkXkXkXkXkXkXkXkXkXkXkXkXkXkX",
"kXkXkXkXkXkXkXkXkXkXkXkXkXkXkXkXkXkXkXkXkXkXkXkXkXkXkXkXkXkXkXkXkXkXkXkXkXkXkXkXkXkXkXkXkXkXkXkXkXkX",
"kXkXkXkXkXkXkXkXkXkXkXkXkXkXkXkXkXkXkXkXkXkXkXkXkXkXkXkXkXkXkXkXkXkXkXkXkXkXkXkXkXkXkXkXkXkXkXkXkXkX",
"kXkXkXkXkXkXkXkXkXkXkXkXkXkXkXkXkXkXkXkXkXkXkXkXkXkXkXkXkXkXkXkXkXkXkXkXkXkXkXkXkXkXkXkXkXkXkXkXkXkX",
"kXkXkXkXkXkXkXkXkXkXkXkXkXkXkXkXkXkXkXkXkXkXkXkXkXkXkXkXkXkXkXkXkXkXkXkXkXkXkXkXkXkXkXkXkXkXkXkXkXkX",
"kXkXkXkXkXkXkXkXkXkXkXkXkXkXkXkXkXkXkXkXkXkXkXkXkXkXkXkXkXkXkXkXkXkXkXkXkXkXkXkXkXkXkXkXkXkXkXkXkXkX"
};
