/* XPM */
static char *result[] = {
/* columns rows colors chars-per-pixel */
"50 50 224 2 ",
"   c #253438",
".  c #2A363A",
"X  c #28393E",
"o  c #3A3833",
"O  c #3D3936",
"+  c #463F37",
"@  c #4D463C",
"#  c #1F3B46",
"$  c #143F4F",
"%  c #1D3E4C",
"&  c #213D46",
"*  c #2B3F45",
"=  c #2C3F45",
"-  c #2A4245",
";  c #25454F",
":  c #384847",
">  c #2B4751",
",  c #2E4B55",
"<  c #204959",
"1  c #254F5E",
"2  c #264E5E",
"3  c #374E52",
"4  c #2E515B",
"5  c #1F5D75",
"6  c #2D5766",
"7  c #24586A",
"8  c #295A6C",
"9  c #345A66",
"0  c #295E71",
"q  c #315F71",
"w  c #356069",
"e  c #2A667B",
"r  c #2C657A",
"t  c #2C687E",
"y  c #366675",
"u  c #336A7E",
"i  c #376A7D",
"p  c #3C6B7E",
"a  c #43494A",
"s  c #444849",
"d  c #584043",
"f  c #5E4E4A",
"g  c #4E504D",
"h  c #55534F",
"j  c #57544E",
"k  c #40555A",
"l  c #495759",
"z  c #68484E",
"x  c #685A51",
"c  c #775155",
"v  c #745E59",
"b  c #57615B",
"n  c #60615B",
"m  c #736F5E",
"M  c #435D64",
"N  c #4A5C60",
"B  c #406068",
"V  c #4B6468",
"C  c #4B6469",
"Z  c #5F6261",
"A  c #526A6B",
"S  c #416977",
"D  c #486D7A",
"F  c #4B757E",
"G  c #656962",
"H  c #6F6B60",
"J  c #6D6D61",
"K  c #6C6A65",
"L  c #6A6B6E",
"P  c #7F6561",
"I  c #62706A",
"U  c #7D7969",
"Y  c #6D6E71",
"T  c #657479",
"R  c #60777F",
"E  c #707B72",
"W  c #75777B",
"Q  c #74797E",
"!  c #747A7E",
"~  c #787A7D",
"^  c #787A7E",
"/  c #835A5F",
"(  c #857E6A",
")  c #887E6A",
"_  c #A07476",
"`  c #AF797E",
"'  c #6D847E",
"]  c #90816D",
"[  c #888674",
"{  c #828579",
"}  c #948673",
"|  c #988D76",
" . c #9E937B",
".. c #9E937C",
"X. c #226B88",
"o. c #366D82",
"O. c #336E84",
"+. c #27728E",
"@. c #2E718A",
"#. c #367587",
"$. c #3F7381",
"%. c #3C7C8B",
"&. c #237392",
"*. c #287A9A",
"=. c #317892",
"-. c #3F7C92",
";. c #277EA0",
":. c #436E80",
">. c #4D7B86",
",. c #447A89",
"<. c #517B85",
"1. c #B17E84",
"2. c #3F8191",
"3. c #30819D",
"4. c #2A82A3",
"5. c #2A85A9",
"6. c #2B89AE",
"7. c #3A86A1",
"8. c #3389A9",
"9. c #338DAF",
"0. c #2B8CB3",
"q. c #2C8DB4",
"w. c #2E8FB5",
"e. c #3193B8",
"r. c #3898BC",
"t. c #49808E",
"y. c #458496",
"u. c #4B879A",
"i. c #548593",
"p. c #52909C",
"a. c #618089",
"s. c #698B8F",
"d. c #79878D",
"f. c #77908D",
"g. c #608795",
"h. c #788E9A",
"j. c #68939E",
"k. c #75979C",
"l. c #4389A2",
"z. c #4C8DA4",
"x. c #4190AC",
"c. c #4E95AC",
"v. c #5D95A2",
"b. c #5596AA",
"n. c #7D96A2",
"m. c #46A0BE",
"M. c #60A0AB",
"N. c #7DA0A0",
"B. c #66A9B1",
"V. c #6BAFB7",
"C. c #77B7BA",
"Z. c #4FACC7",
"A. c #59B3CA",
"S. c #808E87",
"D. c #818388",
"F. c #848789",
"G. c #84868A",
"H. c #86888C",
"J. c #918F8A",
"K. c #8A9083",
"L. c #9B9B89",
"P. c #8A8D90",
"I. c #8F949A",
"U. c #919496",
"Y. c #939597",
"T. c #999792",
"R. c #919893",
"E. c #94969B",
"W. c #BC818A",
"Q. c #A59980",
"!. c #A69E85",
"~. c #9BA99D",
"^. c #AAA086",
"/. c #B0A58B",
"(. c #B6A788",
"). c #B1A98F",
"_. c #A5A898",
"`. c #B6AC91",
"'. c #BFB193",
"]. c #BDB69B",
"[. c #9A9DA2",
"{. c #9D9FA3",
"}. c #8CA5A2",
"|. c #80A2AB",
" X c #93A6B0",
".X c #A2A4A7",
"XX c #A6A8AE",
"oX c #A6B1A5",
"OX c #AEB4A1",
"+X c #B7B9A1",
"@X c #A6AAB0",
"#X c #A2AFB9",
"$X c #AFB0B3",
"%X c #AEB5BE",
"&X c #B7B9BB",
"*X c #CF8F98",
"=X c #D5939D",
"-X c #C3B698",
";X c #C8BB9B",
":X c #CBBE9D",
">X c #DE9BA2",
",X c #E9A3AB",
"<X c #D2C19C",
"1X c #C8C4AA",
"2X c #D6C6A7",
"3X c #D8C8A8",
"4X c #DFD0AE",
"5X c #C7CAB2",
"6X c #D1CFB5",
"7X c #E5D4B1",
"8X c #EDDBB7",
"9X c #F1DFBA",
"0X c #F7E5BD",
"qX c #B8BEC5",
"wX c #C1C6CD",
"eX c #C7CBD2",
"rX c #CFD0D4",
"tX c #D0D4DB",
"yX c #D4D8E0",
"uX c #DBDFE7",
"iX c #E0E4EC",
"pX c #E3E7EF",
"aX c #EBEEF5",
"sX c None",
/* pixels */
"sXsXsXsXsXsXsXsXsXsXsXsXsXsXsXsXsXsXsXsXsXsXsXsXsXsXsXsXsXsXsXsXsXsXsXsXsXsXsXsXsXsXsXsXsXsXsXsXsXsX",
"sXsXsXsXsXsXsXsXsXsXsXsXsXsXsXsXsXsXsXsXsXsXsXsXsXsXsXsXsXsXsXsXsXsXsXsXsXsXsXsXsXsXsXsXsXsXsXsXsXsX",
"sXsXsXsXsXsXsXsXsXsXsXsXsXsXsXsXsXsXsXsXsXsXsXsXsXsXsXsXsXsXsXsXsXsXsXsXsXsXsXsXsXsXsXsXsXsXsXsXsXsX",
"sXsXsXsXsXsXsXsXsXsXsXsXsXsXsXsXsXsXsXsXsXsXsXsXsXsXsXsXsXsXsXsXsXsXsXsXsXsXsXsXsXsXsXsXsXsXsXsXsXsX",
"sXsXsXsXsXsXsXsXsXsXsXsXsXO sXsXsXsXsXsXsXsXsXsXsXsXsXsXsXsXsXsXsXsXsXsXsXsXsXsXsXsXsXsXsXsXsXsXsXsX",
"sXsXsXsXsXsXsXsXsXsXsXsXsXF.sXsXsXsXsXsXsXsXsXsXsXsXsXsXsXsXsXsXsXsXsXsXsXsXsXsXsXsXsXsXsXsXsXsXsXsX",
"sXsXsXsXsXsXsXsXsXsXsXsXsXU.sXsXsXsXsXsXsXsXsXsXsXsXsXsXsXsXsXsXsXsXsXsXsXsXsXsXsXsXsXsXsXsXsXsXsXsX",
"sXsXsXsXsXsXsXsXsXsXsXsXsXY.sXsXsXsXsXsXsXsXsXsXsXsXsXsXsXsXsXsXsXsXsXsXsXsXsXsXsXsXsXsXsXsXsXsXsXsX",
"sXsXsXsXsXsXsXsXsXsXsXsX~ XXsXsXsXsXsXsXsXsXsXsXsXsXsXsXsXsXsXsXsXsXsXsXsXsXsXsXsXsXsXsXsXsXsXsXsXsX",
"sXsXsXsXsXsXsXsXsXsXsXsXJ..XH sXsXsXsXsXsXsXsXsXZ ~ sXsXsXsXsXsXsXsXsXsXsXsXsXsXsXsXsXsXsXsXsXsXsXsX",
"sXsXsXsXsXsXsXsX= sXsXh R.$X[.sXsXsXsXsXsXsXsXsXY I.L sXsXsXsXsXsXsXsXsXsXsXsXsXsXsXsXsXsXsXsXsXsXsX",
"sXsXsXsXsXsXsXsXw sXsX^ tXpXrXsXsXsXsXsXsXsXsXsXY qXP.sXsXsXsXsXsXsXsXsXsXsXsXsXsXsXsXsXsXsXsXsXsXsX",
"sXsXsXsXsXsXsXsX- sXsX~ uXaXrXg sXsXsXsXsXsXsXsXsX@XP.sXsXsXsXsXsXsXsXsXsXsXsXsXsXsXsXsXsXsXsXsXsXsX",
"sXsXsXsXsXsXsXsX  sXsXZ rXaX#Xx.y.q n sXsXsXsXsX. $XG.Z sXsXsXsXsXsXsXsXsXsXsXsXsXsXsXsXsXsXsXsXsXsX",
"sXsXsXsXsXsXsX; 4 sXsXsXqXtXj.e.r.r.,.sXsXsXsXsXG wXeX&XsXsXsXsXj sXsXsXsXsXsXsXsXsXsXsXsXsXsXsXsXsX",
"sXsXsXsXsXsXsX3 w q r 6 R a.9.e.6.X.3.u . sXsXsXE.iXpXtXsXsXsXsXZ sXsXsXsXsXsXsXsXsXsXsXsXsXsXsXsXsX",
"sXsX* sXsXsXsXk #.w.e.e.;.5 4.*.e #.6.r.7.q 3 sXK uXpXeXsXsXsXY ~ sXsXsXsXsXsXsXsXsXsXsXsXsXsXsXsXsX",
"sXsXsXX sXsX; $.%.r.m.r.e.*.5 t.#.9.w.w.e.r.x.i s wXpX%Xi % 1 T .XsXsXsXsXsXsXsXsXsXsXsXsXsXsXsXsXsX",
"sXsXsXM M V =.2.%.m.Z.m.5.=.p.2.&.3.3.=.9.e.5.0 sX[.qXz.r.+.y k.T sXsXsXsXsXsXsXsXsXsXsXsXsXsXsXsXsX",
"sXsX  3 >.z.5.2.%.Z.A.x.u.M.2.6.w.e.r.3.5.*.6 X > D u.0.9.b.$.}.$.s sXsXsXsXsXsXsXsXsXsXsXsXsXsXsXsX",
"sXsXa = <.,.+.p.%.A.c.p.V.y.5.w.4.*.3.=.@.9 N k 6 8.5.;.}.OX@.=.=.N sXsXsXsXsXsXsXsXsXsXsXsXsXsXsXsX",
"sXsXsX<.i.v.7 M.%.y.M.B.#.4.q.q.q.w.+.e g. XP.sX7.w.q.6.j.M.s.L.S 4.4 sXsXsXsXsXsXsXsXsXsXsXsXsXsXsX",
"sXsXsXV y.v.M.C.B.C.B.s.x.q.q.q.6.*.o.|.tXXXsX8 w.q.q.0.*.N.!.(.!.>.8 sXsXsXsXsXsXsXsXsXsXsXsXsXsXsX",
"sXsXsX. C S V.C.C.B.>.&Xc.0.q.5.=.h.qXiXtXL sX@.q.q.9.N.i.V  .;X`.G > sXsXsXsXsXsXsXsXsXsXsXsXsXsXsX",
"sXsXsXsXQ B p.M.p.y v qX*.q.0.5 h.tXpXpXuXH.  +.5.0.v.:X<.sXj  .] U o.sXsXsXsXsXsXsXsXsXsXsXsXsXsXsX",
"sXsXsXsX! :.7 y 2.#.S z.5.q.0.5 I.wXtXiXiXeXl +.6.&.s._.<.sXg `.-X'.I ; sXsXsXsXsXsXsXsXsXsXsXsXsXsX",
"sXsXsXsXsX2 +.#.t.m.r.0.q.q.q.;.a.eXyXtX{.! l.e.q.0.;.7 V sXsXJ /./.b sXsXsXsXsXsXsXsXsXsXsXsXsXsXsX",
"sXsXsXsXsXL.OX+X+X' 4.q.q.q.q.;.n.pXiXn.A > 9.w.q.q.0.&.4 sXsXO | !.l sXsXsXsXsXsXsXsXsXsXsXsXsXsXsX",
"sXsXsXsXg  .} ] } U B 5.q.w.=.G { tXeXt.l.p 5.q.q.8.f.l.F sXsXsXE /.A sXsXsXsXsXsXsXsXsXsXsXsXsXsXsX",
"sXsXsXsXsXa z d / P x 9 6.;.E <X:XT.&X|.*.@.4.0.0.j.1Xi.Z sXsXO.@.$.1 sXsXsXsXsXsXsXsXsXsXsXsXsXsXsX",
"sXsXsXsXsXa d / *X*X` f =.9 9 K.7X2X2XoXS y X.X.&.R.6Xv.[ sXi e X.&.5 sXsXsXsXsXsXsXsXsXsXsXsXsXsXsX",
"sXsXsXsX-.C f W.,X,X*Xv R ].K.9 I 4X0X_.f.u.0.0.6.7.a.t.sX< p d.@.5 2 $ sXsXsXsXsXsXsXsXsXsXsXsXsXsX",
"sXsXsX0 t o z =X,X,XW.] `.8X8X].B K.<X' z.>.0.q.q.q.*.V . 9 #Xn.*.y R % sXsXsXsXsXsXsXsXsXsXsXsXsXsX",
"sXsXsXq sXO / ,X,X,X_ | '.(.(.(.m : !.].z.e &.0.l.}.x.> > #XuXn.&.a.@X, sXsXsXsXsXsXsXsXsXsXsXsXsXsX",
"sXsXsXt sXo c >X,X1.P '.7X<X'.-X;XG K.9X|.e 7 5 ~.4Xb.d.#XuXiXh.X.#XtXC . sXsXsXsXsXsXsXsXsXsXsXsXsX",
"sXsX8 0 sX+ d z c f x /.8X9X9X9X9X`.C 4XoXi.>.3.{ OXi.$XpXiXiXh.o.eXiXI.# sXsXsXsXsXsXsXsXsXsXsXsXsX",
"sXsX& sXsX@ ) ) ) | K ( 3X8X9X9X9X3XC ].6Xk.L.N.s.,.f.rXpXpXtXi.g.iXpX%X* sXsXsXsXsXsXsXsXsXsXsXsXsX",
"sXsX& sXsXsXsXsXsXsXsXK -X3X8X9X9X8XE K.1Xu.f.OX}.D _.eXiXpXeXp  XpXpXyXM sXsXsXsXsXsXsXsXsXsXsXsXsX",
"sXsXO.sXsXsXsXsXsXsXsXsX!.;X3X8X9X9X!.b S.x.6.N.b.a.J.K E.&X[.S wXpXpXiXd.sXsXsXsXsXsXsXsXsXsXsXsXsX",
"sXsX< sXsXsXsXsXsXsXsXsXH '.:X:X2X4X'.: !.1Xc.8.c.J sXsXsXsXa M @XyXuXiX[.sXsXsXsXsXsXsXsXsXsXsXsXsX",
"sXsX# sXsXsXsXsXsXsXsXsXsXm Q. .|  .| l L.0X~.p.5X).sXsXsXsXsXsXg W D.[.I.sXsXsXsXsXsXsXsXsXsXsXsXsX",
"sX4 0 sXsXsXsXsXsXsXsXsXsXh /.Q.Q.'.4XQ.E 9X`.5X2XsXsXsXsXsXsXsXsXsXsXsXsXsXsXsXsXsXsXsXsXsXsXsXsXsX",
"sX  sXsXsXsXsXsXsXsXsXsXsXsX( ;X-X-X:X/.b 3X{ /.^.sXsXsXsXsXsXsXsXsXsXsXsXsXsXsXsXsXsXsXsXsXsXsXsXsX",
"X 6 sXsXsXsXsXsXsXsXsXsXsXsXsX} -X-X-X'.G U U 3 sXsXsXsXsXsXsXsXsXsXsXsXsXsXsXsXsXsXsXsXsXsXsXsXsXsX",
"# t sXsXsXsXsXsXsXsXsXsXsXsXsXsXH | `...n , 6 sXsXsXsXsXsXsXsXsXsXsXsXsXsXsXsXsXsXsXsXsXsXsXsXsXsXsX",
"sXsXsXsXsXsXsXsXsXsXsXsXsXsXsXsXsXsXsXsXsXsXsXsXsXsXsXsXsXsXsXsXsXsXsXsXsXsXsXsXsXsXsXsXsXsXsXsXsXsX",
"sXsXsXsXsXsXsXsXsXsXsXsXsXsXsXsXsXsXsXsXsXsXsXsXsXsXsXsXsXsXsXsXsXsXsXsXsXsXsXsXsXsXsXsXsXsXsXsXsXsX",
"sXsXsXsXsXsXsXsXsXsXsXsXsXsXsXsXsXsXsXsXsXsXsXsXsXsXsXsXsXsXsXsXsXsXsXsXsXsXsXsXsXsXsXsXsXsXsXsXsXsX",
"sXsXsXsXsXsXsXsXsXsXsXsXsXsXsXsXsXsXsXsXsXsXsXsXsXsXsXsXsXsXsXsXsXsXsXsXsXsXsXsXsXsXsXsXsXsXsXsXsXsX",
"sXsXsXsXsXsXsXsXsXsXsXsXsXsXsXsXsXsXsXsXsXsXsXsXsXsXsXsXsXsXsXsXsXsXsXsXsXsXsXsXsXsXsXsXsXsXsXsXsXsX"
};
