/* XPM */
static char *result[] = {
/* columns rows colors chars-per-pixel */
"50 50 217 2 ",
"   c #1E2A2E",
".  c #152A32",
"X  c #192E37",
"o  c #1B3139",
"O  c #2C3B3E",
"+  c #343937",
"@  c #483E38",
"#  c #513F3C",
"$  c #183A49",
"%  c #263B41",
"&  c #273D45",
"*  c #293E45",
"=  c #5A3841",
"-  c #1E475A",
";  c #2B424A",
":  c #38464D",
">  c #31484F",
",  c #244B5A",
"<  c #364B50",
"1  c #3C4F52",
"2  c #304F5B",
"3  c #2F535F",
"4  c #39575F",
"5  c #39585D",
"6  c #3E595C",
"7  c #1F5E75",
"8  c #204F62",
"9  c #265161",
"0  c #215365",
"q  c #2A5565",
"w  c #27596A",
"e  c #385B67",
"r  c #3D5D66",
"t  c #2F5F71",
"y  c #296277",
"u  c #2A677F",
"i  c #366170",
"p  c #326476",
"a  c #336476",
"s  c #3D6A79",
"d  c #4F4542",
"f  c #424C4C",
"g  c #444E4C",
"h  c #514C42",
"j  c #5C4943",
"k  c #55534F",
"l  c #56564F",
"z  c #5D584D",
"x  c #425152",
"c  c #42545E",
"v  c #4C5D5F",
"b  c #505153",
"n  c #5B5852",
"m  c #634749",
"M  c #68404B",
"N  c #664F50",
"B  c #665D56",
"V  c #775157",
"C  c #5B625D",
"Z  c #686050",
"A  c #776A5C",
"S  c #746D5D",
"D  c #465F6A",
"F  c #466469",
"G  c #5E6A67",
"H  c #526868",
"J  c #4D6C78",
"K  c #4E7174",
"L  c #41737E",
"P  c #587073",
"I  c #636464",
"U  c #66696B",
"Y  c #66696C",
"T  c #68736B",
"R  c #737069",
"E  c #7C7868",
"W  c #627C7D",
"Q  c #697B78",
"!  c #707376",
"~  c #777D70",
"^  c #7D7F71",
"/  c #767679",
"(  c #75777B",
")  c #707978",
"_  c #77797B",
"`  c #996A6D",
"'  c #847C69",
"]  c #8D7F6C",
"[  c #9B7673",
"{  c #A46F75",
"}  c #AD777D",
"|  c #76827B",
" . c #858473",
".. c #8B8C7C",
"X. c #958A74",
"o. c #968E78",
"O. c #9F9478",
"+. c #B0867C",
"@. c #A7987C",
"#. c #1D6683",
"$. c #206E8E",
"%. c #306B82",
"&. c #2B718C",
"*. c #307086",
"=. c #3E7184",
"-. c #367488",
";. c #3F7C8E",
":. c #267795",
">. c #287C9C",
",. c #327C96",
"<. c #377C96",
"1. c #437687",
"2. c #4F7985",
"3. c #4C7F8D",
"4. c #517781",
"5. c #6C7E80",
"6. c #3D8196",
"7. c #2981A3",
"8. c #2C80A0",
"9. c #2B85A9",
"0. c #2F89AC",
"q. c #3789A9",
"w. c #2C8BB0",
"e. c #2B8DB4",
"r. c #2D8FB7",
"t. c #3791B5",
"y. c #3C94B5",
"u. c #3795B9",
"i. c #55838A",
"p. c #5E828A",
"a. c #4C8896",
"s. c #528792",
"d. c #588697",
"f. c #598C9A",
"g. c #658180",
"h. c #688787",
"j. c #6E898F",
"k. c #778888",
"l. c #7E938D",
"z. c #679299",
"x. c #418AA1",
"c. c #4993AB",
"v. c #5A95A0",
"b. c #419FBF",
"n. c #759FA6",
"m. c #63A4AC",
"M. c #6CABAF",
"N. c #7BA6AD",
"B. c #7DA8AE",
"V. c #70B0BB",
"C. c #77B8BC",
"Z. c #808982",
"A. c #828489",
"S. c #84878A",
"D. c #81918D",
"F. c #949380",
"G. c #939A8A",
"H. c #8A8D90",
"J. c #8C8F94",
"K. c #8F9296",
"L. c #87959E",
"P. c #93979C",
"I. c #979899",
"U. c #93989D",
"Y. c #999998",
"T. c #9C9D9F",
"R. c #A29A84",
"E. c #A99D83",
"W. c #ADA186",
"Q. c #B6A98C",
"!. c #A7A793",
"~. c #BDAF93",
"^. c #9EA0A3",
"/. c #96A4A8",
"(. c #93A6B1",
"). c #9EABB5",
"_. c #A2A5AB",
"`. c #AAB2A3",
"'. c #A4A9B0",
"]. c #A1B5B0",
"[. c #AFB2B5",
"{. c #AEB7BF",
"}. c #CC8A94",
"|. c #D28D97",
" X c #C1B293",
".X c #C3B597",
"XX c #CDBB94",
"oX c #C7BA9B",
"OX c #CEBF9F",
"+X c #E69FA8",
"@X c #C2BCA1",
"#X c #ECA7AE",
"$X c #D1C3A2",
"%X c #D6C7A6",
"&X c #DDCDAA",
"*X c #DECFAD",
"=X c #E3D1AB",
"-X c #E6D4B1",
";X c #EADAB3",
":X c #ECDBB7",
">X c #EFDEB9",
",X c #F1E0BA",
"<X c #F2E2BC",
"1X c #F8E8BF",
"2X c #B7BAC0",
"3X c #84C5C6",
"4X c #BDC0C7",
"5X c #C0C5CD",
"6X c #C5C9D1",
"7X c #CBCFD7",
"8X c #D0D5DD",
"9X c #F9ECC1",
"0X c #D6DAE3",
"qX c #D9DDE5",
"wX c #E0E4EB",
"eX c #E7EBF2",
"rX c None",
/* pixels */
"rXrXrXrXrXrXrXrXrXrXrXrXrXrXrXrXrXrXrXrXrXrXrXrXrXrXrXrXrXrXrXrXrXrXrXrXrXrXrXrXrXrXrXrXrXrXrXrXrXrX",
"rXrXrXrXrXrXrXrXrXrXrXrXrXrXrXY rXrXrXrXrXrXrXrXrXrXrXrXrXrXrXrXrXrXrXrXrXrXrXrXrXrXrXrXrXrXrXrXrXrX",
"rXrXrXrXrXrXrXrXrXrXrXrXrXrXrX! I.rXrXrXrXrXrXrXrXrXrXrXrXrXrXrXrXrXrXrXrXrXrXrXrXrXrXrXrXrXrXrXrXrX",
"rXrXrXrXrXrXrXrXrXrXrXrXrXrXrX^.I.rXrXrXrXrXrXrXrXrXrXrXrXrXrXrXrXrXrXrXrXrXrXrXrXrXrXrXrXrXrXrXrXrX",
"rXrXrXrXrXrXrXrXrXrX. rXrXrXrX2XI.rXrXrXrXrXrXrXrXrXrXrXrXrXrXrXrXrXrXrXrXrXrXrXrXrXrXrXrXrXrXrXrXrX",
"rXrXrXrXrXrXrXrXrXrXO rXrXrXrX2XI.rXrXrXrXrXrXrXrXrXrXrXrXrXrXrXrXrXrXrXrXrXrXrXrXrXrXrXrXrXrXrXrXrX",
"rXrXrXrXrXrXrXrXrXrX5 rXrXrXK.2Xb I rXrXrXrXrXrXrXrXrXrXrXrXrXrXrXrXrXrXrXrXrXrXrXrXrXrXrXrXrXrXrXrX",
"rXrXrXrXrXrXrXrXrXrX% rXrXY 8XwXY.rXrXrXrXrXrXrXrXrXrXrXrXrXrXrXrXrXrXrXrXrXrXrXrXrXrXrXrXrXrXrXrXrX",
"rXrXrXrXrXrXrXrXrXrX< rXrXn 7XeXwXrXrXrXrXrXrXrXrXrXrXrXrXrXrXrXrXrXrXrXrXrXrXrXrXrXrXrXrXrXrXrXrXrX",
"rXrXrXrXrXrXrXrXrXrX5 rX; O P.eXqXrXrXrXrXrXrXrXrXrXrXrXrXrXrXrXrXrXrXrXrXrXrXrXrXrXrXrXrXrXrXrXrXrX",
"rXrXrXrX+ rXrXrXrX6 L ,.8.8.-./.P.1 K < rXrXrXrXrXrXrXrXrXrXrXrXrXrXrXrXrXrXrXrXrXrXrXrXrXrXrXrXrXrX",
"rXrXrXrXO O rXrXrXL ;.w.u.r.w.u p.v.x.6.; rXrXrXrXrXrXrXrXrXrXrXrXrXrXrXrXrXrXrXrXrXrXrXrXrXrXrXrXrX",
"rXrXrXrXrX1 ; rX%.a.;.u.b.0.,.m.M.-.8.7.,.> rXrXrXk rXrXrXrXrXrXrXrXrXrXrXrXrXrXrXrXrXrXrXrXrXrXrXrX",
"rXrXrXrXrX6 i.3 &.a.,.b.x.a.C.v.,.0.0.9.>.p > rXrX! ( rXrXrXrXrXrXrXrXrXrXrXrXrXrXrXrXrXrXrXrXrXrXrX",
"rXrXrXrXrXrX4.s.u v.*.6.m.C.a.8.e.r.>.7.y.8.q.a * v J.rXrXrXrXrXrXrXrXrXrXrXrXrXrXrXrXrXrXrXrXrXrXrX",
"rXrXrXrXrXrXr V.V.3XM.C.V.i.:.e.e.e.9.9.&.&.,.a.4.j.^.rXrXrXrXrXrXrXrXrXrXrXrXrXrXrXrXrXrXrXrXrXrXrX",
"rXrXrXrX* 2.a.3.V.3X3Xm.P ].t.e.e.e.e.7.u d.(.).D ).J.rXrXrXrXrXrXrXrXrXrXrXrXrXrXrXrXrXrXrXrXrXrXrX",
"rXrXrXrXrXF a.J s.s.3.x +.{.9.e.e.>.7 J L.8X0XS.rX2X_.rXrXrXrXrXrXrXrXrXrXrXrXrXrXrXrXrXrXrXrXrXrXrX",
"rXrXrXrXrX_ 5.q y L ;.-.j.a.7.r.9.0 L.6XwXeX2XrXrX_.wXT.rXrXrXrXrXrXrXrXrXrXrXrXrXrXrXrXrXrXrXrXrXrX",
"rXrXrXrXrXI P.P j.D.h.c.r.w.e.e.9.i {.8XwXwX2XrXrXA.eX[.rXrXrXrXrXrXrXrXrXrXrXrXrXrXrXrXrXrXrXrXrXrX",
"rXrXrXrXrXrXR.%XoXoX~.| 8.e.e.e.r.:.L.4X5X6X0XJ.rX/ 4XJ.rXrXrXrXrXrXrXrXrXrXrXrXrXrXrXrXrXrXrXrXrXrX",
"rXrXrXrXrXrXE A N m j A 1.e.e.e.e.$.).wXwX2XH.S.rXD d.x.a & rXrXrXrXrXrXrXrXrXrXrXrXrXrXrXrXrXrXrXrX",
"rXrXrXrXrXrX+ m M M = m G :.e.w.,.P 5XeX5X) rXrX=.t.u.0.n.) rXrXrXrXrXrXrXrXrXrXrXrXrXrXrXrXrXrXrXrX",
"rXrXrXrXrXrXrX# M M { { A s 9.7 Q .XY.qX(.l.rX9 t.r.e.q.f.f., rXrXrXrXrXrXrXrXrXrXrXrXrXrXrXrXrXrXrX",
"rXrXrXrXrXrXrXd = ` |.}.` | &.2 r E A Y.L.s.g <.7.7.0./.z.v.1 rXrXrXrXrXrXrXrXrXrXrXrXrXrXrXrXrXrXrX",
"rXrXrXrXrXrX8 x M }.+X+X} ^ h.Q.| q ^ OX`.c.4 u 8.:.i @Xz.F.G rXrXrXrXrXrXrXrXrXrXrXrXrXrXrXrXrXrXrX",
"rXrXrXrXrXt w @ V +X+X+X{ ^ %X1X9XG.i @X*Xc.&.u.r.r.8.i p.~. .rXrXrXrXrXrXrXrXrXrXrXrXrXrXrXrXrXrXrX",
"rXrXrXrXrX, rX@ ` #X#X+X[ .X,X,X1X,X~ C %Xn.:.r.e.e.q.,.T E.P ; rXrXrXrXrXrXrXrXrXrXrXrXrXrXrXrXrXrX",
"rXrXrXrXt rXrX# } #X+X[ ] &X,X>X>X<X&XH G.k.-.e.e.q.!.N.g.E.Z.w rXrXrXrXrXrXrXrXrXrXrXrXrXrXrXrXrXrX",
"rXrXrXrXt rXrX# V } { N ] $X*X:X>X;X-X .4 s.3.:.$.3.*XB.k..X!., rXrXrXrXrXrXrXrXrXrXrXrXrXrXrXrXrXrX",
"rXrXrX& w rXrXl B j j X.R..X@. XXXXXXXO.r s.;.e.w.8.n.f...~...9 rXrXrXrXrXrXrXrXrXrXrXrXrXrXrXrXrXrX",
"rXrXrX& rXrXrXh ' ' Z n o.,X-X=X;X9X9X;XH h.&.e.r.u.8.1.X.@.l rXrXrXrXrXrXrXrXrXrXrXrXrXrXrXrXrXrXrX",
"rXrXrXe rXrXrXrXrXrXrXrXo.<X>X,X<X1X9X,X^ F 7 >.c.].f.W Q. XF.rXrXrXrXrXrXrXrXrXrXrXrXrXrXrXrXrXrXrX",
"rXrXrX=.rXrXrXrXrXrXrXrX' >X>X>X>X>X>X,X~.x F 0 D.;Xf.h.~..XR.rXrXrXrXrXrXrXrXrXrXrXrXrXrXrXrXrXrXrX",
"rXrXrXt rXrXrXrXrXrXrXrX' ;X>X>X>X>X>X,X&Xx 5.g.p.G.f. .W. XE rXrXrXrXrXrXrXrXrXrXrXrXrXrXrXrXrXrXrX",
"rXrXrXo rXrXrXrXrXrXrXrX' *X>X>X>X>X>X>X,X~ s 5.D.s j.Q W.Q.1 rXrXrXrXrXrXrXrXrXrXrXrXrXrXrXrXrXrXrX",
"rXrX  X rXrXrXrXrXrXrXrXrXR.&X:X,X,X,X<X-XE 0 *.i ;. .v !.@.f rXrXrXrXrXrXrXrXrXrXrXrXrXrXrXrXrXrXrX",
"rXrX% 3 rXrXrXrXrXrXrXrXrXS ~..X&X-X&X XO..Xv &.u ;.C y 1.s & rXrXrXrXrXrXrXrXrXrXrXrXrXrXrXrXrXrXrX",
"rXrXrXw rXrXrXrXrXrXrXrXrXz E.X.W.E.O.Q.&X>X^ q 3.F.q 7 $.$.8 rXrXrXrXrXrXrXrXrXrXrXrXrXrXrXrXrXrXrX",
"rXrXrXrXrXrXrXrXrXrXrXrXrXrXE..XOX*X;X,X,X>X:X!.@XG.4.P $.q - rXrXrXrXrXrXrXrXrXrXrXrXrXrXrXrXrXrXrX",
"rXrXrXrXrXrXrXrXrXrXrXrXrXrXk W.oX$X-X>X>X,X>X%X$X| 2Xj.#.J r . rXrXrXrXrXrXrXrXrXrXrXrXrXrXrXrXrXrX",
"rXrXrXrXrXrXrXrXrXrXrXrXrXrXrXZ Q..X.X%X-X>X%X.XZ.2X6Xd.#.L.D.$ rXrXrXrXrXrXrXrXrXrXrXrXrXrXrXrXrXrX",
"rXrXrXrXrXrXrXrXrXrXrXrXrXrXrXrXS Q. X.X~.E.R C {.qX6X3.y {.4X2 rXrXrXrXrXrXrXrXrXrXrXrXrXrXrXrXrXrX",
"rXrXrXrXrXrXrXrXrXrXrXrXrXrXrXrXrXn ' o.rXrX< /.0X0X6X1.s 6X0X5.. rXrXrXrXrXrXrXrXrXrXrXrXrXrXrXrXrX",
"rXrXrXrXrXrXrXrXrXrXrXrXrXrXrXrXrXrXrXrXrXrXL.0X0X0X6Xs p.0XqX'.* rXrXrXrXrXrXrXrXrXrXrXrXrXrXrXrXrX",
"rXrXrXrXrXrXrXrXrXrXrXrXrXrXrXrXrXrXrXrXrXO U.6X7X0X6Xs (.qX0X5Xc rXrXrXrXrXrXrXrXrXrXrXrXrXrXrXrXrX",
"rXrXrXrXrXrXrXrXrXrXrXrXrXrXrXrXrXrXrXrXrXrXrXY R '.U.4 ).qX0X0Xk.rXrXrXrXrXrXrXrXrXrXrXrXrXrXrXrXrX",
"rXrXrXrXrXrXrXrXrXrXrXrXrXrXrXrXrXrXrXrXrXrXrXrXrXrXrX: ) {.2X8X'.& rXrXrXrXrXrXrXrXrXrXrXrXrXrXrXrX",
"rXrXrXrXrXrXrXrXrXrXrXrXrXrXrXrXrXrXrXrXrXrXrXrXrXrXrXrXrXn U _ K.f rXrXrXrXrXrXrXrXrXrXrXrXrXrXrXrX",
"rXrXrXrXrXrXrXrXrXrXrXrXrXrXrXrXrXrXrXrXrXrXrXrXrXrXrXrXrXrXrXrXrXrXrXrXrXrXrXrXrXrXrXrXrXrXrXrXrXrX"
};
