/* XPM */
static char *result[] = {
/* columns rows colors chars-per-pixel */
"50 50 219 2 ",
"   c #141B1E",
".  c #192E35",
"X  c #152F39",
"o  c #1F3238",
"O  c #293234",
"+  c #20343B",
"@  c #383A36",
"#  c #46343A",
"$  c #4C413E",
"%  c #263F47",
"&  c #5B3942",
"*  c #5F3C44",
"=  c #623E46",
"-  c #633E47",
";  c #29454F",
":  c #2B464E",
">  c #314648",
",  c #37484B",
"<  c #364A4E",
"1  c #3B494D",
"2  c #264552",
"3  c #254E5E",
"4  c #284D59",
"5  c #284C5A",
"6  c #3C4D50",
"7  c #32545E",
"8  c #194F63",
"9  c #1F566B",
"0  c #255061",
"q  c #265566",
"w  c #325A68",
"e  c #305F70",
"r  c #1F627B",
"t  c #2E6576",
"y  c #3F6D7C",
"u  c #594743",
"i  c #55514A",
"p  c #51524F",
"a  c #5B574C",
"s  c #474E52",
"d  c #44595A",
"f  c #5F5851",
"g  c #69444D",
"h  c #6E4E52",
"j  c #6A5555",
"k  c #775653",
"l  c #5C625A",
"z  c #5E605E",
"x  c #5C665F",
"c  c #6C6657",
"v  c #66655B",
"b  c #69665C",
"n  c #756B58",
"m  c #485F60",
"M  c #555E63",
"N  c #426166",
"B  c #4A676A",
"V  c #5E6A65",
"C  c #5E6E6D",
"Z  c #436973",
"A  c #436B75",
"S  c #4D7278",
"D  c #4F7479",
"F  c #51777F",
"G  c #736D60",
"H  c #746E60",
"J  c #6C776C",
"K  c #6C6E71",
"L  c #717375",
"P  c #747774",
"I  c #71757A",
"U  c #707D79",
"Y  c #895C62",
"T  c #806B65",
"R  c #8E6B69",
"E  c #807865",
"W  c #807866",
"Q  c #887C69",
"!  c #7C8678",
"~  c #828271",
"^  c #8D8C7A",
"/  c #948671",
"(  c #918873",
")  c #978B76",
"_  c #948E7B",
"`  c #9C9279",
"'  c #A4847B",
"]  c #A59677",
"[  c #A99B7F",
"{  c #2F6A81",
"}  c #2E7189",
"|  c #2F738A",
" . c #397183",
".. c #3D7B8D",
"X. c #247494",
"o. c #2B7592",
"O. c #2E7C9A",
"+. c #2B7E9E",
"@. c #347B93",
"#. c #447380",
"$. c #447786",
"%. c #517C86",
"&. c #5A7980",
"*. c #637882",
"=. c #677D81",
"-. c #36809A",
";. c #36829F",
":. c #3E869E",
">. c #2982A6",
",. c #2C87AB",
"<. c #348BAB",
"1. c #2B8BB1",
"2. c #2C8DB4",
"3. c #328FB3",
"4. c #2F91B9",
"5. c #3991B4",
"6. c #3A98BC",
"7. c #5C878A",
"8. c #5D848C",
"9. c #448290",
"0. c #4C8692",
"q. c #588B93",
"w. c #508B9A",
"e. c #598E9D",
"r. c #6C8684",
"t. c #66898D",
"y. c #7E8285",
"u. c #718E8C",
"i. c #7B8D94",
"p. c #6A9293",
"a. c #6E999F",
"s. c #5593A6",
"d. c #5898A1",
"f. c #4395B2",
"g. c #659AA3",
"h. c #65A2AB",
"j. c #74A2A4",
"k. c #7AA4AA",
"l. c #64A2B7",
"z. c #6EADB4",
"x. c #7CB9B8",
"c. c #7ABCBF",
"v. c #74B8C4",
"b. c #828589",
"n. c #85878C",
"m. c #8B958A",
"M. c #939281",
"N. c #929D8F",
"B. c #9E9C88",
"V. c #9D988E",
"C. c #888B90",
"Z. c #839E96",
"A. c #9D9E9F",
"S. c #A8A78F",
"D. c #B9A785",
"F. c #B0A589",
"G. c #B0AA8E",
"H. c #A6AF9C",
"J. c #B6AD92",
"K. c #BEAF90",
"L. c #BCB295",
"P. c #8596A0",
"I. c #8B99A2",
"U. c #9A9DA2",
"Y. c #89A7A7",
"T. c #84A0AE",
"R. c #9FA3A6",
"E. c #97AAA6",
"W. c #9CACB4",
"Q. c #A3A4A4",
"!. c #A4A7A9",
"~. c #B4BAA7",
"^. c #AAAFB6",
"/. c #AEAFB4",
"(. c #B0B1B2",
"). c #B3B5BC",
"_. c #C2868E",
"`. c #CF8F96",
"'. c #D7939D",
"]. c #D8959E",
"[. c #C4B697",
"{. c #CEBD93",
"}. c #CBBC9D",
"|. c #DF99A3",
" X c #E89FAA",
".X c #EBA6AF",
"XX c #BEC6B3",
"oX c #D2C29E",
"OX c #CEC4A7",
"+X c #CCC9AD",
"@X c #D9C8A4",
"#X c #DBCDAC",
"$X c #D5D3B9",
"%X c #E0D0AE",
"&X c #E5D4B0",
"*X c #EAD9B4",
"=X c #EDDBB6",
"-X c #F0DEBA",
";X c #E9E1B4",
":X c #F1E0BB",
">X c #F2E1BC",
",X c #F4E4BD",
"<X c #F8E8BF",
"1X c #A4BAC5",
"2X c #B6BCC4",
"3X c #BDC4CB",
"4X c #C9CCD2",
"5X c #CACED5",
"6X c #C7CED9",
"7X c #F2EDC3",
"8X c #FAEDC2",
"9X c #FEF2C6",
"0X c #FEF8CB",
"qX c #FFFDD0",
"wX c #D6DAE2",
"eX c #D9DDE4",
"rX c #E0E4EC",
"tX c #E4E8F0",
"yX c None",
/* pixels */
"yXyXyXyXyXyXyXyXyXyXyXyXyXyXyXyXyXyXyXyXyXyXyXyXyXyXyXyXyXyXyXyXyXyXyXyXyXyXyXyXyXyXyXyXyXyXyXyXyXyX",
"yXyXyXyXyXyXyXyXyXyXyXyXyXyXyXyXyXL yXyXyXyXyXyXyXyXyXyXyXyXyXyXyXyXyXyXyXyXyXyXyXyXyXyXyXyXyXyXyXyX",
"yXyXyXyXyXyXyXyXyXyXyX  yXyXyXyXyXR.yXyXyXyXyXyXyXyXyXyXyXyXyXyXyXyXyXyXyXyXyXyXyXyXyXyXyXyXyXyXyXyX",
"yXyXyXyXyXyXyXyXyXyX> 7 yXyXyXyXb Q.yXyXyXyXyXyXyXyXyXyXyXyXyXyXyXyXyXyXyXyXyXyXyXyXyXyXyXyXyXyXyXyX",
"yXyXyXyXyXyXyXyXyXyXO yXyXyXyXyXA.(.yXyXyXyXyXyXyXyXyXyXyXyXyXyXyXyXyXyXyXyXyXyXyXyXyXyXyXyXyXyXyXyX",
"yXyXyXyXyXyXyXyXyXyX6 yXyXyXz U.4X!.yXyXyXyXyXyXyXyXyXyXyXyXyXyXyXyXyXyXyXyXyXyXyXyXyXyXyXyXyXyXyXyX",
"yXyXyXyXyXyXyXyXyXyXA yXyXyXP rXeXL L yXyXyXyXyXyXyXyXyXyXyXyXyXyXyXyXyXyXyXyXyXyXyXyXyXyXyXyXyXyXyX",
"yXyXyXyXyXyXyXyXyXyXd ; e 3 6 4XtX3XE.m yXyXyXyXyXyXyXyXyXyXyXyXyXyXyXyXyXyXyXyXyXyXyXyXyXyXyXyXyXyX",
"yXyXyXyXyX@ yXyXyXN Z +.4.,.o.=.^.Y.7.yXyXyXyXyXyXyXyXyXyXyXyXyXyXyXyXyXyXyXyXyXyXyXyXyXyXyXyXyXyXyX",
"yXyXyXyXyX< , yXyX#.$.,.4.1.o.Z j.&., yXyXyXyXyXyXyXyXyXyXyXyXyXyXyXyXyXyXyXyXyXyXyXyXyXyXyXyXyXyXyX",
"yXyXyXyXyX: S , 3 9...6.<.@.g.z...{ y 2 O yXyXyXyXyXyXyXyXyXyXyXyXyXyXyXyXyXyXyXyXyXyXyXyXyXyXyXyXyX",
"yXyXyXyXyXyXD 8.t d.| -.d.c.d.@.1.3.,.<.| e yXyXyXyXyXyXyXyXyXyXyXyXyXyXyXyXyXyXyXyXyXyXyXyXyXyXyXyX",
"yXyXyXyXyXyX> z.z.c.q.z.c.q.O.2.2.2.+.X.<.-.% yX% % yXyXyXyXyXyXyXyXyXyXyXyXyXyXyXyXyXyXyXyXyXyXyXyX",
"yXyXyXyXyXyX5 q.v.x.c.h.8.W.5.2.2.2.4.,.r | #.=.s yXyXyXyXyXyXyXyXyXyXyXyXyXyXyXyXyXyXyXyXyXyXyXyXyX",
"yXyXyXyXyXyXe.F 0.0.9.s ' 1X,.2.2.1.X.r w T.3XT.:.e yXyXyXyXyXyXyXyXyXyXyXyXyXyXyXyXyXyXyXyXyXyXyXyX",
"yXyXyXyXyXyXA ..| w.:.y i.l.,.2.1.r Z i.3XrX2X;.,.} yXyXyXyXyXyXyXyXyXyXyXyXyXyXyXyXyXyXyXyXyXyXyXyX",
"yXyXyXyXyXyXz r.u.Z.p.f.4.2.2.2.>.w ).wXtXtX^.5 9 yXyXyXyXyXyXyXyXyXyXyXyXyXyXyXyXyXyXyXyXyXyXyXyXyX",
"yXyXyXyXyXyX( [./ Q ` S ,.2.2.2.1.{ U.4XwXrX2Xi yXyXyXyXyXyXyXyXyXyXyXyXyXyXyXyXyXyXyXyXyXyXyXyXyXyX",
"yXyXyXyXyXyXa j g & u G @.2.1.2.2.+.I.5XwX5X).n.yXK y.yXyXyXyXyXyXyXyXyXyXyXyXyXyXyXyXyXyXyXyXyXyXyX",
"yXyXyXyXyXyX@ h g - # u S ,.1.2.,.$.6XtXeXP.p yXyXK y.yXyXyXyXyXyXyXyXyXyXyXyXyXyXyXyXyXyXyXyXyXyXyX",
"yXyXyXyXyXyXyXu g * Y Y f | ,.r %.M.).tXW.{ yXyXyXR.C.yXyXyXyXyXyXyXyXyXyXyXyXyXyXyXyXyXyXyXyXyXyXyX",
"yXyXyXyXyXyXyX$ = Y `._.k y X.8 ! @XV.wXI.q yXyXyX^.C.yXyXyXyXyXyXyXyXyXyXyXyXyXyXyXyXyXyXyXyXyXyXyX",
"yXyXyXyXyXyXyX$ h '. X|.R F F J w C Q V.8.t.yXyXyX^.C.yXyXyXyXyXyXyXyXyXyXyXyXyXyXyXyXyXyXyXyXyXyXyX",
"yXyXyXyXyXyX3 s Y  X X].T C F.{.S.B ! =Xk.l.P yXyX^.n.yXyXyXyXyXyXyXyXyXyXyXyXyXyXyXyXyXyXyXyXyXyXyX",
"yXyXyXyXyX7 4 u _..X.X_.) OX>X9XqXH.B %X~.f.N yXyXU./.yXyXyXyXyXyXyXyXyXyXyXyXyXyXyXyXyXyXyXyXyXyXyX",
"yXyXyXyXyX5 o u `..X_.R F.:X-X8X0X;XB B.$X5.9 yXyX&.*.yXyXyXyXyXyXyXyXyXyXyXyXyXyXyXyXyXyXyXyXyXyXyX",
"yXyXyXyXyX% O f h Y g Q OX:X-X>X<X8XS.C XX<.9 yX-.6.<.q yXyXyXyXyXyXyXyXyXyXyXyXyXyXyXyXyXyXyXyXyXyX",
"yXyXyXyXyXX @ / ) ) ` W J.-X-X-X-X:X[.S E. .6 } | X.+.e.m yXyXyXyXyXyXyXyXyXyXyXyXyXyXyXyXyXyXyXyXyX",
"yXyXyXyXyXX yXyXyXyXyXyXE }.[.[.oX@XK.l m.w.8.f.5.O.| B.V yXyXyXyXyXyXyXyXyXyXyXyXyXyXyXyXyXyXyXyXyX",
"yXyXyXyXyXX yXyXyXyXyXyX_ &XoX@X;X7X7XJ S.h.$.3.4.4.3.y d yXyXyXyXyXyXyXyXyXyXyXyXyXyXyXyXyXyXyXyXyX",
"yXyXyXyXyX. yXyXyXyXyXyX_ ,X:X<X0XqX0X! N.Y...+.>.,.k.r.V yXyXyXyXyXyXyXyXyXyXyXyXyXyXyXyXyXyXyXyXyX",
"yXyXyXyXyXo yXyXyXyXyXyX_ ,X-X>X8X0XqXG.B.XXO.O.,.@.~.M.V yXyXyXyXyXyXyXyXyXyXyXyXyXyXyXyXyXyXyXyXyX",
"yXyXyXyXyXo yXyXyXyXyXyX_ :X-X-X,X8X9XG.U OX..>.4.1.w.p.d yXyXyXyXyXyXyXyXyXyXyXyXyXyXyXyXyXyXyXyXyX",
"yXyXyXyXyXyXX yXyXyXyXyX_ -X-X-X-X:X,XJ.B #XZ.%.<.s.0.g.t.: yXyXyXyXyXyXyXyXyXyXyXyXyXyXyXyXyXyXyXyX",
"yXyXyXyXyXyX+ yXyXyXyXyXH #X>X-X-X-X:X#XJ [.t.U Z OXE.=.m.9 yXyXyXyXyXyXyXyXyXyXyXyXyXyXyXyXyXyXyXyX",
"yXyXyXyXyXyX. yXyXyXyXyXyXK.-X>X-X-X:X%Xx =.{ $.S m.j.r.! yXyXyXyXyXyXyXyXyXyXyXyXyXyXyXyXyXyXyXyXyX",
"yXyXyXyXyXyXyXyXyXyXyXyXyXc G.#X=X&X&XK.x r.N.;.H.u.e.^ d yXyXyXyXyXyXyXyXyXyXyXyXyXyXyXyXyXyXyXyXyX",
"yXyXyXyXyXyXyXyXyXyXyXyXyXi ` ] [.[ D.K.@X=X=Xa.u.q.N.F.~ yXyXyXyXyXyXyXyXyXyXyXyXyXyXyXyXyXyXyXyXyX",
"yXyXyXyXyXyXyXyXyXyXyXyXyXyXF.&X&X&X*X-X:X-X>XH.:.9.B.K.~ yXyXyXyXyXyXyXyXyXyXyXyXyXyXyXyXyXyXyXyXyX",
"yXyXyXyXyXyXyXyXyXyXyXyXyXyXW @X=X-X-X-X-X-X:X+Xg.m./ [ 1 yXyXyXyXyXyXyXyXyXyXyXyXyXyXyXyXyXyXyXyXyX",
"yXyXyXyXyXyXyXyXyXyXyXyXyXyXp F.OX=X-X-X-X-X:XOX$XJ.v U 4 . yXyXyXyXyXyXyXyXyXyXyXyXyXyXyXyXyXyXyXyX",
"yXyXyXyXyXyXyXyXyXyXyXyXyXyXyXa J.@X=X-X-X>X*XOX#Xm.U w 0 C 1 + yXyXyXyXyXyXyXyXyXyXyXyXyXyXyXyXyXyX",
"yXyXyXyXyXyXyXyXyXyXyXyXyXyXyXyXc F.}.#X%X}.F.L.H I b.M 2 I I < + . yXyXyXyXyXyXyXyXyXyXyXyXyXyXyXyX",
"yXyXyXyXyXyXyXyXyXyXyXyXyXyXyXyXyXi E ( ) n b yXyXyXyXyXyXyXyXyXyXyXyXyXyXyXyXyXyXyXyXyXyXyXyXyXyXyX",
"yXyXyXyXyXyXyXyXyXyXyXyXyXyXyXyXyXyXyXyXyXyXyXyXyXyXyXyXyXyXyXyXyXyXyXyXyXyXyXyXyXyXyXyXyXyXyXyXyXyX",
"yXyXyXyXyXyXyXyXyXyXyXyXyXyXyXyXyXyXyXyXyXyXyXyXyXyXyXyXyXyXyXyXyXyXyXyXyXyXyXyXyXyXyXyXyXyXyXyXyXyX",
"yXyXyXyXyXyXyXyXyXyXyXyXyXyXyXyXyXyXyXyXyXyXyXyXyXyXyXyXyXyXyXyXyXyXyXyXyXyXyXyXyXyXyXyXyXyXyXyXyXyX",
"yXyXyXyXyXyXyXyXyXyXyXyXyXyXyXyXyXyXyXyXyXyXyXyXyXyXyXyXyXyXyXyXyXyXyXyXyXyXyXyXyXyXyXyXyXyXyXyXyXyX",
"yXyXyXyXyXyXyXyXyXyXyXyXyXyXyXyXyXyXyXyXyXyXyXyXyXyXyXyXyXyXyXyXyXyXyXyXyXyXyXyXyXyXyXyXyXyXyXyXyXyX",
"yXyXyXyXyXyXyXyXyXyXyXyXyXyXyXyXyXyXyXyXyXyXyXyXyXyXyXyXyXyXyXyXyXyXyXyXyXyXyXyXyXyXyXyXyXyXyXyXyXyX"
};
