/* XPM */
static char *result[] = {
/* columns rows colors chars-per-pixel */
"50 50 217 2 ",
"   c #1C2B32",
".  c #192F37",
"X  c #1A2E37",
"o  c #193039",
"O  c #213035",
"+  c #293132",
"@  c #28373A",
"#  c #2C3D3F",
"$  c #3A3835",
"%  c #3F3A34",
"&  c #3E3D38",
"*  c #3C3D3A",
"=  c #4C383A",
"-  c #583D3E",
";  c #193743",
":  c #22434E",
">  c #324549",
",  c #36464B",
"<  c #2A4753",
"1  c #2C4C56",
"2  c #2D4C56",
"3  c #185268",
"4  c #1D586F",
"5  c #2A5C6D",
"6  c #2F5D6C",
"7  c #3A5761",
"8  c #375863",
"9  c #385860",
"0  c #3F5E62",
"q  c #3D5E64",
"w  c #2C5D71",
"e  c #2E5E71",
"r  c #2B687E",
"t  c #336678",
"y  c #454443",
"u  c #4C4240",
"i  c #55524B",
"p  c #4D5754",
"a  c #585D59",
"s  c #67424A",
"d  c #60544D",
"f  c #665E4D",
"g  c #6C4E50",
"h  c #605C53",
"j  c #6A5953",
"k  c #666053",
"l  c #6E685B",
"z  c #6B685E",
"x  c #5D5F61",
"c  c #40606B",
"v  c #476368",
"b  c #45686D",
"n  c #576A6C",
"m  c #416473",
"M  c #496D73",
"N  c #4F6B74",
"B  c #416B7A",
"V  c #5E6E79",
"C  c #4D767F",
"Z  c #51727B",
"A  c #65696B",
"S  c #776A60",
"D  c #64746E",
"F  c #7F7765",
"G  c #7F7865",
"H  c #6F6F71",
"J  c #707371",
"K  c #707175",
"L  c #97656B",
"P  c #97676E",
"I  c #8D716E",
"U  c #837B68",
"Y  c #867F6B",
"T  c #A16C77",
"R  c #A77879",
"E  c #7D8070",
"W  c #748078",
"Q  c #70837E",
"!  c #7C817D",
"~  c #7C867F",
"^  c #8A816E",
"/  c #8F8774",
"(  c #898A7A",
")  c #968C77",
"_  c #9A9177",
"`  c #97917C",
"'  c #236985",
"]  c #25708E",
"[  c #2F718B",
"{  c #397584",
"}  c #30748A",
"|  c #37748B",
" . c #3E7C8E",
".. c #2A7794",
"X. c #297A9A",
"o. c #287B9C",
"O. c #337993",
"+. c #307E9A",
"@. c #437682",
"#. c #4F7B85",
"$. c #4D7E89",
"%. c #5D7C84",
"&. c #7C7E82",
"*. c #3F8298",
"=. c #2781A3",
"-. c #2B86A8",
";. c #2D8AAD",
":. c #3183A1",
">. c #3589AA",
",. c #2C8DB4",
"<. c #2D8FB5",
"1. c #338EB0",
"2. c #3691B3",
"3. c #3091B8",
"4. c #3696BA",
"5. c #4F818E",
"6. c #478793",
"7. c #46879E",
"8. c #548A93",
"9. c #5D8893",
"0. c #539199",
"q. c #6D8687",
"w. c #65858C",
"e. c #7C8D86",
"r. c #6E908E",
"t. c #778994",
"y. c #6D9496",
"u. c #7B9390",
"i. c #7B9099",
"p. c #7B9B9C",
"a. c #418BA5",
"s. c #4C8FA4",
"d. c #4092B0",
"f. c #4798B4",
"g. c #6098A3",
"h. c #6E99A3",
"j. c #7D9CA7",
"k. c #49A1BA",
"l. c #58A0B5",
"z. c #66A2A9",
"x. c #65A6AD",
"c. c #6EB1BB",
"v. c #77BCBE",
"b. c #838487",
"n. c #858689",
"m. c #829088",
"M. c #8D998A",
"N. c #8D8F93",
"B. c #899299",
"V. c #8D959D",
"C. c #919394",
"Z. c #9C9F95",
"A. c #BC8289",
"S. c #A19880",
"D. c #A59B80",
"F. c #8EA49D",
"G. c #ACA289",
"H. c #B2A385",
"J. c #B1A288",
"K. c #B6AA8F",
"L. c #A8A791",
"P. c #B7AD92",
"I. c #BBB094",
"U. c #B9B49A",
"Y. c #9B9EA0",
"T. c #9C9EA3",
"R. c #96AAA1",
"E. c #9EAFA1",
"W. c #94A7B2",
"Q. c #A1A4A8",
"!. c #A3A7AC",
"~. c #ABB1A0",
"^. c #AFB7AF",
"/. c #B3B5A0",
"(. c #BEBBA0",
"). c #AAB0B7",
"_. c #B1B4B9",
"`. c #B2B5BA",
"'. c #CC8E95",
"]. c #C1B494",
"[. c #C3B79A",
"{. c #C8B998",
"}. c #DD99A1",
"|. c #E8A1AA",
" X c #CEC09F",
".X c #CAC3A5",
"XX c #D5C6A0",
"oX c #D2C5A5",
"OX c #DACAA9",
"+X c #CECCB2",
"@X c #DBD2B4",
"#X c #D9D4B8",
"$X c #E0CFAD",
"%X c #E5D5B1",
"&X c #E7D9B2",
"*X c #EBDAB5",
"=X c #EFDCB6",
"-X c #F0DEBA",
";X c #F1DFBA",
":X c #F1E1BB",
">X c #F3E3BD",
",X c #F6E7BE",
"<X c #B1B9C2",
"1X c #86C8C6",
"2X c #BFC1C4",
"3X c #BBC1C8",
"4X c #C2C5CB",
"5X c #C4C9D1",
"6X c #CCD0D6",
"7X c #CED2DA",
"8X c #FCEEC4",
"9X c #FEF7CA",
"0X c #D5D9E1",
"qX c #DDE1E8",
"wX c #E2E6ED",
"eX c #E6E9F1",
"rX c None",
/* pixels */
"rXrXrXrXrXrXrXrXrXrXrXrXrXrXrXrXrXrXrXrXrXrXrXrXrXrXrXrXrXrXrXrXrXrXrXrXrXrXrXrXrXrXrXrXrXrXrXrXrXrX",
"rXrXrXrXrXrXrXrXrXrXrXrXrXrXrXrXrXrXrXrXrXrXrXrXrXrXrXrXrXrXrXrXrXrXrXrXrXrXrXrXrXrXrXrXrXrXrXrXrXrX",
"rXrXrXrXrXrXrXrXrXrXrXrXrXrXrXrXrXrXA rXrXrXrXrXrXrXrXrXrXrXrXrXrXrXrXrXrXrXrXrXrXrXrXrXrXrXrXrXrXrX",
"rXrXrXrXrXrXrXrXrXrXrXrXrXrXrXrXrXC.C.rXrXrXrXrXrXrXrXrXrXrXrXrXrXrXrXrXrXrXrXrXrXrXrXrXrXrXrXrXrXrX",
"rXrXrXrXrXrXrXrXrXrX# rXrXrXrXrXrX_.Y.rXrXrXrXrXrXrXrXrXrXrXrXrXrXrXrXrXrXrXrXrXrXrXrXrXrXrXrXrXrXrX",
"rXrXrXrXrXrXrXrXrXrX> rXrXrXrXrXb.4XrXrXrXrXrXrXrXrXrXrXrXrXrXrXrXrXrXrXrXrXrXrXrXrXrXrXrXrXrXrXrXrX",
"rXrXrXrXrXrXrXrXrXrXO rXrXrXy x ).`.rXrXrXrXrXrXrXrXrXrXrXrXrXrXrXrXrXrXrXrXrXrXrXrXrXrXrXrXrXrXrXrX",
"rXrXrXrXrXrXrXrXrXrX0 rXrXrXJ 6XwXQ.rXn.rXrXrXrXrXrXrXrXrXrXrXrXrXrXrXrXrXrXrXrXrXrXrXrXrXrXrXrXrXrX",
"rXrXrXrXrXrXrXrXrXq 1 rXrXrXJ qXeX2X^.rXrXrXrXrXrXrXrXrXrXrXrXrXrXrXrXrXrXrXrXrXrXrXrXrXrXrXrXrXrXrX",
"rXrXrXrXrXrXrXrXrX0 2 e w : x 0XeXqX~ rXrXrXrXrXrXrXrXrXrXrXrXrXrXrXrXrXrXrXrXrXrXrXrXrXrXrXrXrXrXrX",
"rXrXrXrXrX# rXrXrX#.} 3.<.-.} t.).i.7 rXrXrXrXrXrXrXrXrXrXrXrXrXrXrXrXrXrXrXrXrXrXrXrXrXrXrXrXrXrXrX",
"rXrXrXrXrXb rXrX2 $.-.4.4.-...@.8. .d.| 8 rXrXrXrXrXrXrXrXrXrXrXrXrXrXrXrXrXrXrXrXrXrXrXrXrXrXrXrXrX",
"rXrXrXrXrXq M 2 { 6.1.k.:.6.z.0.} ..o.-.:.2 rXrXrXrXrXrXrXrXrXrXrXrXrXrXrXrXrXrXrXrXrXrXrXrXrXrXrXrX",
"rXrXrXrXrXrX9.t  .6.O.6.x.v.6.:.<.1.-.>...O., rXrXrXrXrXrXrXrXrXrXrXrXrXrXrXrXrXrXrXrXrXrXrXrXrXrXrX",
"rXrXrXrXrXrXC 8.z.g.0.v.x. .-.<.<.-...=.>.:.} > > rXrXrXrXrXrXrXrXrXrXrXrXrXrXrXrXrXrXrXrXrXrXrXrXrX",
"rXrXrXrXrXrX5.c.1X1Xv.0.w.O.,.,.,.,.,.]  . .h.9.| 8 rXrXrXrXrXrXrXrXrXrXrXrXrXrXrXrXrXrXrXrXrXrXrXrX",
"rXrXrXrXrX8 $.5.x.x.@.S 5Xd.,.,.<.-.] 5 j.3XW.>.;.[ rXrXrXrXrXrXrXrXrXrXrXrXrXrXrXrXrXrXrXrXrXrXrXrX",
"rXrXrXrXrXrX7 t @.{ 9 I j.o.,.,.o.5 q.<XqX0X#.4 1 rX$ rXrXrXrXrXrXrXrXrXrXrXrXrXrXrXrXrXrXrXrXrXrXrX",
"rXrXrXrXrXrX6 w.r.8.k.;.=.;.,.;.3 i.7XwXeX3X1 rXrXrXK rXrXrXrXrXrXrXrXrXrXrXrXrXrXrXrXrXrXrXrXrXrXrX",
"rXrXrXrXrXrX` [.].L.%.;.<.,.,.,.' V.4X0X0X0X&.rXrXrX&.rXrXrXrXrXrXrXrXrXrXrXrXrXrXrXrXrXrXrXrXrXrXrX",
"rXrXrXrXrX$ j g s d F { ,.,.,.<.=.i.5X0X6X_.T.rXrXrX! rXrXrXrXrXrXrXrXrXrXrXrXrXrXrXrXrXrXrXrXrXrXrX",
"rXrXrXrXrXrXu s s = = p o.,.<.;.] W.eXwXW.m rXrXrXrXV.rXrXrXrXrXrXrXrXrXrXrXrXrXrXrXrXrXrXrXrXrXrXrX",
"rXrXrXrXrXrX& s s P L j t ;.o.@.L.Z.wX<Xt 4 rXrXrXrX!.z rXrXrXrXrXrXrXrXrXrXrXrXrXrXrXrXrXrXrXrXrXrX",
"rXrXrXrXrXrX+ = T }.|.R E ..3 D OX) _.V.@.! rXrXrXn.5XC.y rXrXrXrXrXrXrXrXrXrXrXrXrXrXrXrXrXrXrXrXrX",
"rXrXrXrXrXrX% g }.|.|.R Q @.n 5 E  XG.p.f.~.rXrXrXn.3XrX, rXrXrXrXrXrXrXrXrXrXrXrXrXrXrXrXrXrXrXrXrX",
"rXrXrXrXrXrX* R |.}.'.I W .X=XM.9 .X9X/.>.y.rXrXrXK 4Xh H rXrXrXrXrXO rXy rXH i rXrXrXrXrXrXrXrXrXrX",
"rXrXrXrXrXX u A.}.I I ) &X:X,X9XM.Q ,X+Xd.+.rXrXrXc w.B n x K K N.a N 3X3X_.B.rXrXrXrXrXrXrXrXrXrXrX",
"rXrXrXrXrX& d - s j ^ Y >X-X-X8XU.v oX#Xf.X.rXrX| 2.2.:.8.V.qXqX7XZ W.eX0XB.rXrXrXrXrXrXrXrXrXrXrXrX",
"rXrXrXrXrX@ S l l ^ G z OX;X-X-X$Xn L./.O.q rX[ 2.<.3.>.u.Q 0XwXW.t 5X5XV rXrXrXrXrXrXrXrXrXrXrXrXrX",
"rXrXrXrXrX. rXrXrXrXrXrXD.].{.{.XX~ Q (.7.m.a *.] ' o.g.9.9 !.3X7.%.V.7 rXrXrXrXrXrXrXrXrXrXrXrXrXrX",
"rXrXrXrXrXX rXrXrXrXrXrX[.XXXX&X9XR.r.,Xz.w.v f.4.o.r D.u.N N 5.' < ; rXrXrXrXrXrXrXrXrXrXrXrXrXrXrX",
"rXrXrXrXrXX rXrXrXrXrXrX.X>X:X8X9XE.y.8XE.s. .3.<.3.<.@.W ~ } 9 : rXrXrXrXrXrXrXrXrXrXrXrXrXrXrXrXrX",
"rXrXrXrXrX  ; rXrXrXrXrX.X>X-X,X9XE.p.8X+Xd.O.-.-.,.a.q.( ) v 6 rXrXrXrXrXrXrXrXrXrXrXrXrXrXrXrXrXrX",
"rXrXrXrXrXrX. rXrXrXrXrX[.>X-X:X8XL.Q ,XOXs...:.:...~.P.a f f rXrXrXrXrXrXrXrXrXrXrXrXrXrXrXrXrXrXrX",
"rXrXrXrXrXrXo rXrXrXrXrXP.>X-X-X>X XE -X*Xh.t >.3.;.y.e.rXrXrXrXrXrXrXrXrXrXrXrXrXrXrXrXrXrXrXrXrXrX",
"rXrXrXrXrXrXrXo rXrXrXrX/ :X:X-X-X[.W -X:Xy.M.h.,.2.a.C rXrXrXrXrXrXrXrXrXrXrXrXrXrXrXrXrXrXrXrXrXrX",
"rXrXrXrXrXrXrX. + rXrXrXh oX>X;X;XZ.q.[.[.$.l.F.t ^.F.8 rXrXrXrXrXrXrXrXrXrXrXrXrXrXrXrXrXrXrXrXrXrX",
"rXrXrXrXrXrXrXrXX rXrXrXrX^ oX$X%XM.B l P.P.a.s.Z L.F.rXrXrXrXrXrXrXrXrXrXrXrXrXrXrXrXrXrXrXrXrXrXrX",
"rXrXrXrXrXrXrXrXrXrXrXrXrXU P.D.H._ Z ~.=X=XR.:.E.e.$.rXrXrXrXrXrXrXrXrXrXrXrXrXrXrXrXrXrXrXrXrXrXrX",
"rXrXrXrXrXrXrXrXrXrXrXrXrXh  X*X%X*X&X-X-X;X@X7.R.g.C rXrXrXrXrXrXrXrXrXrXrXrXrXrXrXrXrXrXrXrXrXrXrX",
"rXrXrXrXrXrXrXrXrXrXrXrXrXrX` &X:X-X;X-X-X-X=Xp.a.*.J rXrXrXrXrXrXrXrXrXrXrXrXrXrXrXrXrXrXrXrXrXrXrX",
"rXrXrXrXrXrXrXrXrXrXrXrXrXrXk  X-X-X-X-X-X=X>XR.g.m.rXrXrXrXrXrXrXrXrXrXrXrXrXrXrXrXrXrXrXrXrXrXrXrX",
"rXrXrXrXrXrXrXrXrXrXrXrXrXrXrX^ OX-X-X-X-X:X%X/.@XJ.rXrXrXrXrXrXrXrXrXrXrXrXrXrXrXrXrXrXrXrXrXrXrXrX",
"rXrXrXrXrXrXrXrXrXrXrXrXrXrXrXy G.OX*X:X>X%X{.%XI.rXrXrXrXrXrXrXrXrXrXrXrXrXrXrXrXrXrXrXrXrXrXrXrXrX",
"rXrXrXrXrXrXrXrXrXrXrXrXrXrXrXrXh Y G.P.H._ K.S.rXrXrXrXrXrXrXrXrXrXrXrXrXrXrXrXrXrXrXrXrXrXrXrXrXrX",
"rXrXrXrXrXrXrXrXrXrXrXrXrXrXrXrXrXrXrXi z rXrXrXrXrXrXrXrXrXrXrXrXrXrXrXrXrXrXrXrXrXrXrXrXrXrXrXrXrX",
"rXrXrXrXrXrXrXrXrXrXrXrXrXrXrXrXrXrXrXrXrXrXrXrXrXrXrXrXrXrXrXrXrXrXrXrXrXrXrXrXrXrXrXrXrXrXrXrXrXrX",
"rXrXrXrXrXrXrXrXrXrXrXrXrXrXrXrXrXrXrXrXrXrXrXrXrXrXrXrXrXrXrXrXrXrXrXrXrXrXrXrXrXrXrXrXrXrXrXrXrXrX",
"rXrXrXrXrXrXrXrXrXrXrXrXrXrXrXrXrXrXrXrXrXrXrXrXrXrXrXrXrXrXrXrXrXrXrXrXrXrXrXrXrXrXrXrXrXrXrXrXrXrX",
"rXrXrXrXrXrXrXrXrXrXrXrXrXrXrXrXrXrXrXrXrXrXrXrXrXrXrXrXrXrXrXrXrXrXrXrXrXrXrXrXrXrXrXrXrXrXrXrXrXrX"
};
