/* XPM */
static char *result[] = {
/* columns rows colors chars-per-pixel */
"50 50 220 2 ",
"   c #1F272A",
".  c #172D36",
"X  c #193038",
"o  c #23343A",
"O  c #26363A",
"+  c #3D3C3A",
"@  c #3E3E3E",
"#  c #283F47",
"$  c #303F42",
"%  c #104356",
"&  c #1D4656",
"*  c #27404A",
"=  c #21404E",
"-  c #2C424A",
";  c #364247",
":  c #36474B",
">  c #30454E",
",  c #344A51",
"<  c #2F515B",
"1  c #305059",
"2  c #385259",
"3  c #3E565D",
"4  c #37585F",
"5  c #39585E",
"6  c #255060",
"7  c #2C5866",
"8  c #2D5E6F",
"9  c #365660",
"0  c #3B5660",
"q  c #36616B",
"w  c #2E6071",
"e  c #2F6071",
"r  c #2B6378",
"t  c #2D677B",
"y  c #346172",
"u  c #306375",
"i  c #3D707F",
"p  c #424344",
"a  c #4A4744",
"s  c #474844",
"d  c #4C4C4B",
"f  c #4F5550",
"g  c #5F5653",
"h  c #624548",
"j  c #6D4C50",
"k  c #7A5157",
"l  c #666252",
"z  c #6E6255",
"x  c #6A6454",
"c  c #6C6556",
"v  c #79625E",
"b  c #446066",
"n  c #476369",
"m  c #4F6768",
"M  c #42686F",
"N  c #546762",
"B  c #586869",
"V  c #5F716E",
"C  c #406873",
"Z  c #426B77",
"A  c #436F7B",
"S  c #507178",
"D  c #507378",
"F  c #5B777B",
"G  c #606364",
"H  c #6C6E6F",
"J  c #657974",
"K  c #69777F",
"L  c #707275",
"P  c #717C74",
"I  c #7C7F73",
"U  c #8F6365",
"Y  c #807365",
"T  c #887A69",
"R  c #9E6F73",
"E  c #997772",
"W  c #A97A7C",
"Q  c #7C867C",
"!  c #88806B",
"~  c #8C816D",
"^  c #8E8673",
"/  c #8C8A77",
"(  c #878A7F",
")  c #908771",
"_  c #968C74",
"`  c #978D76",
"'  c #9A917C",
"]  c #286880",
"[  c #2E6E86",
"{  c #276D88",
"}  c #356E83",
"|  c #306E84",
" . c #3E7683",
".. c #387387",
"X. c #37768A",
"o. c #3E788D",
"O. c #3C7C8C",
"+. c #267491",
"@. c #277796",
"#. c #267C9D",
"$. c #2E7E9C",
"%. c #317790",
"&. c #317A96",
"*. c #387E98",
"=. c #437885",
"-. c #547D88",
";. c #727F86",
":. c #7E7F82",
">. c #31819F",
",. c #2881A4",
"<. c #2A86AB",
"1. c #2B89AE",
"2. c #3788A5",
"3. c #3388A8",
"4. c #328BAE",
"5. c #2B8CB1",
"6. c #2C8EB5",
"7. c #308EB2",
"8. c #2E90B7",
"9. c #3993B4",
"0. c #3496BB",
"q. c #3E9CBC",
"w. c #45828F",
"e. c #478794",
"r. c #40869D",
"t. c #508492",
"y. c #538B9A",
"u. c #558F9C",
"i. c #678081",
"p. c #738B8A",
"a. c #658D94",
"s. c #768791",
"d. c #749396",
"f. c #428CA3",
"g. c #4F90A7",
"h. c #4390AB",
"j. c #4794AF",
"k. c #5696A3",
"l. c #6198A7",
"z. c #7895A4",
"x. c #749DA2",
"c. c #729BA9",
"v. c #50A7BF",
"b. c #63A2AA",
"n. c #66A8B0",
"m. c #6BADB0",
"M. c #78BBBE",
"N. c #48A7C5",
"B. c #828486",
"V. c #898B8E",
"C. c #8B8D8D",
"Z. c #89988E",
"A. c #919581",
"S. c #9E9983",
"D. c #999B89",
"F. c #868B90",
"G. c #909194",
"H. c #909295",
"J. c #929499",
"K. c #BA8288",
"L. c #A59C83",
"P. c #A09F8C",
"I. c #8AA29D",
"U. c #9BA698",
"Y. c #B1A68B",
"T. c #B4A688",
"R. c #B3A98E",
"E. c #A7A690",
"W. c #A7AD95",
"Q. c #BCAE90",
"!. c #B2B19D",
"~. c #869FAD",
"^. c #999CA1",
"/. c #9B9EA3",
"(. c #83A7AA",
"). c #96A8A0",
"_. c #90A8AE",
"`. c #A2A5AA",
"'. c #A4A6A8",
"]. c #A8AAAF",
"[. c #A8B5A6",
"{. c #B7BCA8",
"}. c #A7AEB5",
"|. c #ACB3BA",
" X c #B0B3B6",
".X c #B1B3B6",
"XX c #B2B6BC",
"oX c #B6BABF",
"OX c #CC8D94",
"+X c #CCA49C",
"@X c #C2B190",
"#X c #C5B99A",
"$X c #CCBD9C",
"%X c #DE98A2",
"&X c #EBA5AC",
"*X c #D0C19E",
"=X c #CAC4A6",
"-X c #D1C2A0",
";X c #D7C9A8",
":X c #DFD3B1",
">X c #E7D6B2",
",X c #EFDDB8",
"<X c #F1E0BB",
"1X c #F3E3BC",
"2X c #F4E3BE",
"3X c #9CB5C0",
"4X c #B3BBC3",
"5X c #C2C5CC",
"6X c #C3C6CD",
"7X c #C7CAD1",
"8X c #CACED5",
"9X c #D9D9DA",
"0X c #FBEAC1",
"qX c #FDF4C8",
"wX c #D5D9E0",
"eX c #D9DDE5",
"rX c #E0E3EA",
"tX c #E5E9F0",
"yX c #ECEFF5",
"uX c None",
/* pixels */
"uXuXuXuXuXuXuXuXuXuXuXuXuXuXuXuXuXuXuXuXuXuXuXuXuXuXuXuXuXuXuXuXuXuXuXuXuXuXuXuXuXuXuXuXuXuXuXuXuXuX",
"uXuXuXuXuXuXuXuXuXuXuXuXuXuXuXuXuXuXuXuXuXuXuXuXuXuXuXuXuXuXuXuXuXuXuXuXuXuXuXuXuXuXuXuXuXuXuXuXuXuX",
"uXuXuXuXuXuXuXuXuXuXuXuXuXuXuXuXuXuXuXuXuXuXuXuXuXuXuXuXuXuXuXuXuXuXuXuXuXuXuXuXuXuXuXuXuXuXuXuXuXuX",
"uXuXuXuXuXuXuXuXuXuXuXuXuXuXuXuXp uXuXuXuXuXuXuXuXuXuXuXuXuXuXuXuXuXuXuXuXuXuXuXuXuXuXuXuXuXuXuXuXuX",
"uXuXuXuXuXuXuXuXuXuXuXuXuXuXuXuXH.uXuXuXuXuXuXuXuXuXuXuXuXuXuXuXuXuXuXuXuXuXuXuXuXuXuXuXuXuXuXuXuXuX",
"uXuXuXuXuXuXuXuXuXuXuXuXuXuXuXB.'.uXuXuXuXuXuXuXuXuXuXuXuXuXuXuXuXuXuXuXuXuXuXuXuXuXuXuXuXuXuXuXuXuX",
"uXuXuXuXuXuXuXuXuXuXuXuXuXuXuX].C.uXuXuXuXuXuXuXuXuXuXuXuXuXuXuXuXuXuXuXuXuXuXuXuXuXuXuXuXuXuXuXuXuX",
"uXuXuXuXuXuXuXuXuX  uXuXuXuXuX.XuXuXuXuXuXuXuXuXuXuXuXuXuXuXuXuXuXuXuXuXuXuXuXuXuXuXuXuXuXuXuXuXuXuX",
"uXuXuXuXuXuXuXuX$   uXuXuX+ G.oXuXG.uXuXuXuXuXuXuXuXuXuXuXuXuXuXuXuXuXuXuXuXuXuXuXuXuXuXuXuXuXuXuXuX",
"uXuXuXuXuXuXuXuX5 1 uXuXuX`.wX7X X'.uXuXuXuXuXuXuXuXuXuXuXuXuXuXuXuXuXuXuXuXuXuXuXuXuXuXuXuXuXuXuXuX",
"uXuXuXuXuXuXuXuXo uXuXuXuX7XtXyX9XuXuXuXuXuXuXuXuXuXuXuXuXuXuXuXuXuXuXuXuXuXuXuXuXuXuXuXuXuXuXuXuXuX",
"uXuXuXuXuXuXuXuX4 uXuXuXuX7XtXyX XuXuXuXuXuXuXuXuXuXuXuXuXuXuXuXuXuXuXuXuXuXuXuXuXuXuXuXuXuXuXuXuXuX",
"uXuXuXuXuXuXuXuXM $ uXuX; 7XrX7Xc...4 uXuXuXuXuXuXuXuXuXuXuXuXuXuXuXuXuXuXuXuXuXuXuXuXuXuXuXuXuXuXuX",
"uXuXuXO uXuXuX< w.%.$.$.u s.z.t.%.t 2.} uXuXuXuXuXuXuXuXuXuXuXuXuXuXuXuXuXuXuXuXuXuXuXuXuXuXuXuXuXuX",
"uXuXuX# $ uXuX5 X.7.0.0.6.&.] %. .$.8.9.y uXuXuXuXuXuXd uXuXuXuXuXuXuXuXuXuXuXuXuXuXuXuXuXuXuXuXuXuX",
"uXuXuX$ 4 uX1 i X.q.N.q.1.+. .=.{ 1.5.5.9.o.; uXuXuXuXF.V.uXuXuXuXuXuXuXuXuXuXuXuXuXuXuXuXuXuXuXuXuX",
"uXuXuXuXM n *.w.O.q.N.9.O.k.e.$.#.@.@.@.5.0.2.y 2 uXuX/.'.uXuXuXuXuXuXuXuXuXuXuXuXuXuXuXuXuXuXuXuXuX",
"uXuXuXuXZ t.{ y.O.v.f.y.m.e.#.6.<.5.0.>.,.#.] X.| uXuX^.uXuXuX+ uXuXuXuXuXuXuXuXuXuXuXuXuXuXuXuXuXuX",
"uXuXuXuX5 b.q b. .w.b.n.O.,.6.6.#.@.+.] X.-.b w uXuXuX`.s uXuXd uXuXuXuXuXuXuXuXuXuXuXuXuXuXuXuXuXuX",
"uXuXuXuXM u.n.M.m.M.n.i +.6.6.6.6.5.{ y.3XF.< uXuXuX:.5X}.C.uXF.L uXuXuXuXuXuXuXuXuXo uXuX$ @ uXuXuX",
"uXuXuXuX* q b.M.M.u.i._.<.6.6.6.,.] s.8X6XuXuXuXuXuX5XrX7XuXuX XeXB.uXuXuXH :.L @ 3 }.^.G , uXuXuXuX",
"uXuXuXuXuX> t.k.e.G +X3X<.6.6.{ a.|.eXtX/.uXuXuXuXuXXXrX6XuXuX].rXC.uXuX$ }.5Xs.b s.K 0 uXuXuXuXuXuX",
"uXuXuXuXuX& t O.f.g.-.&.1.6.#.& }.eXrXrX5XL uXuXuXuXJ.tX4X: u F d.: , # - -.X.& = * uXuXuXuXuXuXuXuX",
"uXuXuXuXs F a.d.k.q.8.6.6.6.1.{ ;..X5X8X|.G.uXuXuXuXH.wXc.{ { 3.&.X.t  .q 3 % uXuXuXuXuXuXuXuXuXuXuX",
"uXuXuXuXc #X$X#XA.D ,.6.6.6.6.,.~.rXtX}.B uXuXuXuXuXK z.4.8.] I.a.Z.=.i.i 0 uXuXuXuXuXuXuXuXuXuXuXuX",
"uXuXuXuXs g j h v T b ,.5.6.,.i XXtX4Xd.' uXuXuXuXr &.$.5.j.f.y.r.r.{ t e uXuXuXuXuXuXuXuXuXuXuXuXuX",
"uXuXuXuXuXa h k K.R z C 1.@.D _ ( 8Xz.g.W.uXuXuX8 4.6.6.>.[.x.X.C n f uXuXuXuXuXuXuXuXuXuXuXuXuXuXuX",
"uXuXuXuXuX@ j %X&X%XU J +.& S.1X:XE._.7.x.uXuXuX2.6.6.6.1.k.A uXuXuXuXuXuXuXuXuXuXuXuXuXuXuXuXuXuXuX",
"uXuXuXuXuXa R &X&X%XE V -.I b W.qX0X{.1.3.uXuXB 9.5.6.5.y.A uXuXuXuXuXuXuXuXuXuXuXuXuXuXuXuXuXuXuXuX",
"uXuXuXuXo g OX&X%XW T P.:X>XQ q =X0X{.2.[ uXuX9 ] { #.l.!.2 uXuXuXuXuXuXuXuXuXuXuXuXuXuXuXuXuXuXuXuX",
"uXuXuXuX: g k U v Y x #X1X<X>XV I ,XU.%.P uXZ q.7.5.#.i.).uXuXuXuXuXuXuXuXuXuXuXuXuXuXuXuXuXuXuXuXuX",
"uXuXuXuXa L._ ~ S.) uX` @X@X-XL.b #XE.f.).d 2.8.6.6.8.@.7 uXuXuXuXuXuXuXuXuXuXuXuXuXuXuXuXuXuXuXuXuX",
"uXuXuXuXO uXuXuXuXuXuXR.$X@X*X*XN =XqXc.l.J 3.6.6.6.1.f.w uXuXuXuXuXuXuXuXuXuXuXuXuXuXuXuXuXuXuXuXuX",
"uXuXuXuX. uXuXuXuXuXuXR.2X<X1XqXA.W.qX{.h.=.$.#.#.,.a.[.[ uXuXuXuXuXuXuXuXuXuXuXuXuXuXuXuXuXuXuXuXuX",
"uXuXuXuXX uXuXuXuXuXuXR.2X,X<X0XE.W.qX:Xj.{ @.6.,.+.E.{.Z uXuXuXuXuXuXuXuXuXuXuXuXuXuXuXuXuXuXuXuXuX",
"uXuXuXuXo uXuXuXuXuXuX' <X,X,X2XL.P.0X>Xl.%.$.8.0.8.u.d.S uXuXuXuXuXuXuXuXuXuXuXuXuXuXuXuXuXuXuXuXuX",
"uXuXuXuX  o uXuXuXuXuXc :X<X,X<XS.P.1X<X(.-.i.+.9.9.2.o.uXuXuXuXuXuXuXuXuXuXuXuXuXuXuXuXuXuXuXuXuXuX",
"uXuXuXuXuXX uXuXuXuXuXuXQ.1X<X1XS.P.1X<Xp.a.!.7 X.[.I.e uXuXuXuXuXuXuXuXuXuXuXuXuXuXuXuXuXuXuXuXuXuX",
"uXuXuXuXuXX uXuXuXuXuXuX~ :X<X2XS.Q ,XQ.F 4.(.D i -XI.uXuXuXuXuXuXuXuXuXuXuXuXuXuXuXuXuXuXuXuXuXuXuX",
"uXuXuXuXuX# * uXuXuXuXuX+ _ $X>XD.D T.T.;Xd.7.t.I.Q a.uXuXuXuXuXuXuXuXuXuXuXuXuXuXuXuXuXuXuXuXuXuXuX",
"uXuXuXuXuX* 6 uXuXuXuXuXuX_ #X$X^ I Q.S.1X;Xh.u.=X-.a.uXuXuXuXuXuXuXuXuXuXuXuXuXuXuXuXuXuXuXuXuXuXuX",
"uXuXuXuXuXuX7 uXuXuXuXuXuXx *X<XP.V P.( <X,X(.r.l.-./ uXuXuXuXuXuXuXuXuXuXuXuXuXuXuXuXuXuXuXuXuXuXuX",
"uXuXuXuXuXuXuXuXuXuXuXuXuXuX` >XE.u F !.,X<X!.*.j.m uXuXuXuXuXuXuXuXuXuXuXuXuXuXuXuXuXuXuXuXuXuXuXuX",
"uXuXuXuXuXuXuXuXuXuXuXuXuXuXx $X;XE.=X,X,X1XQ.U.#X/ uXuXuXuXuXuXuXuXuXuXuXuXuXuXuXuXuXuXuXuXuXuXuXuX",
"uXuXuXuXuXuXuXuXuXuXuXuXuXuXuX^ -X>X,X<X1X;XQ.>XY.uXuXuXuXuXuXuXuXuXuXuXuXuXuXuXuXuXuXuXuXuXuXuXuXuX",
"uXuXuXuXuXuXuXuXuXuXuXuXuXuXuXs ! L.#X*XT.L.R.' uXuXuXuXuXuXuXuXuXuXuXuXuXuXuXuXuXuXuXuXuXuXuXuXuXuX",
"uXuXuXuXuXuXuXuXuXuXuXuXuXuXuXuXuXuXf l c uXuXuXuXuXuXuXuXuXuXuXuXuXuXuXuXuXuXuXuXuXuXuXuXuXuXuXuXuX",
"uXuXuXuXuXuXuXuXuXuXuXuXuXuXuXuXuXuXuXuXuXuXuXuXuXuXuXuXuXuXuXuXuXuXuXuXuXuXuXuXuXuXuXuXuXuXuXuXuXuX",
"uXuXuXuXuXuXuXuXuXuXuXuXuXuXuXuXuXuXuXuXuXuXuXuXuXuXuXuXuXuXuXuXuXuXuXuXuXuXuXuXuXuXuXuXuXuXuXuXuXuX",
"uXuXuXuXuXuXuXuXuXuXuXuXuXuXuXuXuXuXuXuXuXuXuXuXuXuXuXuXuXuXuXuXuXuXuXuXuXuXuXuXuXuXuXuXuXuXuXuXuXuX"
};
