/* XPM */
static char *result[] = {
/* columns rows colors chars-per-pixel */
"50 50 144 2 ",
"   c #2CBFF3",
".  c #27BDF3",
"X  c #23BCF2",
"o  c #22BCF2",
"O  c #26BDF3",
"+  c #2DBFF3",
"@  c #39C2F4",
"#  c #45C6F4",
"$  c #37C2F4",
"%  c #1EBBF2",
"&  c #19B9F2",
"*  c #17B9F2",
"=  c #16B8F2",
"-  c #18B9F2",
";  c #1ABAF2",
":  c #1BBAF2",
">  c #1CBAF2",
",  c #1DBBF2",
"<  c #20BCF2",
"1  c #25BDF2",
"2  c #2EBFF3",
"3  c #3AC2F4",
"4  c #47C6F5",
"5  c #50C9F5",
"6  c #4EC8F5",
"7  c #41C4F4",
"8  c #31C0F3",
"9  c #26BDF2",
"0  c #20BBF2",
"q  c #21BCF2",
"w  c #2FBFF3",
"e  c #38C2F4",
"r  c #3BC2F4",
"t  c #32C0F3",
"y  c #29BEF3",
"u  c #24BCF2",
"i  c #3CC3F4",
"p  c #34C0F3",
"a  c #2BBEF3",
"s  c #24BDF2",
"d  c #2ABEF3",
"f  c #35C1F3",
"g  c #47C6F4",
"h  c #48C7F5",
"j  c #33C0F3",
"k  c #15B8F2",
"l  c #1FBBF2",
"z  c #3FC4F4",
"x  c #4BC7F5",
"c  c #4CC8F5",
"v  c #3DC3F4",
"b  c #14B8F2",
"n  c #28BDF3",
"m  c #37C1F4",
"M  c #40C4F4",
"N  c #3EC4F4",
"B  c #49C7F5",
"V  c #35C1F4",
"C  c #13B7F2",
"Z  c #28BEF3",
"A  c #43C5F4",
"S  c #3BC3F4",
"D  c #11B7F1",
"F  c #12B7F1",
"G  c #30BFF3",
"H  c #4FC9F5",
"J  c #30C0F3",
"K  c #2CBEF3",
"L  c #10B6F1",
"P  c #51C9F5",
"I  c #42C5F4",
"U  c #44C5F4",
"Y  c #34C1F3",
"T  c #12B7F2",
"R  c #27BDF2",
"E  c #4BC8F5",
"W  c #55CAF5",
"Q  c #44C6F4",
"!  c #1DBAF2",
"~  c #36C1F3",
"^  c #5DCDF6",
"/  c #46C6F4",
"(  c #3EC3F4",
")  c #0FB6F1",
"_  c #57CBF6",
"`  c #36C1F4",
"'  c #4DC8F5",
"]  c #59CCF6",
"[  c #5ECDF6",
"{  c #41C5F4",
"}  c #5ACCF6",
"|  c #5BCCF6",
" . c #54CAF5",
".. c #61CEF6",
"X. c #69D0F7",
"o. c #4AC7F5",
"O. c #36C2F4",
"+. c #66D0F7",
"@. c #89DAF9",
"#. c #7BD6F8",
"$. c #46C6F5",
"%. c #38C1F4",
"&. c #74D4F7",
"*. c #71D3F7",
"=. c #48C6F5",
"-. c #56CBF5",
";. c #6CD1F7",
":. c #72D3F7",
">. c #58CBF6",
",. c #77D5F8",
"<. c #7ED7F8",
"1. c #5CCCF6",
"2. c #67D0F7",
"3. c #66CFF6",
"4. c #52CAF5",
"5. c #56CBF6",
"6. c #53CAF5",
"7. c #63CFF6",
"8. c #55CBF5",
"9. c #33C1F3",
"0. c #16B9F2",
"q. c #6ED2F7",
"w. c #62CFF6",
"e. c #58CCF6",
"r. c #25BDF3",
"t. c #78D5F8",
"y. c #79D6F8",
"u. c #7AD6F8",
"i. c #6AD1F7",
"p. c #64CFF6",
"a. c #62CEF6",
"s. c #2FC0F3",
"d. c #28BDF2",
"f. c #1AB9F2",
"g. c #13B7F1",
"h. c #45C5F4",
"j. c #37C1F3",
"k. c #8DDBF9",
"l. c #52C9F5",
"z. c #68D0F7",
"x. c #A0E1FA",
"c. c #60CEF6",
"v. c #5CCDF6",
"b. c white",
/* pixels */
"  . X o O + @ # # $ . % & * = - ; ; : > , < 1 2 3 4 5 6 7 8 9 0 > : > % q . w e r t y u o X y t i @ ",
"p a 1 o s d f g h j X : = k k - ; , l 0 o 1 y w f z x c v + o : * b k - > < n j m   u 0 l q O 8 M # ",
"i + 1 q q X a N B V o ; k C k - , o 9 Z d a d n . a m A S a < & b D F b * , s G t . 0 > : % X w 7 H ",
"v a < > : > o J # i 1 ; k b k & 0 y 8 f j K u % , l 9 f @ + o ; b D L F k : s 8 8 1 % ; & : 0 a N P ",
"@ . > * = * > 9 e N d , * k * : X 8 I U Y s > - * & % y f J 9 , = T L D k > R Y t 1 , & - & , . 3 E ",
"f o & b F C * 0 w 3 w X > & : l y i W B K % * b b k ; q + j   X : = C C * % K S f . % ; & & > s Y Q ",
"j o * D L D k ! a ~ 8 . q l 0 1 J B ^ M 1 : k F F k - % 9 t ~ + X ! - * ; o Y / v a q > & & : q 2 ( ",
"j X * D ) L k > y f j a O s O + 3 P _ S 1 : = b b = & , q Z ` z ~ Z q l q a I W U 2 X , & & ; l y e ",
"` 9 & C D D = % K @ 3 p w 2 J ` M E ' v d l & * - ; > : : ! o t h 4 e 2 G N ] [ {   o ! & & ; , 9 t ",
"@ + l - k = : u t 7 / A ( S @ 3 ( A g { Y . q l l % ; = b C b - 1 N } |  ...X.P f 9 l ; - * - > X 2 ",
"3 e Z l : , s J M o./ 7 v 3 @ @ r z A Q M $ 2 y X > k L ) ) ) L k l O.+.@.#.| i y 0 ; * k k = & l Z ",
"` 7 e K n   @ $.4 @ 2 d a 2 t %.v { I # o.B 7 j u - D ) ) ) ) ) L = X z &.*.4 2 o ; = C F F b * ! s ",
"8 A ' =.# 6 W h j 1 0 % l u a ` I B / A g ' ' 3 1 * L ) ) ) ) ) ) F , 8 -.[ v R ! = T L ) L F k ; q ",
"+ z ] ;.:.;.5 j X > - - & , s 8 #  .c M v U 6 4 d - L ) ) ) ) ) ) D : a U 6 @ 1 : k D ) ) ) L b & 0 ",
"+ v >.,.<.[ @ 9 > = b C k - % y z 1.5 3 j ~ U P i % D ) ) ) ) ) ) T : . $ A 3 R : k D ) ) ) L b & 0 ",
"8 ( P 2.3.$.+ l * T L ) L C & o Y >.5 t y Z J / 4.8 * ) ) ) ) ) ) b > s 2 S v K l * C D L L C = > X ",
"Y v h 5 B e R > k L ) ) ) L b > y x ' K o l o + c  .n b ) ) ) ) T - , o y Y z m 9 , - k b k * : q y ",
"m r v 3 f 2 u ; C L ) ) ) ) L k 0 S B y % ; : 0 w 5.6.u * F F b - > l q 1 w M 4 $ n q ! : > % o y 8 ",
"m f 8 a y 9 0 - D ) ) ) ) ) ) D ; J A Z > - * ; q Y 7.8.y l ! , l l 0 0 X a v  .W { 9.K Z . Z   j e ",
"~ G y X q q % - D ) ) ) ) ) ) L 0.y z Z > - * - , 1 v q.w.e + Z s q 0 0 q y ~ c [ e.o.z e p j ~ r i ",
"f   s l % l , & F ) ) ) ) ) ) ) b r.3 y % & * - : q a U t.y.x Y y o 0 l < 1 J v / A S f t 8 t ` v ( ",
"~   X % > ! , ; b ) ) ) ) ) ) ) k X ` d l ; & & : % X K 7 &.u.# 2 s 0 % l u a t p 2 n X o u n J i z ",
"3 w 1 l , , % > * D ) ) ) ) ) ) = 1 `   o , : ; : > % o y ( i.+.3 Z o 0 0 o Z a Z X % : ; > 0 y m M ",
"z f d X 0 0 < 0 > = D ) ) ) ) D & d m w 9 < % : ; ; ; > 0 y I +.-.f n X o u O O o % ; * * - ! 1 j ( ",
"M S 8 y 9 1 9 . s l & b D D F - q 8 3 t d X 0 > ; - - & > o 8 H p.P @ 2 d y . u q , & * = * > s w e ",
"r r Y w + + w t j J Z q ! > % s J i ( ` 2 . o % : & * - ; l d z >.a. .I ~ w d O o % ; - * & % 1 + t ",
"f ~ 8 2 2 8 f r I h x 4 I i S M 4 g { 3 j + O q % ; & & : l . Y A 4.>.6 M ` J a O q % : : ! q . d 2 ",
"8 w a y d + 8 ` i A E 5...X.;.2.^ H A i %.j + . o l > : , < 1 a 8 @ z z 3 ~ t 2 d 9 o < < o 9 n y a ",
"a . X o u . a + + a   s.$ # -.2.p.4.A v r r @ j K 1 q l l 0 q X 1 d.d d a   +   a Z 9 1 O Z d Z Z d ",
"1 < % % 0 X . . o % > : : 0 y v P H I i S z A { @ G n o < l % , % % % , % q u O . 1 1 . a w 2 d Z y ",
"0 : ; : % X . X , * b F D b & . i B I r m e i { 7 e 2 9 q % : ; & - * = * ; ! l 0 q o s a j t K y 9 ",
"> & - ; l 1 y o ; b L ) ) ) C , 8 Q A ~ + y Z + f e j d o % ; * = k b C C = - ; : > , q y Y ~ w d s ",
": - & : q d + X f.T ) ) ) ) D - d A A w X ! : > q K t w . 0 : * = C D D D b * - & & ; % 9 Y 3 j a X ",
"> ; ; % 1 8 j 9 ; T ) ) ) ) L * Z # I n ; b F F k , d j w 1 , & k C D L F b * & & - & , 1 Y z @ 2 X ",
"l ! % o a 3 N + , b L ) ) ) D - Z B M q b ) ) ) ) g., w e 2 o : * b T T b = & : ; ; ; % 9 f Q M 8 1 ",
"o q q 9 t h.' e u & C L ) L C & d 5 M > D ) ) ) ) ) k u ( ( a 0 ; = k k * : l < l % % q d 3 B 4 j.a ",
"1 o X y p 4 _ / + 0 - b T C = !   6.{ : L ) ) ) ) ) D : e 6.S y 0 > : ! l X y a Z 1 1 y t z x o.S + ",
"1 X X . G N 6 o.V 1 , - k k & %   6.h l D ) ) ) ) ) L * 2 ..} e K . 9 . a 8 @ i e j t f i A g / r 2 ",
"1 o o 1 a t r i p n 0 : - - ; l K 5 4.1 g.) ) ) ) ) D & d p.k.l.S t w w 8 ` z B c B U A { N v ( %.2 ",
". X o X 9 y   + a 1 0 : & ; : 0   E } Y > g.) ) ) L = l t z.x.>.~ d 1 o X O + e $.6._ c v f j f p 2 ",
"a . u X X X X X X q l > ; ; , o w x [ o.d ! * = * ; 0 y S p.k.B . % & * = * : o + z 8.c m 2 + w t J ",
"J + n s q 0 l l % % , > > , q y e 4.z.p.# w 1 o q o 9   $ 6 :.h o & b D D D b & q J o.o.Y K d K J t ",
"` p 2 . q l > : > > , , l q Z j M 6 c.q...4 Y a . s s . 2 i v.5 u - F ) ) ) L b > n A B f   d K J Y ",
"3 3 Y a X l ! : : , l < u y J f m 3 z h H h 3 2 O o q o O 8 o. .  : C L ) ) ) b ; 1 N o.3 8 + 2 t f ",
"~ 3 @ G . q % , % 0 o . + 8 t G + + + 2 8 j G d X 0 % l o   M  .S q - C L ) L b ; 1 v x I e t 8 t t ",
"w t m j d X q 0 q 1 d 8 f j 2 y O u o X s 9 . s o 0 % l o a i 5 o.s.l - b T C 0.> n v g U ( ` 8 2 + ",
"y a w 8 + n s s . + ` 3 ~ w y X < % > > % 0 o o o q q q 1 2 S o.5 U 2 q : - - : <   i z i 3 ` J a y ",
"1 9 n a   a d a G @ N e w . o l > ; & & ; , < X 1 1 O Z + j r I 4 =.M t 9 0 l 0 1 8 @ ~ j t j 8 a n ",
"u X X O d + w t 3 M r w 9 0 ! ; & & - - & > 0 1 a 2 8 j m @ %.f Y ~ @ 3 ` 2 y y 2 f f w   K w t 2 y ",
". X o X n 2 f r { z 8 9 l : & & & & & & ; ! o y j 3 z 7 z @ J d . . Z a 8 f V V %.m G d n Z a t p + "
};
