/* XPM */
static char *result[] = {
/* columns rows colors chars-per-pixel */
"50 50 146 2 ",
"   c #30C0F3",
".  c #2DBFF3",
"X  c #2CBEF3",
"o  c #2CBFF3",
"O  c #2EBFF3",
"+  c #32C0F3",
"@  c #3AC3F4",
"#  c #45C5F4",
"$  c #44C5F4",
"%  c #22BCF2",
"&  c #1CBAF2",
"*  c #1ABAF2",
"=  c #19B9F2",
"-  c #1DBBF2",
";  c #1FBBF2",
":  c #23BCF2",
">  c #25BDF2",
",  c #26BDF2",
"<  c #27BDF3",
"1  c #28BEF3",
"2  c #35C1F3",
"3  c #41C4F4",
"4  c #4DC8F5",
"5  c #56CBF6",
"6  c #58CCF6",
"7  c #50C9F5",
"8  c #3EC4F4",
"9  c #20BBF2",
"0  c #17B9F2",
"q  c #19BAF2",
"w  c #1EBBF2",
"e  c #2ABEF3",
"r  c #38C2F4",
"t  c #36C1F4",
"y  c #34C1F3",
"u  c #40C4F4",
"i  c #2BBEF3",
"p  c #33C0F3",
"a  c #3BC3F4",
"s  c #47C6F4",
"d  c #4BC7F5",
"f  c #24BCF2",
"g  c #27BDF2",
"h  c #2FBFF3",
"j  c #33C1F3",
"k  c #49C6F5",
"l  c #46C6F5",
"z  c #3FC4F4",
"x  c #3AC2F4",
"c  c #3CC3F4",
"v  c #26BDF3",
"b  c #1BBAF2",
"n  c #29BEF3",
"m  c #39C2F4",
"M  c #49C7F5",
"N  c #48C7F5",
"B  c #4FC9F5",
"V  c #5DCDF6",
"C  c #52CAF5",
"Z  c #48C6F5",
"A  c #54CAF5",
"S  c #4AC7F5",
"D  c #34C1F4",
"F  c #35C1F4",
"G  c #37C2F4",
"H  c #43C5F4",
"J  c #24BDF2",
"K  c #46C6F4",
"L  c #5BCCF6",
"P  c #68D0F7",
"I  c #77D5F7",
"U  c #7ED7F8",
"Y  c #58CBF6",
"T  c #57CBF6",
"R  c #51C9F5",
"E  c #61CEF6",
"W  c #69D1F7",
"Q  c #65CFF7",
"!  c #31C0F3",
"~  c #15B8F2",
"^  c #14B8F2",
"/  c #18B9F2",
"(  c #21BCF2",
")  c #4CC8F5",
"_  c #63CFF6",
"`  c #6ED2F7",
"'  c #45C6F4",
"]  c #3EC3F4",
"[  c #47C6F5",
"{  c #13B8F2",
"}  c #54CBF6",
"|  c #15B9F2",
" . c #86DAF8",
".. c #83D9F8",
"X. c #2FC0F3",
"o. c #55CBF6",
"O. c #42C5F4",
"+. c #36C1F3",
"@. c #55CAF5",
"#. c #8EDCF9",
"$. c #5CCDF6",
"%. c #16B9F2",
"&. c #20BCF2",
"*. c #28BDF3",
"=. c #4EC9F5",
"-. c #1DBAF2",
";. c #5ECDF6",
":. c #72D3F7",
">. c #59CCF6",
",. c #64CFF6",
"<. c #74D4F7",
"1. c #41C5F4",
"2. c #3DC3F4",
"3. c #6AD1F7",
"4. c #4EC8F5",
"5. c #4CC7F5",
"6. c #36C2F4",
"7. c #4FC8F5",
"8. c #67D0F7",
"9. c #45C6F5",
"0. c #6BD1F7",
"q. c #5FCEF6",
"w. c #5ACCF6",
"e. c #7AD6F8",
"r. c #80D8F8",
"t. c #67D0F6",
"y. c #53CAF5",
"u. c #52C9F5",
"i. c #4BC8F5",
"p. c #28BEF2",
"a. c #30BFF3",
"s. c #60CEF6",
"d. c #6FD3F7",
"f. c #9EE1F9",
"g. c #85D9F8",
"h. c #70D3F7",
"j. c #7DD7F8",
"k. c #39C3F4",
"l. c #75D4F7",
"z. c #57CBF5",
"x. c #82D9F8",
"c. c #92DDF9",
"v. c #88DAF8",
"b. c #65D0F6",
"n. c #42C4F4",
"m. c white",
/* pixels */
"  . X o O + @ # $   % & * = * - ; : > , < 1 o 2 3 4 5 6 7 8 X 9 * 0 0 q w % < e o + r @ t y r u 8 t ",
"+ . i i O p a s d a o > f > g e h + j y y t a $ k l z x c 8 j v w b & w % v n e i   m # M N B V C z ",
"i > : : , . r Z A S a D + j D F G m @ c 8 u $ H x . > J e F c y e > > 1 X i e e i h G K L P I U Y @ ",
": w b * & 9 X 3 6 T # x p O e 1 1 e h F c 3 3 t < ; * b ; n x $ u a a c G   i e i O 2 3 R E W Q d ! ",
"; = ~ ^ ^ / 9 p C 6 3 O f w * = q & % n F z a i ; / ~ ~ / ( ! ) _ ` V ' y i v > , n . + r ] H [ 3 O ",
"w 0 { { { ^ * e d } m J b ~ { { { ^ q % + z G > * ^ { { | & i 4  ...S X.f ; & - ; ( f , < e h F m h ",
"% = { { { { / < M o.2 w | { { { { { | w   O.+.% / { { { ^ b e @.#.$.  % b 0 %.0 * w 9 &.&.&.: n ! ! ",
"*.- | { { ^ * e =.6 j & ^ { { { { { ~ w j K 2 ( / { { { ~ -.O ;.:.u < - %.{ { ^ / & w w & b - ( e ! ",
"  , - 0 %.= 9 + >.,.y & ^ { { { { { | ( m S 2 % = ^ { { / % m Y 4   % b %.{ { ^ / - ; - * = q - , h ",
"t + *.% 9 : o ' :.<.m 9 %.{ { { { { / < 1.) 2 : b 0 ~ 0 -.n 8 $ j J - q %.~ ~ 0 b 9 ( w * / / & % o ",
"m 2.G !   F H ;.U 3.c , & ~ { { { %.; ! ) S y > w * q & : ! r + , w / 0 %.0 = b ( , , ( & q = b ( n ",
"m 3 z a m 8 s o.;.4.r n &.b 0 0 = w e u 7 $ y 1 % ; ; % i + . , ; q %.^ | / & % e ! O J - * q b ; < ",
"y z z r y y r 8 H 8 + n % ; - w ( *.G d d 2.+ i < f > e ! . > ; b 0 ^ { ~ = ; n r u 2 , w * / q - J ",
"O @ @ + X e i h + + . 1 : ( ( : n j $ 5.u y h o X i O +   < 9 b / ~ ^ { | q ( O $ S 2 J & 0 | %.q 9 ",
"e 6.t . > : f , < *.< , J J v e j O.4 $ 2 . i X h + F 6.. : & / | ^ ^ ^ 0 & f y ) S   9 / ^ { { | b ",
"1 F y i : ( ( ( ( ( % % f < i p z 4 d m . < < i ! G 2.m i 9 * %.^ ^ ^ | q ; 1 a 7 $ n b ^ { { { ^ / ",
"n G F o f ( 9 ; w w ; 9 % v . r Z 7.O.! < : f n   a 3 m e ; q | ^ ^ ^ 0 b ( i a M a f / { { { { { 0 ",
". a a ! 1 : 9 - & b & - 9 J . m K M @ o J % : <   c O.x i ( * 0 | ~ | / & &.*.! m p % %.{ { { { { / ",
"y O.$ c   , ; & * q q b ; : i t u O.G i > % : n + 2.3 a h > w * / 0 / q & w ( > i o % 0 { { { { { * ",
"z B 6 4 j > w * / / / * w : e + @ ] t . *.> < o y 2.z a y o > ; & & & b b b & w % , % q { { { { | 9 ",
"C 8.P 9.o % & = 0 %./ * w : e   F G y h i e X ! G a @ m r t   n > % 9 - b q q b w % % - %.{ { ~ & X ",
"3.0.) p , ; b = 0 0 q & 9 > i O ! ! h . X o h p t F p p G 8 3 c 2 . , 9 & = = * -.&.% % w b b ; o H ",
"q.B x X : ; & * q * & ; : 1 i X e *.< < n i O + ! o n 1 . r M 6 R ] O f w b * b w % v n *.< e y [ w.",
"' 8 j n : 9 w -.& w 9 : < e e < : &.; ( : *.X h i J 9 ; ( 1 r Y e.V @ i : 9 ; ( > e ! t m 2.$ ) 7 ) ",
"2 y ! i > % ( &.( % : < e e v ( - b * & ; J i X < 9 b * b 9 1 a P r.R t X *.*.i + c N R o.o.B ' c t ",
"e X . X n v J f > v *.e e < ( & / %.0 = - : e i J w q 0 / b ( . O.t.8.$ y h h p @ # B 5 y.[ a + o e ",
": J *.i i n *.*.n e X X 1 % -.= %.^ ~ 0 & : X . > w q 0 / b ; , ! 3 u.d m ! O h h   ! + j   i < f : ",
"; 9 % v e n n n i h ! o > ; * 0 ^ ^ ~ / - >   + n &.b q q b w % <   x 8 t . < J ( w w 9 : > : % &.9 ",
"- w ; % > *.n i h 2 j i : - q 0 | | 0 b ( i r @ ! < ( - & & -.w ( < h y ! 1 &.& 0 | | 0 b ; &.9 ; w ",
"& & - 9 % , e . y m j e : ; & * q q & ( e r M 4 1.j e : 9 - b & - % e h . > - %.{ { { { | b ; 9 ; w ",
"-.b & w ( > e   G m ! i < f ( 9 9 % , O 2.R E Q >.[ t i : w b q * ; *.h . : * ^ { { { { { / w &.&.9 ",
"w & b w ( > i j r 2 h X i X X o . ! m l y.5 7 4 4.S z ! , ; b = q - < +   > = { { { { { { 0 ; : : ( ",
"9 w - ; % < O t G + . X . ! y m 2.O.S i.8 h p.p.h t r p n ( & q * - *.t t < * { { { { { { 0 ( 1 e , ",
": ; ; ( f e + r 6.! . X o h ! y m u z   % b / q - > o h e : - b b ; 1 c u . - ^ { { { { { / > ! y . ",
"< : : > n h t m F a.X e 1 < < *.o + O % / ^ { ^ | b f e n J 9 w w ( i u 4.m : %.{ { { { ^ & X u ' 2 ",
"h i e o a.p 6.G + i v : 9 ; ; 9 f e *.- ~ { { { { %.; < e v % ( ( > . 8 Y 7 ! ; %.{ { ^ = f r >.>.2.",
"c G F y p + + ! o > ( - b * * & 9 v < & ^ { { { { ~ & , i n > : J 1 h x 7 s.M h % & b - :   7 r.d.d ",
"4.H x ! o e e i *.% w * = / = b 9 *.e ; | { { { { | w 1 a.O e < , < e   8 5 >.O.+ e 1 i y [ :.f.g._ ",
"$ G . , : % : v < % w b q = * -.% X + < b ~ { { ^ = ( o 6.F . *.: % % > . 8 R M a y p r O.o.h.j.0.Y ",
"  *.( w & - 9 f 1 > ( ; - -.; : n t H x n 9 & * & 9 *.y 2.m O > 9 & b & &.e 8 K c F F k.3 M C o.N 2.",
", 9 b / / q - f e X n , > , e ! 8 5 l.I z.a O *., n   m 8 m o ( b / %.%.* ; O u 8 r 6.r @ 2.3 3 m   ",
"( b 0 | | 0 & f O y j + + y r z d E x.c.v.b.Z m + ! y r m F e 9 / ~ { ^ %.b > m # z a r F y 2 2   1 ",
"- / ~ { { %.b J j 2.2.m j h X e e h r H N N H c 2 ! + j y + 1 w 0 ^ { { ^ q % F 4 S z t h o o . e J ",
"& 0 ^ { { %.& , m n.a X.J & = 0 / b ( v < > , , g n o   + + *.- 0 ^ { { ~ * % D y.4.c h 1 > < n < % ",
"& 0 ^ { { 0 - e ] 8 h ( 0 ^ { { { ^ / & - & b & ; : e a.p p 1 w / ^ { { %.b : G C [ y n : % : > J ( ",
"& / ~ { ~ = 9   z 2 f / { { { { { { ^ 0 0 0 %./ b ( e + G G n - / ~ { ~ 0 & > m S 8 h > ( 9 % f : ( ",
"-.q 0 %./ & f F 2.o & ^ { { { { { { { ^ ~ ^ ^ %.* ( o G z a 1 - / ~ ^ ~ / - *.m 3 G X f &.9 % J f ( ",
"; & * q b 9 n m m , q { { { { { { { { ^ ~ ~ ~ 0 & > p 3 S z < & 0 ^ ^ ~ / w 1 2 m j X f ( ( : < v : ",
"% 9 ; ; &.> h 2.r > = { { { { { { { ^ 0 0 0 / & % O 8 B 6 z , & %.^ ^ ~ = ; *.  j + . *.f : < i e > ",
"v > > > < X F u a < b ^ { { { { { ^ / * b & w : o a d q.s.2.g -.0 ^ ^ %.* 9 < o ! + ! . n n o   h i "
};
