/* XPM */
static char *result[] = {
/* columns rows colors chars-per-pixel */
"50 50 139 2 ",
"   c #2BBEF3",
".  c #23BCF2",
"X  c #1FBBF2",
"o  c #24BCF2",
"O  c #39C2F4",
"+  c #46C6F4",
"@  c #3CC3F4",
"#  c #2ABEF3",
"$  c #20BBF2",
"%  c #1DBAF2",
"&  c #19B9F2",
"*  c #1AB9F2",
"=  c #1BBAF2",
"-  c #1CBAF2",
";  c #27BDF3",
":  c #31C0F3",
">  c #3AC2F4",
",  c #3BC2F4",
"<  c #37C1F4",
"1  c #35C1F3",
"2  c #34C0F3",
"3  c #32C0F3",
"4  c #30C0F3",
"5  c #2CBFF3",
"6  c #26BDF2",
"7  c #21BBF2",
"8  c #18B9F2",
"9  c #15B8F2",
"0  c #13B8F2",
"q  c #14B8F2",
"w  c #1EBAF2",
"e  c #4AC7F5",
"r  c #61CEF6",
"t  c #29BDF3",
"y  c #21BCF2",
"u  c #25BDF2",
"i  c #2FBFF3",
"p  c #34C1F3",
"a  c #33C0F3",
"s  c #38C2F4",
"d  c #36C1F4",
"f  c #30BFF3",
"g  c #2DBFF3",
"h  c #1EBBF2",
"j  c #17B8F2",
"k  c #16B8F2",
"l  c #17B9F2",
"z  c #55CBF5",
"x  c #72D4F7",
"c  c #5DCDF6",
"v  c #2EBFF3",
"b  c #22BCF2",
"n  c #29BEF3",
"m  c #3BC3F4",
"M  c #73D4F7",
"N  c #67D0F6",
"B  c #43C5F4",
"V  c #41C4F4",
"C  c #28BDF3",
"Z  c #2CBEF3",
"A  c #40C4F4",
"S  c #25BCF2",
"D  c #47C6F4",
"F  c #58CBF5",
"G  c #5ACCF6",
"H  c #12B7F2",
"J  c #3DC3F4",
"K  c #4FC9F5",
"L  c #4BC7F5",
"P  c #51C9F5",
"I  c #49C7F4",
"U  c #3FC4F4",
"Y  c #11B7F2",
"T  c #10B7F2",
"R  c #1ABAF2",
"E  c #4CC8F5",
"W  c #44C5F4",
"Q  c #54CAF5",
"!  c #3EC3F4",
"~  c #48C7F5",
"^  c #42C4F4",
"/  c #4DC8F5",
"(  c #27BDF2",
")  c #59CCF6",
"_  c #53CAF5",
"`  c #45C6F4",
"'  c #57CBF5",
"]  c #79D6F7",
"[  c #70D3F7",
"{  c #52CAF5",
"}  c #42C5F4",
"|  c #36C1F3",
" . c #37C1F3",
".. c #6ED2F7",
"X. c #90DDF9",
"o. c #85DAF8",
"O. c #56CBF5",
"+. c #5ECDF6",
"@. c #47C6F5",
"#. c #49C7F5",
"$. c #12B8F2",
"%. c #48C7F4",
"&. c #45C5F4",
"*. c #37C2F3",
"=. c #5CCDF6",
"-. c #6DD2F7",
";. c #50C9F5",
":. c #52C9F5",
">. c #68D1F6",
",. c #4FC8F5",
"<. c #62CFF6",
"1. c #55CAF5",
"2. c #37C2F4",
"3. c #22BBF2",
"4. c #6FD3F7",
"5. c #5BCCF6",
"6. c #6AD1F7",
"7. c #66D0F6",
"8. c #63CFF6",
"9. c #59CCF5",
"0. c #38C1F4",
"q. c #6ED3F7",
"w. c #80D8F8",
"e. c #68D0F6",
"r. c #38C2F3",
"t. c #26BDF3",
"y. c #48C6F4",
"u. c #4EC8F5",
"i. c #28BDF2",
"p. c #29BDF2",
"a. c #3EC4F4",
"s. c #5FCEF6",
"d. c #69D1F6",
"f. c #7CD7F8",
"g. c #84D9F8",
"h. c #71D3F7",
"j. c #65CFF6",
"k. c #4CC7F5",
"l. c white",
/* pixels */
"  . X X X o   O + @ # $ % & * = = = = = - X ; : > , < 1 1 2 3 4 5 # 6 7 X - & 8 9 0 q 9 8 w   e r + ",
"1 t y X X $ u i , p u % * & % X 7 . . o u # a s d f     5 4 a 3 4 g # u 7 h = & j k k l * 7 4 z x c ",
"@ # $ - * = h 6 : v b * 8 & = X o # 5 i a O , p # o $ 7 o # : < < 2 4 5 ; . X - = & & - $ n m c M N ",
", 6 - 8 9 k & $     $ & 9 9 8 = b   2 @ B V 1 C X = & * % b Z s V A , d : Z C o b 7 y S n f s D F G ",
"p . & q H H k - ; # X l 0 H q 8 h # J K L O n h 8 9 q 9 8 - u a D P I U > < 2 : v g Z Z   # # 4 U + ",
"i $ l H Y T 0 R 6 g b & q H 0 j %   E F A v 7 & q Y Y Y 0 8 X Z W Q + , s , ! U @ s a Z 6 7 $ o v s ",
"v 7 l Y T T 0 R ; a C = k q 9 8 $ p Q ~ 1 C % 9 Y T T T Y q = 6 @ D O : i 1 ^ / E V a ( X - * - o v ",
"g o & 0 T Y q - # ! : 7 * 8 & % t J D J 3 6 = 0 T T T T T H 8 y p O :   # i A ) F A g b = l k 8 h ( ",
"g C % j q q l X a _ ` g o b o # 3 O , O 3 6 = q T T T T T Y k $ 5 4 5 C C 5 ! ' L 1 u - l q 0 k * 7 ",
"Z i u - & * % C D ] [ { } > d a 3 3 | O 1 C - 9 T T T T T Y 9 % ;   # C C g @ B  .# X 8 0 Y H 0 l w ",
"n 2 4 ( b o   U ..X.o...O.+ > a 4 : | , O Z $ l H T T T T Y k - b ; n n # i | 2 g . R q Y T T H k - ",
"S p , a v f @ ' ..+.@.J O < 2 3 : a s U U a u = k Y T T T 0 j = $ o C # g 4 f g n $ l H T T T T q * ",
"$ i U ! s , #.{ } f C 6 ( # v : a < J V B J 4 . = l q $.0 q l * h . C g : f 5   C h k Y T T T T Y k ",
"= C ! %.&.I e > # b h % X . n i 1 , U V B + U : S % & l k k 8 * h b n i a : v g n X k T T T T T T H ",
"8 . O { G { ! g . % * & - $ 6 v < J ! J ! ` / W a 6 X = & 8 & * h b n : p 1 a a v 7 k T T T T T T T ",
"j 7 *.=.-.;. .n 7 - & & * h . 5 | @ > p a  .&.:.D p ; $ - & & * h b n f 1 > ! ! | o k T T T T T T T ",
"8 b J >.-.e 1 C $ = & & & - 7 C 3 < a g n # 3 } ;.W 3 6 $ - & - X b C g a J I ,.B   * H T T T T T T ",
"- n #...<.&.3 6 h * 8 k l & % . 5 3 v ; . . ; 4 V e ! v o X h h X b C   f > E c 1.2.3.l Y T T T T 0 ",
". a ' 4.1.@ Z b - l q $.0 9 & h 6 5   S $ X . n a U ^ <   . $ $ 7 o C # Z : U 5.6.:.a b R 9 0 q k * ",
"g V 7.8.} 4 u % 8 q Y Y Y H 9 = 7 C n o $ X 7 ( g 1 @ , a   6 S 6 C C 6 6 ; g J 9.<.K > Z o $ X $ . ",
"s ;.<.~ : ; $ * k H T T T T 0 8 h o ; S b 7 . (   i 2 O > 1 f g 5   C . $ X b n 1 A } , 3   C 6 ;   ",
"V P e p ; 7 - 8 q Y T T T T 0 l % 7 o o o o S C #   g : 0.! ! m < : ; $ - * - $ (   v 5 # ; 6 ; # f ",
"J W >   y h * 8 q Y T T T T q 8 % X b o o o ( C ( S S C i m L Q L s C h & 8 & - $ b o . . b b o n i ",
"< J a 6 X = & 8 j q Y T Y $.k 8 = X X b o 6 C ( o 7 $ 7 6 4 ` 7.q.D   X * & & - X X X X h h h $ o # ",
"2 > f o X % - = = & j 9 k l & * % X X $ o S ( o 7 X h h 7 n , +.w.e.2.S % * = h X X h = & & & = X 6 ",
"2 , 4 u $ X h X $ $ h % % w h h X X X $ o S S o 7 X % h $ C r._ 6.[ Q p 6 7 $ 7 $ X = 8 k k l & % o ",
"| ! 3 ; b $ 7 o C   Z   n ( S . y 7 b . o S ; 6 b X X X b   O + E { ' #.< g n ; . h * k q q 9 8 - o ",
", A 3 C o o S # f s A W } J 1 i # C 6 6 ( C # # ; o . o t f | 1 a p @ &.} > a g 6 h & 9 q q q 8 % t.",
"} ! i ; o o S   a ! D L E E L + J a 5   Z g f 3 : i g v f : v ; . . t.f > J O 3 C $ * 9 q q 9 & $   ",
"B  .# o 7 b S   a > m s 1 1 O U B U s p 1 > A W B U m < a g S w * * = b   p < 2 # 7 = l 9 9 l - u p ",
"J i 6 7 X 7 S   : 3 Z ; u 6 n i > ` y.D L u.u./ e y.W J a n $ & 9 9 k = . Z : 4 C $ = 8 8 8 * 7 v ! ",
"1 n b $ X b ( 5 f n b % - w 7 n 1 I 5.c _ B | f 4 1 @ J p i.h l 0 H 0 k w ; g Z o h * & & * h 6 < B ",
"i S $ X $ S   4 g . - l 9 l * b f L 7._ p b * 8 * $ # d d p.h l 0 H $.9 - t.Z # b - & & & - . i } W ",
"  . X $ o # 3 1   X l 0 Y H 9 - t D ) p - 0 Y T Y q % Z 1 5 $ & q 0 q l h C i   b = & & - $ t m u.} ",
"n . X b C 3 @ m   % q Y T T H l . } e . 0 T T T T T 9 . 3 f b * l k k * b g 1 4 o h = = X S 3 E ' a.",
"C . b S 5 O y.} Z - q T T T T 9 $ a.a.- Y T T T T T H % i 3 6 h * & - X n < V s # b X $ . Z ! s.5.> ",
"C o . 6 v J K e i h 9 Y T T T q $ J r.8 T T T T T T T * g 1 n 7 h h 7 ( a + Q + 3 C . o C 3 y.d.O. .",
"C . b S Z s e / | b 8 H T T Y k b ! 1 8 T T T T T T Y R v s v o $ $ o   s ;.<._ > Z 6 S # a %.<.K 1 ",
"; b $ b 6 g s } m # % l 0 H q & 6 V s = T T T T T T H h 3 J i S $ $ b C : ` =.Q @ g 6 o ( i V O.~ a ",
"; b X X 7 o # 2 0.f u % * & = $ v y.A o 0 T T T T T l 6 > U v o X % h $ ; a D u.@ g 6 o S 5 @ / &.a ",
"; 7 X X h X b # : : Z ; o o ( i V 5.9.m 7 9 Y Y $.l b : V ! Z 7 - & & - $ ; 1 W J i ; S 6 g > D } 2 ",
"C 7 h = * = h o 5 : 4 i i 3 > #.<.f.g.M { | ; b . C : ! B > # X * & & & - b   m V d v #   f , &.V 2 ",
"( 7 - & & & - b # : 3 a p , &.u.{ z s.-.h.j.P B m m U B } s # 7 = 8 8 & = X ; 1 } A O a 3 1 J W V p ",
"S X * & 8 & = b Z a a a 2 0.| v ; o u g @ e ;.k.+ } } B V O g o h = * * % $ ; p W y.W U @ @ } D A 3 ",
"$ = 8 l l 8 - o i 1 2 a 3 Z b = 8 l l & % o f O J A } B V @ 2   o $ X X X b C a A B B &.D y.L I m Z ",
"- 8 k 9 k & h ( a s 0.1 Z X 8 q Y Y Y H 9 & h ( 4 > V W B V @ 1 g ; . $ X b C i 2 2 p > B / P I p 6 ",
"* k q q k & $   > U U 2 b & q Y T T T T Y q & X n 1 V y.D B } ! 1 5 u 7 X $ . ; ; u 6 n f @ k.y.3 . ",
"& k q 9 l = b : V I V Z w l $.T T T T T T 0 l % 6 p B e D } U @ 1 5 S $ X X X $ h = - h . Z U e p . ",
"= 8 k k & h ( *.L u.O t.- 8 q Y T T T T Y q 8 X # O ` y.W ! O 1 : # . X h - - = & l l & - o p L U ; ",
"X = 8 & % 7   m u.y.: . % & l 9 q 0 0 0 9 l - o : J B } ! O p : g n . X % & & & l q q k & X v e E f "
};
