/* XPM */
static char *result[] = {
/* columns rows colors chars-per-pixel */
"50 50 151 2 ",
"   c #3EC4F4",
".  c #39C2F4",
"X  c #36C2F4",
"o  c #33C0F3",
"O  c #2CBFF3",
"+  c #26BDF3",
"@  c #23BCF2",
"#  c #22BCF2",
"$  c #21BBF2",
"%  c #1EBBF2",
"&  c #1ABAF2",
"*  c #19B9F2",
"=  c #18B9F2",
"-  c #1DBAF2",
";  c #29BEF3",
":  c #2BBFF3",
">  c #20BBF2",
",  c #37C2F4",
"<  c #55CBF5",
"1  c #80D8F8",
"2  c #7BD6F8",
"3  c #45C6F5",
"4  c #28BEF3",
"5  c #13B8F2",
"6  c #16B8F2",
"7  c #2DBFF3",
"8  c #3BC3F4",
"9  c #4CC8F5",
"0  c #5FCEF6",
"q  c #65D0F6",
"w  c #51CAF5",
"e  c #40C5F4",
"r  c #3AC3F4",
"t  c #44C6F4",
"y  c #4AC8F5",
"u  c #33C1F3",
"i  c #34C1F4",
"p  c #38C2F4",
"a  c #35C1F4",
"s  c #31C0F3",
"d  c #2EBFF3",
"f  c #25BDF3",
"g  c #21BCF2",
"h  c #1FBBF2",
"j  c #2ABEF3",
"k  c #32C1F3",
"l  c #34C1F3",
"z  c #30C0F3",
"x  c #44C6F5",
"c  c #54CBF6",
"v  c #61CEF6",
"b  c #64CFF6",
"n  c #5CCDF6",
"m  c #42C5F4",
"M  c #17B9F2",
"N  c #15B8F2",
"B  c #1BBAF2",
"V  c #4DC8F5",
"C  c #66D0F6",
"Z  c #67D0F7",
"A  c #50C9F5",
"S  c #45C6F4",
"D  c #49C7F5",
"F  c #2BBEF3",
"G  c #32C0F3",
"H  c #46C6F5",
"J  c #4BC8F5",
"K  c #3FC4F4",
"L  c #4DC9F5",
"P  c #3CC3F4",
"I  c #41C5F4",
"U  c #5ECEF6",
"Y  c #6DD2F7",
"T  c #76D5F8",
"R  c #27BEF3",
"E  c #40C4F4",
"W  c #57CCF6",
"Q  c #60CEF6",
"!  c #4FC9F5",
"~  c #1EBAF2",
"^  c #24BCF2",
"/  c #53CAF5",
"(  c #1CBAF2",
")  c #1AB9F2",
"_  c #5ECDF6",
"`  c #8DDCF9",
"'  c #68D1F7",
"]  c #28BDF3",
"[  c #4AC7F5",
"{  c #3DC3F4",
"}  c #12B7F2",
"|  c #14B8F2",
" . c #47C7F5",
".. c #7AD6F8",
"X. c #4EC9F5",
"o. c #11B7F2",
"O. c #57CBF6",
"+. c #68D0F7",
"@. c #58CCF6",
"#. c #5BCDF6",
"$. c #6BD1F7",
"%. c #52CAF5",
"&. c #5ACCF6",
"*. c #24BCF3",
"=. c #2FC0F3",
"-. c #39C3F4",
";. c #25BDF2",
":. c #2ABFF3",
">. c #43C5F4",
",. c #3DC4F4",
"<. c #48C7F5",
"1. c #43C6F4",
"2. c #59CCF6",
"3. c #35C1F3",
"4. c #52CAF6",
"5. c #56CBF6",
"6. c #2FBFF3",
"7. c #13B7F2",
"8. c #3CC4F4",
"9. c #53CBF6",
"0. c #27BDF3",
"q. c #16B9F2",
"w. c #54CBF5",
"e. c #24BDF3",
"r. c #5ACDF6",
"t. c #23BCF3",
"y. c #2EC0F3",
"u. c #46C7F5",
"i. c #3AC2F4",
"p. c #36C1F4",
"a. c #68D0F6",
"s. c #5DCDF6",
"d. c #6ED2F7",
"f. c #62CFF6",
"g. c #76D4F8",
"h. c #6AD1F7",
"j. c #81D8F8",
"k. c #7DD7F8",
"l. c #6FD2F7",
"z. c #63CFF6",
"x. c #7ED7F8",
"c. c #75D4F7",
"v. c #66D0F7",
"b. c #55CBF6",
"n. c #56CBF5",
"m. c #24BDF2",
"M. c #71D3F7",
"N. c #6FD3F7",
"B. c #93DEF9",
"V. c #77D5F8",
"C. c white",
/* pixels */
"  . X o O + @ # @ $ % & * = = * - # ; : + $ > # ; , < 1 2 3 4 - = 5 5 6 * - @ 7 8 9 0 q w e r r t y ",
", u i p . a s d 7 ; f g h % % > @ j k p l z s , x c v b n m 4 - M 5 5 N = B > + d 8 V C Z A 3 S D m ",
"7 F O G 8 H 9 J H K , s O j ; j d l e L L H t t m P X . t I 7 h = N N 6 = * B % # 4 u 3 U n L D m , ",
"f # $ @ j . A Y T b 9 8 z j R R F G E W Q ! e u 4 # $ f k   a + - * = = M 6 6 M * ~ ^ d m / L 3 r d ",
"h ( ) ) - ^ a _ ` ' 8 ] h ) = = B $ d [ 0 J l f ( * = B + p { s ^ h B = N } } } | = - ^ z E  .I l 4 ",
"- = N | N B f  ...X.f * 5 o.o.o.} 6 > , O.y d h = | | = > z m m u + % * | } o.o.} N * > 4 u P P G + ",
"( 6 } } } M > K +.r ( } o.o.o.o.o.} * F 9 J d ~ 6 } } M % d H @.y G # & N o.o.o.} | * % f O u , s + ",
"- M 5 } } M $ K #.z = o.o.o.o.o.o.o.N ^ I 9 s > = | | * $ G ! $.Q m O > * | } } 5 6 B > f ; 7 G G ; ",
"# B 6 | N * f 3 %.F M o.o.o.o.o.o.o.| g r J , @ B = * - ; e &.v @.9   d @ ( = M = B > *.4 ; : =.o =.",
": # - ) B $ z X.L O * } o.o.o.o.o.o.N # a t { 7 @ h $ j 8 J D -.k a r r a O ;.g # f j 7 O :.:.7 l X ",
"8 s ; + ; k H W 9 u > | o.o.o.o.o.} * ^ i { P . s 7 u   >.,.F h & B > 4 G p p X X . 8 , z : ; O l { ",
"D <.>.1.y / 2.@.L ,.7 h N o.o.o.} M h ; u 3.a ,.3  . .m . ; & | } } 5 = h j p t 9 A D 8 =.; + 4 z P ",
"D 4.5.W / 9  .t >.,.X 6.f - = M B > + =.G d 7 3.J U L { d B 7.o.o.o.o.} N - ; 8.! 9.3 l ; @ $ @ ; 3.",
">.9 D K X =.O O =.G G G G 6.j 0.0.: s l 7 0.0.7 e 0 X.r f 6 o.o.o.o.o.o.} q.> z m m u ] > - ( % @ d ",
"m 3 p F @ h - - > @ 0.j d l r r . . r k 4 # # + X @.w.-.$ 5 o.o.o.o.o.o.o.| - ; l z f % * M M ) h j ",
"t   F h * M 6 N M * - $ + d 8 <.J  .P 7 @ > > @ z A 2.P $ | o.o.o.o.o.o.o.| ( f j e.- = N 5 | M ~ ; ",
" .X # * | } } o.} | M B > 0.a D c <.l + > % h # d <.r.m f M o.o.o.o.o.o.o.N - # @ % = | } } } q.% O ",
"y =.- N } o.o.o.o.o.| M ( @ z m 9   O @ % - % # O >.c <.=.h N o.o.o.o.o.5 = % > h ) N } o.o.5 = $ u ",
"D ; B | o.o.o.o.o.o.7.6 B # 7 8 E a 4 $ % - h t.y.E J <.8 O > M 5 } } N * - > > ( M 5 o.o.o.| ) + ,.",
"u.+ ) | o.o.o.o.o.} N = - f 7 3., s 0.$ h h > 0.u   m E K r s ] # % - % > # $ > ( M 5 o.o.} q.% s X.",
"e + B N 7.o.o.} 5 N = ( # ; =.G o d + $ > > *.O , P p 3.X r P r a z 7 F j 4 f > ( = N 5 5 N B + I U ",
"  4 ~ = 6 N 6 M * B % @ j =.G G s 7 R t.# t.4 s , a d j j 7 l . P { P i.a z j *.h B = 6 q.) $ a O.b ",
",.O g - & & ( ~ $ f ; =.l X p.u s O R *.*.0.O l i 7 + # $ @ 4 =.a r   K K r l 7 + $ ~ ( - $ 7 X.a.s.",
",.u 4 # > > # + : z a . 8 8 , l z : 0.*.*.4 y.l z + > ( ( ~ $ + 7 o , P E m K P X =.; 0.; G 9 d.f.9 ",
", X s : 4 R j 7 G l a a a l o s 7 j + *.f ; z o F g ( = = * - $ R O z 3.r K m  .L A ! V A Q g.'  .8 ",
": =.l l z d 7 7 O : ; 0.0.0.4 ; j ; 0.f 0.O G G 4 > * = = = & h t.4 : =.o a p ,. .W h.2 j.k.l.J l O ",
"$ e.O G s 7 ; 0.*.$ % ( ( - h # *.0.4 4 :.z X u 0.h * = M M * - $ f 4 : d d 7 d =.i 8.y #.q O.p 0.# ",
"B - # j O j + # h & M N N M ) - $ f ; 7 z , K p ; h * = 6 M = ( > t.+ ; : ; f # > h # ; p D 3 7 $ ( ",
"M = ( # 4 4 *.$ ( M 5 o.} 5 q.) h @ j G r x 9 m =.# ( = M M M * - # + ; ; f h & 6 N 6 ( 0.X p 0.( M ",
"5 | = % *.0.+ g B N } o.o.7.6 * h *.O p  .@.q 5.r 0.% * M 6 6 = B # 0.:.; @ B | } o.} N - j z ^ ) | ",
"} } 6 B # 4 :.f B N } } } | = ( $ 0.=.r J z.x.c.J =.g B M | | 6 & $ ; =.: # = } o.o.o.o.= @ : # = 7.",
"o.} N ) $ ; z j % = N N N = - $ f ; 7 G r D v.j.z.-.f ( M 5 5 | = > O p.=.g 6 o.o.o.o.o.| h R g = } ",
"} 7.N ) $ O . X f ~ & ) ( h @ f f *.@ e.0.7 p b.' D F % M 5 } 5 M h 6.I X @ M o.o.o.o.o.5 % 0.# * 5 ",
"N N = - *.s 3 9 a ; ;.;.+ ; 4 *.> - B ( - > f =.<.%.X @ & q.| | * h z 9 >.; ) } o.o.o.o.5 - 0.e.( M ",
"* & - @ O . D 0 w.  a k s : *.% ) M 6 6 = & - # 7 >.1.7 h * M = B @ u w n.a $ 6 o.o.o.o.| ~ ; j # ( ",
"# @ 4 =.X 8 E 9 #.w I p =.+ h * 6 | 5 | M = * - # 6.I ,.; > ( - $ ; X D &.X.k $ M 5 } | * # y.u j e.",
"u X r 8 , G z k    .  u j # - = N 5 5 | M = * B % ^ i x P : f f ; z , { 3 A V r ; > - h @ 7 P >.,.X ",
"@.%.H , F ^ g # ; l p.=.0.$ - * M M M = & ( - - % # :   X.m 3.G u o z d =., x 9 3 r u u p 3 @.Z Z 0 ",
"f.J i f - ) * ) h 4 =.O + $ h ~ - ( - h @ m.^ # $ # 4 3.! 0 L K a O ^ $ > @ j p  .J D D ! W #.U v.Y ",
"3 i ^ ( M | | q.B # j : 4 *.# # *.0.j s . , =.R # $ @ : K q +.3 =.# ( * = * - f u E 3 H t   . . I J ",
"8 F h = 5 } } N ) $ ; O : j j =., 3 2.Y v >.d # ( & B h 7 w M.<.; - M | 7.| M ~ 0.l r . u O 4 j u   ",
"p ; - q.5 } } q.B @ O G G G X K A N.B.` 5.z h M 5 } 5 6 > 8 ' V 4 ( 6 } o.} | ) # 7 o z ; t.$ # : p ",
". ; ~ q.| 5 N = h 4 u r r p , r I A Z r.u h N o.o.o.o.} * =.#.! j - q.5 } } | = > ; d : *.> h > 0.l ",
"P 7 h = 6 6 = ( @ d . 8 a 7 4 0.j u E . ^ M o.o.o.o.o.o.6 : c [ 7 > * 6 | | M * > R : 4 $ h ~ h f u ",
"I k @ ( * * B h f y.a s 0.$ ~ - > + d j ( 5 o.o.o.o.o.o.N 7 w 1.7 # - * M M = ( $ R :.+ $ h % > + u ",
"H . 0.h ( ) B h @ :.: e.- * = = & > f # * } o.o.o.o.o.o.q.i w 8 j # h - ( B ( h @ ; : + $ h h $ 4 3.",
"9 ,.j > ( * ) - $ *.# - = N | N M ( > h M } o.o.o.o.o.o.( 1.! u + $ > > h h $ t.4 7 7 ; t.> > t.O p ",
"!   : $ ( * * B h > - * N } } 7.q.B > ~ M } o.o.o.o.o.N F &. .j $ % - h > # f j =.u o d 4 *.*.4 =.,.",
"9 ,.d @ - & ) ( h h & M | } } | q.B > h * | o.o.o.} 6 # L v.p @ - ) * B % # 4 z p     , z : j O l m ",
" .{ G 4 $ ~ ( ~ h % ) = N 5 | N = - $ $ - * N | 6 B *.,.V.#.7 h * = M = ( $ 0.G   J X. .r G =.s .  ."
};
