/* XPM */
static char *result[] = {
/* columns rows colors chars-per-pixel */
"50 50 162 2 ",
"   c #42C5F4",
".  c #31C0F3",
"X  c #29BEF3",
"o  c #25BDF2",
"O  c #28BEF3",
"+  c #24BDF2",
"@  c #22BCF2",
"#  c #20BBF2",
"$  c #1CBAF2",
"%  c #1ABAF2",
"&  c #2BBEF3",
"*  c #37C2F3",
"=  c #39C2F4",
"-  c #2DBFF3",
";  c #2EBFF3",
":  c #3AC2F4",
">  c #43C5F4",
",  c #4EC9F5",
"<  c #55CBF5",
"1  c #4DC8F5",
"2  c #34C1F3",
"3  c #19B9F2",
"4  c #14B8F2",
"5  c #12B7F1",
"6  c #13B7F2",
"7  c #15B8F2",
"8  c #1BBAF2",
"9  c #2FC0F3",
"0  c #51CAF5",
"q  c #50C9F5",
"w  c #45C6F5",
"e  c #3BC3F4",
"r  c #32C0F3",
"t  c #53CAF5",
"y  c #67D0F6",
"u  c #36C1F3",
"i  c #23BCF2",
"p  c #24BCF2",
"a  c #1FBBF2",
"s  c #21BCF2",
"d  c #2ABEF3",
"f  c #44C5F5",
"g  c #3CC3F4",
"h  c #38C2F4",
"j  c #40C4F4",
"k  c #4BC8F5",
"l  c #59CCF5",
"z  c #5FCEF6",
"x  c #4CC8F5",
"c  c #30C0F3",
"v  c #1EBBF2",
"b  c #11B7F1",
"n  c #0FB6F1",
"m  c #10B6F1",
"M  c #35C1F3",
"N  c #47C6F5",
"B  c #3FC4F4",
"V  c #38C2F3",
"C  c #4AC7F5",
"Z  c #64CFF6",
"A  c #5ACCF6",
"S  c #41C4F4",
"D  c #3AC3F4",
"F  c #1DBBF2",
"G  c #20BCF2",
"H  c #3DC3F4",
"J  c #51C9F5",
"K  c #48C6F5",
"L  c #3EC4F4",
"P  c #49C7F5",
"I  c #2FBFF3",
"U  c #1DBAF2",
"Y  c #5CCDF6",
"T  c #46C6F5",
"R  c #16B8F2",
"E  c #58CCF5",
"W  c #4BC7F5",
"Q  c #27BDF2",
"!  c #2BBFF3",
"~  c #27BDF3",
"^  c #68D1F7",
"/  c #6FD3F7",
"(  c #46C6F4",
")  c #26BDF2",
"_  c #17B9F2",
"`  c #12B7F2",
"'  c #26BDF3",
"]  c #6FD2F7",
"[  c #41C5F4",
"{  c #18B9F2",
"}  c #55CBF6",
"|  c #5BCCF6",
" . c #33C1F3",
".. c #4FC9F5",
"X. c #3EC3F4",
"o. c #52CAF5",
"O. c #37C2F4",
"+. c #2CBFF3",
"@. c #1AB9F2",
"#. c #3DC4F4",
"$. c #57CBF6",
"%. c #68D0F7",
"&. c #60CEF6",
"*. c #48C7F5",
"=. c #42C4F4",
"-. c #32C1F3",
";. c #56CBF6",
":. c #5BCDF6",
">. c #45C5F5",
",. c #56CBF5",
"<. c #4EC8F5",
"1. c #5ECDF6",
"2. c #6DD2F7",
"3. c #78D5F8",
"4. c #76D5F8",
"5. c #65D0F6",
"6. c #57CBF5",
"7. c #79D6F8",
"8. c #67D0F7",
"9. c #59CCF6",
"0. c #62CFF6",
"q. c #5ECEF6",
"w. c #21BBF2",
"e. c #25BDF3",
"r. c #10B7F1",
"t. c #13B7F1",
"y. c #14B8F1",
"u. c #66D0F6",
"i. c #45C6F4",
"p. c #70D3F7",
"a. c #77D5F8",
"s. c #54CBF5",
"d. c #43C5F5",
"f. c #54CAF5",
"g. c #58CCF6",
"h. c #42C5F5",
"j. c #61CFF6",
"k. c #27BEF3",
"l. c #36C2F3",
"z. c #42C4F5",
"x. c #68D1F6",
"c. c #5DCDF6",
"v. c #44C5F4",
"b. c #75D4F7",
"n. c #7ED7F8",
"m. c #6CD2F7",
"M. c #8BDBF9",
"N. c #40C5F4",
"B. c #65CFF6",
"V. c #33C0F3",
"C. c #8FDDF9",
"Z. c #8ADBF9",
"A. c #80D8F8",
"S. c #C1ECFC",
"D. c #A5E3FA",
"F. c #6AD1F7",
"G. c #7CD7F8",
"H. c #72D4F7",
"J. c #58CBF6",
"K. c #75D5F7",
"L. c #13B8F2",
"P. c white",
/* pixels */
"  . X o o O X O + @ # $ % % % $ @ & * = . - ; . : > , < 1 2 @ 3 4 5 6 7 8 @ 9 > 0 q w e 2 r 2 e t y ",
"u X i @ p X 9 2 . X i a 8 3 % $ s d e f g u 2 h j k l z x c v 7 b n n m 4 8 p M w N B V 2 u g C Z A ",
"d # $ 8 v + c S N D - i F % % $ G d H J K = . - - r L q P I U 4 n n n n m 7 $ X u * r ; - . : 1 Y T ",
"@ 3 7 6 R $ O j z < h O a 8 % $ # d H E W c i v $ a Q : T r v 4 n n n n n b 3 i ! ! ~ + + O . > x : ",
"U 4 m n m 6 U r ^ / B O a % 3 % a X e < ( ) 8 R 4 R $ X L : p R m n n n n b _ # o + s # # i & = S r ",
"% ` n n n m _ ' z ] e o F 3 _ 3 v Q = 1 [ p _ b m ` _ @ 2 j ; U 4 n n n n b { a @ s a v v s ) r = I ",
"% b n n n n 4 @ } |  .i 8 _ R { $ o M T B o { b m 5 R a ; S j & $ 7 b m b 4 % # @ s a v v # + - 2 ; ",
"F 6 n n n n 7 ' ..C - G % R 7 _ 8 i r B X.& $ 4 6 7 % @ 9 j 0 x  .s % _ _ % a p + @ s # # s + & r c ",
"i { b n n 5 % 9 x B d # % _ R _ 8 @ 9 : H 2 o 8 3 8 s d u j W | Z o.O.O i o X +.! X ~ o i i o d . 2 ",
"c s { 7 7 @.o L C : d s $ 3 3 3 v o ; u e H u d o O I h = r +.I #.$.%.&.1   B g h M r ; d O O +. .= ",
"  M ' s @ - [ q *.g . O @ a v a i X 9 2 = =.C P B L [ O.o % 7 7 _ v -.;./ ^ :.J W >.X.M ; d d - 2 B ",
"q ,.<.C q 1.&.q   e = M I X O X +.c r r 2 X.q Z 2.z L # 4 m n n n b _ o j t J x P f : c X ' o O 9 e ",
"w A / 3.4.5.k h - & - 2 : e : : e =  .- ! c H 6.7.8.~ 6 n n n n n n b 3 ~ O.e = h 2 - ) @ a a @ ~ . ",
": C 9.1.< [ 9 p v 8 8 a X = w W W =.r ~ @ @ O g 0.q.w.m n n n n n n n 6 a ! c 9 - X + # U 8 8 v @ X ",
"M X.S H M & s % 7 ` b 6 _ s M W o.N ; # 8 @.$ O k Y e.r.n n n n n n n 5 8 o ! & O i # $ % 3 3 $ G ~ ",
"2 u c d ) s % 4 m n n n m 7 s D , k +.$ R 7 _ v M | c t.n n n n n n n ` 8 @ X X o s v 8 % 3 % U @ d ",
" .- o G v 8 _ 5 n n n n n m _ X w 1 - 8 4 5 4 3 ) J ( 8 m n n n n n n 4 8 @ X X o s v 8 8 8 $ # ) I ",
"c ) a 8 % 3 7 b n n n n n n b a D x r 8 7 5 6 { # g :.c _ m n n n n 5 { v o ! +.~ @ # a v a s ) I M ",
"- @ 8 { { { 7 5 n n n n n n m %  .W = a _ 4 4 { # I $.A +.$ R y.7 _ % a + d 9 9 & o @ s s i O 9 = H ",
"d # % { { 3 { 4 m n n n n n m 3 - P B p 8 { { 8 @ -   2.u.#.; O o + o X ; r 2  .; X o i + O 9 D N S ",
"O a % { { % % { 6 m n n n n b 3 +.*.i.d G F U a + - = x p.a.:.*.B e h = : : V 2 9 X o i o d M K s.> ",
"~ a % 3 % 8 v v % 4 b n n b 4 v 9 P C r ' s G @ ' ! 9  .= ..z q d.X.X.j S X.=  .+.' @ @ i X * f.Y j ",
") a 8 3 % F s i @ v 3 R R { $ ) u W k * d i s s i o o + + ~ -.B e u * g S j : . d p s # @ X e 1.g.g ",
"o a 8 % % v @ O +.X o i @ + X . X.k *.u d i G # # a v $ % 8 a X  .2 M e h.f g . d + s s i +.i.j.1 M ",
"@ v % % 8 v i ! r M  .. c c 2 : d.P d.2 X @ # a v $ 3 R 7 7 { F k. .: j N P B 2 - O o o X 2 < q.j - ",
"v % 3 3 8 a p - l.H X.e : V : B f T B 2 d i # a F % _ 4 5 b 4 { a +.e T x C j u . ; ; 9 M T ^ f.2 o ",
"3 _ R _ 3 v p ; * X.X.H g e g B =.z.X.u - ~ @ s v % R ` m m 5 7 8 + 2 S T   h . - - 9 M j 9.p.P & # ",
"R 7 4 R { F + ; M M c ! d +.9 2 h g H : 2 ; X o s 8 R b n n m ` _ a d 2 h  .! o @ i ~ ; e ,.u.B o $ ",
"4 ` 5 7 { v ~ . 2 ! @ F 8 $ a ) -  .= B B e u I o F _ 5 n n n b R $ i O ! O G $ % % F + c *.,.h @ 3 ",
"4 b ` 7 3 # ! * . i % 7 4 4 _ v + +. .H K 1 W j 9 s 3 6 m n n m 6 { F s i G % R 6 4 _ U ~ g N r a { ",
"6 5 4 R 8 + M j I v R b m m 6 3 # ' - u T A x.c.B O $ 4 m n n n b 7 3 $ v $ R ` m b 6 { @  .g - v _ ",
"4 4 7 { a +.> C - 8 6 n n n b R F p d 9 = C %.3.9.2 G _ b n n n m 4 R 3 8 % R b n n m 7 v - u d v { ",
"7 7 _ $ o O.A c.; $ 4 m n n 5 R F i ~ d - r H 9.%.*.d 8 6 n n n m 6 7 _ % 3 7 b n n m 4 $ X r X a 3 ",
"{ { 8 s +.v.b.n.O.a _ 6 b b 6 _ F i o + + + ) ; P ,.g i { ` m m 5 6 7 _ 3 % R 6 m m b 7 U O 9 & s $ ",
"v v s O M C m.M.< X F { 4 4 7 { v p + @ a U $ v Q [ k M s { 4 4 7 7 R 3 8 F 8 { 4 6 4 { a ~ 9 - o G ",
"p p ~ +.r g W &.m.j ) v 3 { { 8 a e.o G $ 3 _ { 8 ) N.C 2 s 8 3 3 3 8 F a @ s v 8 % % F @ d . . +.~ ",
"d O ' ' ) d r L J ..r i v 8 8 $ s O O s $ { R 7 R 8 d *.o.* ~ @ s s @ o O ! ; +.~ + i o X 9  .M r ; ",
"! o s v F a p +.h > h O s v $ v s d +.+ v % _ 7 7 3 # 2 c.B.> 2 . c 9 c r u X.> j h  .V. .2 M * M r ",
"d @ U 3 { 3 $ s X 2 2 X s v F v @ &  .+.i v % 3 { 8 # d k C.Z.g.N g 2 9 9  .g W l 6.x > e M 2 2 M  .",
"d s % R 7 R { U i & ; O s v F v @ & : D 9 ~ @ a a # i +.H A.S.p.  I o # a G Q  .C &.q.C = c ; 9  .2 ",
"- @ 8 R 7 7 R % # o d ' s a v a i - S ..T h ; ~ i @ i O . , D.F.9 # { 7 4 4 { # c C A T r d ~ d c M ",
"M k.v 3 _ _ { % a + O ~ @ # a s o . *.5.q.> . ) # U 8 U @ c G.H.d 8 4 m n n 5 { i = 1 B - + @ o - * ",
"B . + F 8 % 8 F s o X k.i s s @ X M <.x.J.h ) F _ 4 6 4 { i 9.K.; % 6 n n n n 4 v 9 d.D X s a s X * ",
"C j c o G a a s i ' X O ' p i ' +.h x < j d F R b n n m 4 v   ^ O.v 4 m n n n ` $ & g M o a F a ) 2 ",
"o.o.j r X o @ @ i + ' ~ ~ ' ~ X ; * > S . @ { 5 n n n n 5 v = < L o { 5 m n m 4 8 X * c i v 8 U i c ",
",.z 1 g I ' @ s s s i p o ~ O & ; 2 = 2 O a R m n n n n 6 s O.> g ! v { L.b ` R F d 2 - @ $ % $ s - ",
"9.q.C : - + # v v a # s @ i ' X +..  .; + F _ 5 n n n b { ) u * 2 c k.a % { { 8 @ -  .+.@ U 8 $ @ - ",
"c.o.L r X @ v $ 8 U v a a s @ o X ; . +.i v % 7 6 5 6 _ G 9 M ; d d +.X + s # i d  .M +.i v U a p r ",
"Y > 2 +.~ @ a $ $ $ U $ $ U v s ' - . - o # v $ % 3 8 @ ; = . ) s s + d ; ; I . h H = 9 ' @ s @ d B ",
"J : ; X ' p @ # a v $ 8 % 3 8 a i +. .c O i @ i i o d  .j g d # 8 3 8 # k.r e =.*.P B 2 +.O ~ d u f."
};
